EBGaramond12-SC.sfdir
StartChar: exclam
Encoding: 33 33 66
Width: 270
VWidth: 0
Flags: W
HStem: -14 120<98.7454 191.255>
VStem: 85 120<-0.254639 92.2546> 93 104<352.256 636.824>
LayerCount: 2
Fore
SplineSet
145 106 m 28xc0
 178 106 205 79 205 46 c 28
 205 13 178 -14 145 -14 c 28
 112 -14 85 13 85 46 c 28
 85 79 112 106 145 106 c 28xc0
145 649 m 28
 180 650 197 612 197 575 c 4
 197 488 176 358 161 244 c 4
 158 222 153 205 143 205 c 4
 133 205 128 215 125 244 c 4
 113 358 93 510 93 573 c 4xa0
 93 612 109 648 145 649 c 28
EndSplineSet
Validated: 33
EndChar
StartChar: numbersign
Encoding: 35 35 95
Width: 468
VWidth: 0
Flags: W
HStem: 204 60<21.8772 94 149 191> 214 60<206 248 303 368.945> 402 60<68.8772 142 198 239.5> 412 60<254.5 296 352 415.945> 630 20G<225 235.5 380 390.5>
LayerCount: 2
Fore
SplineSet
134 206 m 1x58
 90 27 l 2
 87 14 73 12 60 12 c 0
 53 12 48 20 50 27 c 2
 94 204 l 1
 31 201 l 2
 24 201 17 207 17 213 c 0
 17 222 20 260 41 261 c 2
 108 264 l 1
 142 402 l 1
 78 399 l 2
 71 399 64 405 64 411 c 0
 64 420 67 458 88 459 c 2
 157 462 l 1xa8
 199 633 l 2
 202 647 218 650 232 650 c 0
 239 650 241 640 239 633 c 2
 198 464 l 1
 311 470 l 1
 354 644 l 2
 357 658 373 661 387 661 c 0
 394 661 396 651 394 644 c 2
 352 472 l 1
 411 475 l 2
 418 475 426 468 424 461 c 0
 418 440 415 416 393 415 c 2
 337 412 l 1
 303 274 l 1
 364 277 l 2
 371 277 379 270 377 263 c 0
 371 242 368 218 346 217 c 2
 288 214 l 1
 245 38 l 2
 242 25 228 23 215 23 c 0
 208 23 203 31 205 38 c 2
 248 212 l 1
 134 206 l 1x58
149 266 m 1
 263 272 l 1
 296 410 l 1
 183 404 l 1
 149 266 l 1
EndSplineSet
Validated: 1
EndChar
StartChar: quotesingle
Encoding: 39 39 69
Width: 195
VWidth: 0
Flags: W
HStem: 444 232<80.1508 89.4949>
VStem: 62 74<529.368 656.895>
LayerCount: 2
Fore
SplineSet
65 467 m 0
 67 520 67 557 62 619 c 0
 61 633 72 648 81 655 c 0
 97 667 108 676 124 676 c 0
 139 676 139 645 136 624 c 0
 126 555 107 505 91 469 c 0
 86 457 77 444 72 444 c 0
 67 444 65 458 65 467 c 0
EndSplineSet
Validated: 33
EndChar
StartChar: parenleft
Encoding: 40 40 108
Width: 315
VWidth: 0
Flags: W
VStem: 40 60<122.186 412.903>
LayerCount: 2
Fore
SplineSet
40 269 m 0
 40 439 145 623 216 694 c 0
 223 701 230 703 240 704 c 24
 248 705 255 704 261 698 c 24
 265 694 266 686 262 682 c 0
 191 611 100 451 100 281 c 0
 100 111 191 -115 262 -186 c 0
 266 -190 264 -198 260 -204 c 24
 255 -210 250 -212 242 -213 c 24
 233 -214 226 -213 220 -207 c 0
 149 -136 40 99 40 269 c 0
EndSplineSet
Validated: 1
EndChar
StartChar: parenright
Encoding: 41 41 109
Width: 316
VWidth: 0
Flags: W
HStem: 684 20G<61.5 72>
VStem: 206 60<134.229 415.813>
LayerCount: 2
Fore
SplineSet
266 281 m 0
 266 111 154 -136 83 -207 c 0
 77 -213 70 -214 61 -213 c 24
 51 -212 45 -210 39 -202 c 24
 35 -197 37 -190 41 -186 c 0
 112 -115 206 97 206 267 c 0
 206 437 116 611 45 682 c 0
 41 686 37 691 41 695 c 24
 49 703 56 704 67 704 c 24
 77 704 84 701 91 694 c 0
 162 623 266 451 266 281 c 0
EndSplineSet
Validated: 1
EndChar
StartChar: plus
Encoding: 43 43 100
Width: 590
VWidth: 0
Flags: W
HStem: -8 21G<279 286.5> 222 50<53.2358 270 330 544.448>
VStem: 270 60<-4.15825 222 272.011 475.038>
LayerCount: 2
Fore
SplineSet
330 278 m 6
 330 271 331 272 334 272 c 6
 537 272 l 14
 544.451 272 552.524 265.011 550 258 c 28
 543.725 240.567 537.528 222 519 222 c 18
 334 222 l 2
 331 222 330 221 330 218 c 2
 330 16 l 10
 330 -4.92969 291 -8 282 -8 c 0
 276 -8 270 -1.19141 270 6 c 18
 270 217 l 2
 270 220 269 222 266 222 c 2
 64 222 l 10
 56.8086 222 50 228 50 234 c 0
 50 243 56.4717 272 74 272 c 22
 263 272 l 6
 269 272 270 274 270 280 c 6
 270 451 l 14
 270 472.634 310 482 316 482 c 4
 323 482 330 476.451 330 469 c 22
 330 278 l 6
EndSplineSet
Validated: 1
EndChar
StartChar: period
Encoding: 46 46 39
Width: 230
VWidth: 0
Flags: W
HStem: -14 110<71.7433 158.257>
VStem: 60 110<-2.25671 84.2567>
LayerCount: 2
Fore
SplineSet
115 96 m 28
 145.335 96 170 71.335 170 41 c 28
 170 10.665 145.335 -14 115 -14 c 28
 84.665 -14 60 10.665 60 41 c 28
 60 71.335 84.665 96 115 96 c 28
EndSplineSet
Validated: 1
EndChar
StartChar: slash
Encoding: 47 47 96
Width: 399
VWidth: 0
Flags: W
LayerCount: 2
Fore
SplineSet
30 -47 m 26
 327 648 l 26
 334 663 349 665 366 665 c 24
 374 665 382 656 379 648 c 26
 82 -47 l 26
 76 -61 61 -62 46 -62 c 24
 37 -62 27 -55 30 -47 c 26
EndSplineSet
Validated: 1
EndChar
StartChar: zero
Encoding: 48 48 83
Width: 507
VWidth: 0
Flags: W
HStem: -15 41<189.1 322.003> 372 41<190.132 321.15>
VStem: 40 78<110.108 295.744> 389 78<109.707 293.68>
LayerCount: 2
Fore
SplineSet
259 372 m 0
 177.383 372 118 301 118 204 c 0
 118 119 165.394 26 247 26 c 0
 329 26 389 78 389 203 c 0
 389 286 343 372 259 372 c 0
253 413 m 24
 369.932 412.727 467 319.933 467 203 c 24
 467 83.8613 372.138 -15.2793 253 -15 c 24
 133.855 -14.7207 40 84.8555 40 204 c 24
 40 320.381 136.619 413.273 253 413 c 24
EndSplineSet
Validated: 33
Substitution2: "'tnum' Tabular Numbers lookup 7 subtable" zero.taboldstyle
Substitution2: "'lnum' Lining Figures lookup 5 subtable" zero.lnum
EndChar
StartChar: four
Encoding: 52 52 79
Width: 492
VWidth: 0
Flags: W
HStem: -181 21G<289 296.5> 43 61<116 259.185> 50 54<117.124 278 351.055 457.611>
VStem: 278 73<-162.906 49.9258 104.076 282.13>
LayerCount: 2
Fore
SplineSet
266 104 m 0xb0
 271 104 278 108 278 112 c 0
 278 180 278 189 278 281 c 0
 278 284 270.721 284.821 268 282 c 24
 206.467 218.188 173.565 180.412 116 113 c 24
 113.721 110.331 112 104 116 104 c 0xd0
 188 104 190 104 266 104 c 0xb0
25 56 m 0
 50 87 54 91 69 108 c 0
 142 187 148 196 228 282 c 0
 250 306 278.546 340.023 311 377 c 24
 326.126 394.234 343 420 350 421 c 0
 357 422 354 413.934 354 409 c 24
 354 291.989 349.617 226.01 350 109 c 24
 350.01 105.954 351.957 103.146 355 103 c 24
 393.567 101.146 418 102 454 104 c 0
 460 104 466.066 100.439 465 95 c 24
 461.477 77.0293 451 53 444 53 c 0
 417 53 382 55 364 52 c 0
 359 51 351 47 351 46 c 0
 351 -13 351 -77 351 -133 c 0
 351 -158 300 -181 293 -181 c 0
 285 -181 278 -178 278 -168 c 0
 278 -100 278 9 278 41 c 0
 278 47 264 50 263 50 c 0xb0
 181 50 139 44 34 43 c 0
 28 43 22 52 25 56 c 0
EndSplineSet
Validated: 33
Substitution2: "'tnum' Tabular Numbers lookup 7 subtable" four.taboldstyle
Substitution2: "'lnum' Lining Figures lookup 5 subtable" four.lnum
EndChar

StartChar: five
Encoding: 53 53 78
Width: 375
VWidth: 0
Flags: W
HStem: -189 29<68.529 150.003> 325 90<163.5 261.016>
VStem: 245 80<-70.602 72.3007>
LayerCount: 2
Fore
SplineSet
102 -189 m 0
 87 -189 68 -186 68 -177 c 0
 68 -167 89 -162 101 -160 c 0
 176.211 -147.465 245 -106.276 245 0 c 0
 245 83 174 134 108 167 c 0
 64.3835 188.808 56.3479 208.827 58 227 c 0
 63 282 80 328 89 347 c 0
 98.2213 366.467 115 376 125 380 c 0
 171.098 398.439 212.957 407.285 271 415 c 24
 278.129 415.947 283 408 283 401 c 0
 283 376 259 330 232 325 c 0
 181 315 141 313 110 312 c 0
 100.949 311.708 97.3666 301.677 92 282 c 0
 89 271 92.592 262.156 111 252 c 0
 169 220 235 177 263 150 c 0
 290 124 325 69 325 17 c 0
 325 -112 202 -189 102 -189 c 0
EndSplineSet
Validated: 33
Substitution2: "'tnum' Tabular Numbers lookup 7 subtable" five.taboldstyle
Substitution2: "'lnum' Lining Figures lookup 5 subtable" five.lnum
EndChar
StartChar: less
Encoding: 60 60 101
Width: 590
VWidth: 0
Flags: W
LayerCount: 2
Fore
SplineSet
133 229 m 6
 513 55 l 14
 532 46 537 16 537 7 c 4
 537 1 530 -8 523 -5 c 30
 94 195 l 30
 77 203 53 216 53 222 c 4
 53 231 66 259 86 268 c 30
 523 468 l 30
 530 471 538 461 536 454 c 28
 530 433 525 417 505 408 c 22
 132 234 l 6
 129 233 130 230 133 229 c 6
EndSplineSet
Validated: 1
EndChar

StartChar: equal
Encoding: 61 61 99
Width: 590
VWidth: 0
Flags: W
HStem: 143 50<53.2358 534.448> 314 50<53.2358 534.448>
LayerCount: 2
Fore
SplineSet
74 193 m 26
 527 193 l 26
 534.451 193 542.524 186.011 540 179 c 24
 533.725 161.567 527.528 143 509 143 c 26
 64 143 l 26
 56.8086 143 50 149 50 155 c 0
 50 164 56.4717 193 74 193 c 26
74 364 m 26
 527 364 l 26
 534.451 364 542.524 357.011 540 350 c 24
 533.725 332.567 527.528 314 509 314 c 26
 64 314 l 26
 56.8086 314 50 320 50 326 c 0
 50 335 56.4717 364 74 364 c 26
EndSplineSet
Validated: 1
EndChar
StartChar: greater
Encoding: 62 62 102
Width: 590
VWidth: 0
Flags: W
LayerCount: 2
Fore
SplineSet
457 234 m 6
 77 408 l 14
 58 417 53 447 53 456 c 4
 53 462 60 471 67 468 c 30
 496 268 l 30
 513 260 537 247 537 241 c 4
 537 232 524 204 504 195 c 30
 67 -5 l 30
 60 -8 52 2 54 9 c 28
 60 30 65 46 85 55 c 22
 458 229 l 6
 461 230 460 233 457 234 c 6
EndSplineSet
Validated: 1
EndChar
StartChar: at
Encoding: 64 64 1014
Width: 749
Flags: W
HStem: -131 40<285.786 481.766> 47 34<306.838 396.313 471.5 575.64> 325 30<343.972 444.313> 467 40<282.801 491.002>
VStem: 50 47<88.8546 298.864> 204 71<106.898 246.874> 652 47<148.276 316.333>
LayerCount: 2
Fore
SplineSet
492 47 m 0
 451 47 448 84 438 84 c 0
 428 84 385 47 322 47 c 0
 256 47 204 86 204 156 c 0
 204 277 305 355 415 355 c 0
 435 355 468 351 480 347 c 0
 495 342 499 341 503 341 c 0
 513 341 518 360 528 360 c 0
 532 360 549 356 546 352 c 1
 537 328 527 288 524 272 c 2
 503 140 l 2
 502 131 500 122 500 113 c 0
 500 98 504 84 518 84 c 0
 588 84 652 137 652 220 c 0
 652 359 533 467 394 467 c 0
 236 467 97 360 97 191 c 0
 97 32 234 -91 393 -91 c 0
 458 -91 550 -56 600 -14 c 0
 606 -9 613 -4 618 -4 c 0
 627 -4 632 -8 632 -17 c 0
 632 -41 490 -131 382 -131 c 0
 204 -131 50 -3 50 181 c 0
 50 395 223 507 414 507 c 0
 563 507 699 384 699 235 c 0
 699 118 599 47 492 47 c 0
393 325 m 0
 336 325 275 273 275 175 c 0
 275 103 320 81 358 81 c 0
 382 81 398 89 418 103 c 0
 430 111 439 121 445 152 c 2
 464 255 l 2
 465 259 465 263 465 267 c 0
 465 304 436 325 393 325 c 0
EndSplineSet
Validated: 1
EndChar

StartChar: A
Encoding: 65 65 31
Width: 684
Flags: W
HStem: -5 36<-0.573315 70.1888 195.015 266.525 401.311 474.5 612.158 694.277> 244 43<241.006 430.822>
AnchorPoint: "cedilla" 124 8 basechar 0
AnchorPoint: "ogonek" 508 18 basechar 0
AnchorPoint: "below_accent" 334 -100 basechar 0
AnchorPoint: "top_accent" 363 700 basechar 0
LayerCount: 2
Fore
SplineSet
668 -5 m 0
 640 -5 574 1 529 1 c 0
 490 1 454 0 430 0 c 0
 413 0 401 3 401 11 c 0
 401 20 416 26 434 31 c 0
 474 41 485 54 485 76 c 0
 485 84 483 94 481 105 c 0
 474 139 463 191 452 233 c 0
 449 243 444 244 424 244 c 2
 233 244 l 2
 223 244 220 240 216 226 c 2
 178 102 l 2
 176 97 176 92 176 87 c 0
 176 58 202 38 234 30 c 0
 257 24 267 19 267 10 c 0
 267 2 255 -1 238 -1 c 0
 220 -1 184 1 147 1 c 0
 103 1 60 -5 27 -5 c 0
 10 -5 -2 0 -2 8 c 0
 -2 17 9 24 31 31 c 0
 65 41 95 58 117 108 c 0
 192 279 237 393 304 578 c 0
 307 587 311 596 314 608 c 0
 317 619 316 635 318 636 c 0
 330 640 342 643 354 651 c 0
 368 660 370 676 375 676 c 0
 380 676 382 671 385 662 c 0
 449 459 530 223 563 128 c 0
 591 48 624 35 664 28 c 0
 687 24 697 14 697 5 c 0
 697 -3 685 -5 668 -5 c 0
333 542 m 2
 243 302 l 2
 242 299 241 297 241 295 c 0
 241 288 249 287 262 287 c 2
 417 287 l 2
 427 287 431 287 431 292 c 0
 431 294 430 298 429 302 c 2
 350 541 l 2
 346 553 344 559 341 559 c 0
 339 559 337 553 333 542 c 2
EndSplineSet
Validated: 513
EndChar
StartChar: E
Encoding: 69 69 35
Width: 535
Flags: W
HStem: -5 40<228 455.39> -5 29<23.6924 99.9253> 320 32<210.253 367.094> 388 20G<400.5 405.5> 618 35<32.1729 114.247 219.165 433.859>
VStem: 130 80<51.352 319.809 352 605.889> 383 32<253.771 304.565> 466 25<526.084 573.315>
AnchorPoint: "cedilla" 322 8 basechar 0
AnchorPoint: "ogonek" 450 18 basechar 0
AnchorPoint: "below_accent" 280 -100 basechar 0
AnchorPoint: "top_accent" 287 701 basechar 0
LayerCount: 2
Fore
SplineSet
458 653 m 0x7f
 465 653 475 651 476 644 c 0
 483 606 491 568 491 541 c 0
 491 529 483 526 477 526 c 0
 470 526 468 529 466 536 c 0
 459 558 453 581 444 591 c 0
 425 612 402 618 377 618 c 2
 246 618 l 2
 235 618 216 604 214 588 c 0
 213 579 210 423 210 374 c 0
 210 363 210 352 220 352 c 2
 324 352 l 2
 353 352 375 368 385 391 c 0
 387 396 398 408 403 408 c 0
 408 408 416 402 416 392 c 0
 416 383 413 353 413 337 c 0
 413 317 415 277 415 269 c 0
 415 260 414 252 406 252 c 0
 393 252 385 268 383 275 c 0
 373 306 354 320 337 320 c 2
 244 320 l 2
 219 320 208 320 210 291 c 1
 210 230 212 170 213 113 c 0
 214 62 231 35 276 35 c 2
 380 35 l 2xbf
 430 35 443 43 456 53 c 0
 474 67 490 99 498 116 c 0
 502 124 505 127 512 126 c 0
 519 125 525 123 525 115 c 0
 525 97 515 38 508 12 c 0
 506 3 502 -5 494 -5 c 0
 366 -5 267 1 167 1 c 0
 122 1 106 -5 52 -5 c 0
 35 -5 23 -2 23 6 c 0
 23 15 33 20 56 24 c 0
 106 33 130 51 130 99 c 2
 130 549 l 2
 130 597 113 613 63 622 c 0
 40 626 30 633 30 642 c 0
 30 650 42 653 59 653 c 0
 134 653 166 650 236 650 c 0
 327 650 448 653 458 653 c 0x7f
EndSplineSet
Validated: 33
EndChar
StartChar: F
Encoding: 70 70 41
Width: 512
Flags: W
HStem: -5 29<30.6924 104.863 240.561 311.308> 318 37<211.16 382.438> 391 20G<412.5 417.5> 611 39<214.231 429.753> 622 31<37.0745 105.304>
VStem: 130 80<46.2759 315.741 352.008 603.448> 396 32<256.771 304.694> 461 24<523.355 565.46>
AnchorPoint: "top_accent" 279 700 basechar 0
LayerCount: 2
Fore
SplineSet
485 544 m 0xef
 485 532 482 523 476 523 c 0
 469 523 463 528 461 535 c 0
 454 557 447 574 438 584 c 0
 419 605 396 611 371 611 c 2
 244 611 l 2xf7
 213 611 211 587 210 561 c 0
 209 536 209 502 209 467 c 0
 209 433 209 398 210 374 c 0
 210 363 211 352 220 352 c 0
 262 352 312 355 336 355 c 0
 365 355 387 371 397 394 c 0
 399 399 410 411 415 411 c 0
 420 411 429 404 428 395 c 0
 426 372 425 356 425 340 c 0
 425 320 426 301 428 272 c 0
 428 263 427 255 419 255 c 0
 406 255 398 271 396 278 c 0
 386 309 365 317 349 317 c 0
 332 317 315 318 299 318 c 0
 276 318 255 317 234 316 c 0
 221 315 210 308 210 291 c 0
 210 230 210 167 213 101 c 0
 215 58 229 33 279 24 c 0
 302 20 312 15 312 6 c 0
 312 -2 300 -5 283 -5 c 0
 229 -5 223 2 185 2 c 0
 136 2 113 -5 59 -5 c 0
 42 -5 30 -2 30 6 c 0
 30 15 40 20 63 24 c 0
 113 33 130 51 130 100 c 2
 130 522 l 2
 130 582 119 613 69 622 c 0
 46 626 36 633 36 642 c 0
 36 650 48 653 65 653 c 0xef
 138 653 168 650 237 650 c 0xf7
 328 650 460 653 462 653 c 0
 469 653 479 651 480 644 c 0
 484 621 485 558 485 544 c 0xef
EndSplineSet
Validated: 1
EndChar
StartChar: G
Encoding: 71 71 40
Width: 729
Flags: W
HStem: -14 37<313.609 496.294> 256 34<437.011 535.328 642.232 692.897> 625 38<306.718 509.098>
VStem: 45 99<215.989 441.462> 560 65<72.2344 237.12> 594 38<492.515 554.786>
AnchorPoint: "below_accent" 401 -100 basechar 0
AnchorPoint: "top_accent" 400 700 basechar 0
LayerCount: 2
Fore
SplineSet
621 624 m 0xf8
 627 582 632 538 632 512 c 0
 632 502 625 492 617 492 c 0
 603 492 598 507 594 519 c 0xf4
 586 540 579 553 563 572 c 0
 550 588 499 625 404 625 c 0
 255 625 144 504 144 346 c 0
 144 186 239 23 398 23 c 0
 475 23 520 51 534 60 c 0
 552 72 558 102 558 137 c 0
 558 154 560 177 560 195 c 0
 560 209 559 220 555 225 c 0
 538 247 477 256 457 256 c 0
 452 256 437 263 437 273 c 0
 437 283 452 290 457 290 c 0
 506 290 528 286 583 286 c 0
 618 286 636 290 672 290 c 0
 677 290 693 287 693 274 c 0
 693 265 677 257 672 256 c 0
 643 248 634 234 630 207 c 0
 626 178 625 157 625 132 c 2
 625 105 l 2
 625 98 628 95 631 89 c 0
 635 82 644 77 644 72 c 0
 644 67 638 58 630 54 c 0
 570 23 478 -14 399 -14 c 0
 207 -14 45 137 45 329 c 0
 45 522 219 663 413 663 c 0
 463 663 619 639 621 624 c 0xf8
EndSplineSet
Validated: 1
EndChar
StartChar: J
Encoding: 74 74 42
Width: 300
Flags: W
HStem: -200 42<24.1861 102.338> 622 31<32.0745 108.382 226.223 298.926>
VStem: 130 80<-76.2179 606.878>
AnchorPoint: "top_accent" 173 700 basechar 0
LayerCount: 2
Fore
SplineSet
64 -158 m 0
 111 -158 130 -97 130 0 c 2
 130 551 l 1
 131 597 114 613 64 622 c 0
 41 626 31 633 31 642 c 0
 31 650 43 653 60 653 c 0
 114 653 131 650 177 650 c 0
 214 650 217 653 271 653 c 0
 288 653 300 650 300 642 c 0
 300 633 290 626 267 622 c 0
 217 613 211 597 210 551 c 1
 210 142 l 2
 210 -68 185 -94 157 -134 c 0
 130 -173 93 -200 34 -200 c 0
 -31 -200 -69 -179 -69 -158 c 0
 -69 -131 -51 -103 -33 -103 c 0
 -7 -103 5 -111 17 -129 c 0
 32 -152 47 -158 64 -158 c 0
EndSplineSet
Validated: 33
EndChar
StartChar: L
Encoding: 76 76 36
Width: 574
Flags: W
HStem: -5 40<220.001 480.636> -5 29<27.3563 94.228> 622 31<37.0745 116.488 238.822 330.926>
VStem: 130 80<47.25 603.136> 541 34<139.048 159.894>
AnchorPoint: "cedilla" 183 8 basechar 0
AnchorPoint: "below_accent" 314 -100 basechar 0
AnchorPoint: "top_accent" 186 700 basechar 0
LayerCount: 2
Fore
SplineSet
210 567 m 2x78
 210 96 l 2
 210 55 221 35 287 35 c 2
 433 35 l 2xb8
 438 35 471 45 489 61 c 0
 515 84 524 96 541 132 c 0
 544 140 554 162 563 162 c 0
 571 162 575 152 575 144 c 0
 575 142 574 140 574 139 c 0
 560 87 551 54 547 12 c 0
 546 3 543 -5 533 -5 c 0
 399 -5 290 0 190 0 c 0
 140 0 55 -5 55 -5 c 2
 37 -5 27 0 27 7 c 0
 27 19 45 23 49 24 c 0
 101 34 130 52 130 96 c 2
 130 560 l 2
 130 608 119 613 69 622 c 0
 46 626 36 633 36 642 c 0
 36 650 48 653 65 653 c 0
 119 653 133 650 177 650 c 0
 226 650 249 653 303 653 c 0
 320 653 332 650 332 642 c 0
 332 633 322 626 299 622 c 0
 249 613 210 606 210 567 c 2x78
EndSplineSet
Validated: 1
Substitution2: "loclCAT subtable" L.CAT
EndChar
StartChar: N
Encoding: 78 78 28
Width: 770
Flags: W
HStem: -5 29<23.6924 80.8125 197.412 265.308> 620 38<2.28223 77.8053 542 559 674.647 759.991>
VStem: 132 37<306.848 499.991> 621 43<136.004 599.75>
AnchorPoint: "below_accent" 405 -100 basechar 0
AnchorPoint: "top_accent" 411 700 basechar 0
LayerCount: 2
Fore
SplineSet
616 650 m 2
 664 650 670 653 731 653 c 0
 748 653 760 650 760 642 c 0
 760 633 750 626 727 622 c 0
 677 613 665 601 664 568 c 0
 663 544 662 63 662 8 c 0
 662 -13 651 -17 641 -17 c 0
 629 -17 592 2 560 46 c 0
 542 71 227 456 204 484 c 0
 194 496 188 500 183 500 c 0
 176 500 174 487 174 479 c 0
 172 380 169 227 169 104 c 0
 169 68 183 33 233 24 c 0
 256 20 266 15 266 6 c 0
 266 -2 254 -5 237 -5 c 0
 183 -5 180 0 143 0 c 0
 107 0 106 -5 52 -5 c 0
 35 -5 23 -2 23 6 c 0
 23 15 33 20 56 24 c 0
 94 31 112 94 114 107 c 0
 123 182 132 342 132 507 c 0
 132 578 92 601 33 620 c 0
 27 622 2 632 2 644 c 0
 2 656 18 658 25 658 c 0
 103 656 107 653 179 653 c 0
 191 653 196 645 203 636 c 0
 222 609 564 180 584 156 c 0
 589 150 601 136 609 136 c 0
 614 136 618 142 619 157 c 0
 620 189 621 365 621 477 c 2
 621 564 l 1
 620 590 585 615 563 619 c 0
 540 623 530 630 530 639 c 0
 530 647 542 650 559 650 c 2
 616 650 l 2
EndSplineSet
Validated: 1
EndChar
StartChar: O
Encoding: 79 79 46
Width: 763
Flags: W
HStem: -14 39<309.694 487.027> 625 39<289.881 469.419>
VStem: 45 97<219.261 444.186> 621 97<206.698 451.883>
AnchorPoint: "cedilla" 412 8 basechar 0
AnchorPoint: "ogonek" 520 18 basechar 0
AnchorPoint: "below_accent" 370 -100 basechar 0
AnchorPoint: "top_accent" 383 700 basechar 0
LayerCount: 2
Fore
SplineSet
375 625 m 0
 227 625 142 490 142 350 c 0
 142 179 247 25 395 25 c 0
 545 25 621 134 621 305 c 0
 621 495 535 625 375 625 c 0
45 320 m 0
 45 501 166 664 390 664 c 0
 564 664 718 532 718 335 c 0
 718 155 601 -14 382 -14 c 0
 205 -14 45 130 45 320 c 0
EndSplineSet
Validated: 1
EndChar
StartChar: R
Encoding: 82 82 29
Width: 689
Flags: W
HStem: -21 46<603.627 713.254> -5 29<24.6924 100.631 240.775 309.308> 627 30<36.0088 96.507 226.614 346.609>
VStem: 130 80<46.2739 302.04 331.373 603.448> 412 90<411.692 573.392>
AnchorPoint: "below_accent" 374 -100 basechar 0
AnchorPoint: "top_accent" 283 700 basechar 0
LayerCount: 2
Fore
SplineSet
210 364 m 0x38
 210 331 230 329 263 329 c 0
 317 329 343 346 367 368 c 0
 395 395 412 431 412 489 c 0
 412 546 391 627 278 627 c 0
 223 627 215 603 214 573 c 0
 211 500 210 444 210 364 c 0x38
637 -21 m 0xb8
 580 -21 534 -10 499 33 c 0
 450 93 416 129 347 241 c 0
 336 259 324 270 304 280 c 0
 275 294 243 300 225 302 c 0
 214 303 210 294 210 282 c 2
 210 110 l 2
 210 67 227 33 277 24 c 0
 300 20 310 15 310 6 c 0
 310 -2 298 -5 281 -5 c 0
 227 -5 221 2 183 2 c 0
 132 2 107 -5 53 -5 c 0
 36 -5 24 -2 24 6 c 0
 24 15 34 20 57 24 c 0x78
 107 33 130 51 130 100 c 2
 130 522 l 2
 130 582 119 613 69 622 c 0
 46 626 36 633 36 642 c 0
 36 650 48 653 65 653 c 0
 119 653 122 652 163 652 c 0
 201 652 220 657 278 657 c 0
 424 657 502 598 502 489 c 0
 502 444 473 394 458 379 c 0
 437 359 397 327 385 321 c 0
 380 319 381 318 385 312 c 0
 447 218 493 143 588 58 c 0
 624 26 656 25 703 25 c 0
 713 25 718 22 718 14 c 0
 718 -15 662 -21 637 -21 c 0xb8
EndSplineSet
Validated: 1
EndChar
StartChar: S
Encoding: 83 83 45
Width: 465
Flags: W
HStem: -16 33<150.471 283.135> 631 33<197.87 319.057>
VStem: 66 77<465.44 571.876> 338 84<86.4289 209.033>
AnchorPoint: "cedilla" 265 8 basechar 0
AnchorPoint: "below_accent" 225 -100 basechar 0
AnchorPoint: "top_accent" 240 700 basechar 0
LayerCount: 2
Fore
SplineSet
223 17 m 0
 298 17 338 75 338 145 c 0
 338 211 275 263 193 318 c 0
 123 365 66 417 66 497 c 0
 66 584 147 664 267 664 c 0
 331 664 376 644 386 644 c 0
 395 644 401 631 403 621 c 0
 404 618 412 568 412 537 c 0
 412 522 410 512 405 512 c 0
 386 512 373 525 370 540 c 0
 360 598 314 631 258 631 c 0
 196 631 143 590 143 523 c 0
 143 459 225 404 276 371 c 0
 333 334 422 275 422 173 c 0
 422 93 364 -16 214 -16 c 0
 141 -16 97 0 80 8 c 0
 67 14 61 20 59 25 c 0
 48 48 41 104 41 140 c 0
 41 149 51 169 62 169 c 0
 71 169 82 135 92 103 c 0
 111 42 165 17 223 17 c 0
EndSplineSet
Validated: 1
EndChar
StartChar: T
Encoding: 84 84 34
Width: 670
Flags: W
HStem: -5 29<185.692 261.52 411.207 487.308> 604 38<106.512 292.507 378.966 603.53>
VStem: 296 80<48.375 600.468> 619 35<517.175 586.637>
AnchorPoint: "cedilla" 356 18 basechar 0
AnchorPoint: "below_accent" 334 -100 basechar 0
AnchorPoint: "top_accent" 341 700 basechar 0
LayerCount: 2
Fore
SplineSet
376 102 m 2
 376 54 405 33 455 24 c 0
 478 20 488 15 488 6 c 0
 488 -2 476 -5 459 -5 c 0
 405 -5 388 0 342 0 c 0
 292 0 268 -5 214 -5 c 0
 197 -5 185 -2 185 6 c 0
 185 15 195 20 218 24 c 0
 268 33 296 54 296 102 c 2
 296 557 l 2
 296 575 294 597 278 600 c 0
 259 604 238 604 204 604 c 2
 157 604 l 2
 125 604 89 591 75 565 c 0
 69 554 49 527 34 527 c 0
 29 527 27 533 27 540 c 0
 27 546 29 554 32 560 c 0
 50 598 57 629 63 671 c 0
 66 693 75 694 80 694 c 0
 85 694 99 673 105 662 c 0
 113 648 147 642 175 642 c 2
 556 642 l 2
 585 642 604 649 614 656 c 0
 634 670 649 692 664 692 c 0
 668 692 671 679 671 669 c 0
 671 666 670 662 670 660 c 0
 661 623 654 587 654 561 c 2
 654 549 l 2
 654 537 648 517 638 517 c 0
 628 517 624 532 619 558 c 0
 614 586 591 604 527 604 c 0
 475 604 410 602 392 600 c 0
 378 598 376 575 376 557 c 2
 376 102 l 2
EndSplineSet
Validated: 1
EndChar

StartChar: U
Encoding: 85 85 48
Width: 738
Flags: W
HStem: -14 50<312.955 480.757> 620 33<25.4669 83.9594 202.114 256.781 515.06 566.939 662.499 726.313>
VStem: 103 80<187.656 606.064> 588 57<326.698 604.72> 592 43<165.341 460.842>
AnchorPoint: "cedilla" 412 8 basechar 0
AnchorPoint: "ogonek" 490 18 basechar 0
AnchorPoint: "below_accent" 370 -100 basechar 0
AnchorPoint: "top_accent" 390 700 basechar 0
LayerCount: 2
Fore
SplineSet
645 547 m 0xf0
 638 432 638 346 635 254 c 0
 630 99 524 -14 380 -14 c 0
 188 -14 103 128 103 322 c 2
 103 547 l 2
 103 595 79 614 57 620 c 0
 34 626 24 633 24 642 c 0
 24 650 36 653 53 653 c 0
 83 653 112 650 149 650 c 0
 180 650 208 652 229 652 c 0
 246 652 258 649 258 641 c 0
 258 632 247 628 225 621 c 0
 209 616 183 589 183 549 c 2
 183 294 l 2
 183 162 271 36 403 36 c 0
 530 36 592 144 592 300 c 0xe8
 592 344 590 434 588 511 c 0
 587 562 575 612 547 620 c 0
 533 624 514 631 514 640 c 0
 514 648 526 651 543 651 c 0
 573 651 589 650 618 650 c 0
 650 650 676 653 699 653 c 0
 716 653 728 650 728 642 c 0
 728 633 718 627 695 622 c 0
 660 615 647 587 645 547 c 0xf0
EndSplineSet
Validated: 1
Substitution2: "loclLAT subtable" U.LAT
EndChar
StartChar: Y
Encoding: 89 89 49
Width: 578
Flags: W
HStem: -5 29<153.692 226.247 382.521 455.308> 620 33<1.64938 59.1406 191.55 253.781 385.06 452.318 547.1 611.313>
VStem: 264 80<52.5 323.576> 458 155<579 646>
AnchorPoint: "below_accent" 302 -100 basechar 0
AnchorPoint: "top_accent" 320 700 basechar 0
LayerCount: 2
Fore
SplineSet
264 108 m 2
 264 256 l 2
 264 283 244 321 239 330 c 2
 122 522 l 2
 107 546 67 610 33 620 c 0
 11 627 0 633 0 642 c 0
 0 650 12 653 29 653 c 0
 59 653 100 650 146 650 c 0
 177 650 205 652 226 652 c 0
 243 652 255 649 255 641 c 0
 255 632 244 626 222 621 c 0
 203 616 190 611 190 596 c 0
 190 588 194 576 203 560 c 2
 295 395 l 2
 310 369 317 357 323 357 c 0
 331 357 338 367 356 395 c 0
 387 442 406 474 440 534 c 0
 453 556 458 573 458 585 c 0
 458 610 436 617 417 620 c 0
 403 622 384 631 384 640 c 0
 384 648 396 651 413 651 c 0
 443 651 459 650 488 650 c 0
 525 650 561 653 584 653 c 0
 601 653 613 650 613 642 c 0
 613 633 603 627 580 622 c 0
 545 615 500 557 480 526 c 0
 426 443 415 425 369 346 c 0
 344 303 344 295 344 256 c 2
 344 108 l 2
 344 63 373 33 423 24 c 0
 446 20 456 15 456 6 c 0
 456 -2 444 -5 427 -5 c 0
 373 -5 356 0 310 0 c 0
 260 0 236 -5 182 -5 c 0
 165 -5 153 -2 153 6 c 0
 153 15 163 20 186 24 c 0
 236 33 264 60 264 108 c 2
EndSplineSet
Validated: 1
EndChar
StartChar: b
Encoding: 98 98 9
Width: 509
Flags: W
HStem: -3 30<30.4459 101.285 218.195 315.045> 226 30<199.204 309.16> 421 32<38.7184 101.028 200.28 317.022>
VStem: 120 75<43.5079 223.627 256.822 407.586> 347 80<282.598 399.999> 369 90<67.6714 194.979>
LayerCount: 2
Fore
SplineSet
151 448 m 0xf4
 179 448 215 453 256 453 c 0
 356 453 427 424 427 349 c 0xf8
 427 290.892 401.918 265.837 364 251 c 0
 361 250 360 245 364 244 c 0
 406 231 459 212 459 132 c 0
 459 37 366 -3 255 -3 c 0
 241 -3 178 3 148 3 c 0
 112 2 89 -3 50 -3 c 0
 43 -3 30 1 30 9 c 0
 30 19 42.9678 22.7998 54 25 c 0
 89.0996 32 120 43 120 79 c 2
 120 352 l 2
 120 393 104.1 415 62 422 c 0
 50.2227 423.958 38 431 38 441 c 0
 38 449 51 453 58 453 c 0
 97 453 116 448 151 448 c 0xf4
195 281 m 2
 195 261 209 256 228 256 c 0
 280 256 347 263 347 340 c 0
 347 379 334 421 256 421 c 0
 218 421 195 412 195 390 c 2
 195 281 l 2
233 226 m 0
 212 226 195 216 195 196 c 2
 195 86 l 2
 195 52 227 27 265 27 c 0
 318 27 369 72 369 129 c 0xf4
 369 209 315 226 233 226 c 0
EndSplineSet
Validated: 1
EndChar
StartChar: d
Encoding: 100 100 11
Width: 603
Flags: W
HStem: -3 31<30.7279 102.381 224.602 339.756> 422 31<38.5723 99.9563 205.107 341.011>
VStem: 120 75<49.8843 407.586> 453 90<142.042 324.619>
AnchorPoint: "top_accent" 299 615 basechar 0
LayerCount: 2
Fore
SplineSet
151 448 m 1
 177 447 231 453 249 453 c 0
 432.7 453 543.7 405 543 236 c 0
 542.385 87.628 405 -3 247 -3 c 0
 233.21 -3 182.383 3 148 3 c 0
 112 2 89 -3 50 -3 c 0
 43 -3 30 1 30 9 c 0
 30 19 42.9678 22.7998 54 25 c 0
 89.0996 32 120 43 120 79 c 2
 120 352 l 2
 120 393 104.1 415 62 422 c 0
 50.2227 423.958 38 431 38 441 c 0
 38 449 51 453 58 453 c 0
 97 453 116 448 151 448 c 1
271 28 m 0
 384 28 453 121.82 453 225 c 0
 453 356.012 377.65 422 252 422 c 0
 225.06 422 195 411 195 383 c 2
 195 91 l 2
 195 59 233.71 28 271 28 c 0
EndSplineSet
Validated: 33
EndChar

StartChar: e
Encoding: 101 101 13
Width: 480
Flags: W
HStem: -3 28<30.2309 96.6023> 3 36<196.246 378.677> 211 33<196.154 313.133> 410 41<195 360.271> 422 31<38.5723 99.9129>
VStem: 120 75<40.3738 209.529 244 407.586> 322 28<156.894 200.255 253.5 297.882> 411 24<77.1074 111.748>
AnchorPoint: "top_accent" 247 615 basechar 0
LayerCount: 2
Fore
SplineSet
151 448 m 0xaf
 238.909 448 336.297 451 382 451 c 0
 386 451 393.82 450.096 394 445 c 0
 395.8 394 403.8 366 404 353 c 0
 404.062 349 400 340 396 340 c 0
 391 340 382.353 345.559 377 358 c 0
 362.8 391 352 410 317 410 c 2
 220 410 l 2
 212 410 195 405 195 392 c 2
 195 268 l 2
 195 261 200 244 206 244 c 2
 285 244 l 2
 306 244 313.8 257 322 281 c 0
 324.263 287.624 330 298 337 298 c 0
 345 298 350 289 349 283 c 0
 348 267 346 243 346 228 c 0
 346 210 349 192 350 173 c 0
 351 167 346 156 340 156 c 0
 328.3 156 324 176 322 180 c 0
 316 201 301 205 290 207 c 0
 270.435 209.445 260.756 211 240 211 c 0
 221 211 195 210 195 191 c 2
 195 80 l 2
 195 44 198 39 228 39 c 2
 328 39 l 2
 369 39 398 68 411 97 c 0
 413 101 416 112 425 112 c 0
 434 112 435 102 435 96 c 0
 432 69 424 32 418 10 c 0
 417 4 408 -2 401 -2 c 0
 302.31 -2 217 3 148 3 c 1x77
 112 2 89 -3 50 -3 c 0
 43 -3 30 1 30 9 c 0
 30 19 43 23 54 25 c 0
 89 32 120 43 120 79 c 2
 120 352 l 2
 120 393 104 415 62 422 c 0
 50 424 38 431 38 441 c 0
 38 449 51 453 58 453 c 0
 97 453 116 448 151 448 c 0xaf
EndSplineSet
Validated: 1
EndChar
StartChar: g
Encoding: 103 103 25
Width: 594
Flags: W
HStem: -13 30<275.332 395.904> 165 32<334.476 408.237> 427 31<248.784 396.777>
VStem: 60 90<137.418 318.809> 420 75<34.3725 155.771> 460 30<320.351 371.097>
AnchorPoint: "below_accent" 308 -99 basechar 0
AnchorPoint: "top_accent" 324 615 basechar 0
LayerCount: 2
Fore
SplineSet
420 80 m 2xf8
 420 124 l 2
 420 148.5 396 162.5 362 165 c 0
 347.608 166.058 334 173.8 334 184 c 0
 334 194 348 197 356 197 c 0
 389 197 412 194 450 194 c 0
 476.955 194 494 198 519 198 c 0
 530 198 544 193 544 184 c 0
 544 172.663 530.356 168.343 522 165 c 0
 507.145 159.059 495 149.5 495 130 c 2
 495 72 l 2xf8
 495 46.5 516 42 516 34 c 0
 516 29 506.037 20.2812 497 16 c 0
 478 7 425.3 -13 327 -13 c 0
 187 -14 60 83 60 222 c 0
 60 364 186 458 328 458 c 0
 385 458 425.993 450.974 468 437 c 0
 473.693 435.106 488 370 490 340 c 0
 490.399 334.014 485 320 477 320 c 0
 468.94 320 466.892 331.388 460 346 c 0xf4
 435 399 394 427 315 427 c 0
 215 427 150 339 150 239 c 0
 150 126 227 17 340 17 c 0
 389 17 420 38 420 80 c 2xf8
EndSplineSet
Validated: 33
EndChar

StartChar: j
Encoding: 106 106 16
Width: 315
Flags: W
HStem: -175 43<9.5 99.9576> 422 31<38.5723 99.9129 215.087 276.428>
VStem: 120 75<-72.5025 407.639>
AnchorPoint: "top_accent" 158 615 basechar 0
LayerCount: 2
Fore
SplineSet
120 353 m 2
 120 393 104 415 62 422 c 0
 50 424 38 431 38 441 c 0
 38 449 51 453 58 453 c 0
 97 453 122 448 158 448 c 0
 193 448 218 453 257 453 c 0
 264 453 277 449 277 441 c 0
 277 431 265 424 253 422 c 0
 211 415 195 393 195 353 c 2
 195 136 l 2
 195 36 192 8 190 -9 c 0
 184 -53 171.482 -91.4158 136 -128 c 0
 104.268 -160.718 58 -175 29 -175 c 0
 -10 -175 -54 -154 -54 -134 c 0
 -54 -110 -27 -83 -12 -83 c 0
 23 -83 37 -132 65 -132 c 0
 92 -132 115 -104 118 -52 c 0
 120 -17 120 18 120 45 c 2
 120 353 l 2
EndSplineSet
Validated: 1
EndChar
StartChar: k
Encoding: 107 107 62
Width: 568
Flags: W
HStem: -3 28<30.2313 96.6027 206.569 262.77 334.103 364.634 499.011 562.77> 225 22<195.633 220.309> 422 31<38.5727 98.809 215.113 266.673 461.953 538.102>
VStem: 120 75<40.4875 224.99 247.004 407.157>
AnchorPoint: "below_accent" 233 -100 basechar 0
AnchorPoint: "top_accent" 279 615 basechar 0
LayerCount: 2
Fore
SplineSet
539 25 m 0
 550.051 23.305 563 19 563 9 c 0
 563 1 550 -3 543 -3 c 0
 504 -3 458.238 1.13907 404 2 c 0
 384.487 2.30957 393 0 354 0 c 0
 347 0 334 4 334 12 c 0
 334 22 342.886 23.8633 355.1 29.5 c 0
 368.1 35.5 367.951 48.0265 360 57 c 2
 223.1 211.5 l 2
 217.614 217.322 207 225 202 225 c 0
 196 225 195 211 195 206 c 2
 195 80 l 2
 195 43 204 32 239 25 c 0
 250 23 263 19 263 9 c 0
 263 1 250 -3 243 -3 c 0
 204 -3 191.233 3 158 3 c 0
 115.816 3 89.0004 -3 50.0004 -3 c 0
 43.0004 -3 30.0004 1 30.0004 9 c 0
 30.0004 19 43.0004 23 54.0004 25 c 0
 89.0004 32 120 43 120 79 c 2
 120 352 l 2
 120 392 104 415 62.0004 422 c 0
 50.0004 424 38.0004 431 38.0004 441 c 0
 38.0004 449 51.0004 453 58.0004 453 c 0
 97.0004 453 122 448 158 448 c 0
 193 448 208 452 247 452 c 0
 254 452 267 448 267 440 c 0
 267 430 255.021 422.872 243 421 c 0
 214.1 416.5 195 390 195 351 c 2
 195 261 l 2
 195 252 197 247 202 247 c 0
 211 247 235.358 267.073 258 285 c 0
 304.1 321.5 336.1 349.5 372 390 c 0
 383.277 402.722 368.463 411.318 352.1 419.5 c 0
 340.101 425.5 332 427 332 437 c 0
 332 445 345 449 352 449 c 0
 391 449 408 448 444 448 c 0
 479 448 509.1 455.5 520 455 c 0
 526.993 454.68 540 452 540 444 c 0
 540 434 528 426 516 424 c 0
 474 417 459.991 406.927 426 384 c 0
 390.352 359.955 319.1 306.5 281 269 c 0
 276.012 264.09 278.602 256.905 284 251 c 2
 416.1 106.5 l 2
 445.539 73.8887 490.101 32.5 539 25 c 0
EndSplineSet
Validated: 33
EndChar
StartChar: p
Encoding: 112 112 8
Width: 470
Flags: W
HStem: -3 28<30.2309 96.6023 218.398 284.769> 185 30<240.784 309.199> 424 29<38.3271 95.2991 199.049 288.24>
VStem: 120 75<40.3738 407.586> 343 82<248.03 380.803>
AnchorPoint: "top_accent" 263 615 basechar 0
LayerCount: 2
Fore
SplineSet
195 79 m 2
 195 43 226 32 261 25 c 0
 272 23 285 19 285 9 c 0
 285 1 272 -3 265 -3 c 0
 226 -3 199.796 3 158 3 c 0
 115.815 3 89 -3 50 -3 c 0
 43 -3 30 1 30 9 c 0
 30 19 43 23 54 25 c 0
 89 32 120 43 120 79 c 2
 120 352 l 2
 120 393 104 415 62 422 c 0
 50 424 38 431 38 441 c 0
 38 449 51 453 58 453 c 0
 97 453 116 448 151 448 c 0
 179 448 215 453 256 453 c 0
 343 453 425 419 425 331 c 0
 425 241 367 185 277 185 c 0
 263 185 240 193 240 203 c 0
 240 213 262 215 272 215 c 0
 320 215 343 262 343 310 c 0
 343 373 299.182 424 239 424 c 0
 213 424 195 416 195 395 c 2
 195 79 l 2
EndSplineSet
Validated: 1
EndChar

StartChar: t
Encoding: 116 116 1
Width: 550
Flags: W
HStem: -3 28<142.231 208.602 330.398 396.769> 406 44<77.0384 231.807 307.453 479.632>
VStem: 232 75<40.3738 403.942> 487 28<347.666 391.702>
AnchorPoint: "top_accent" 270 615 basechar 0
LayerCount: 2
Fore
SplineSet
232 79 m 6
 232 374 l 6
 232 406.423 229.021 406 196 406 c 6
 124 406 l 6
 103 406 75.7998 388 65.7998 371 c 4
 61.7998 363 52 350 42 350 c 4
 37 350 35 353 35 358 c 4
 35 369 41.7998 381 49 456 c 4
 50.4463 471.064 59 471 62 471 c 4
 68 471 85 450 147 450 c 6
 390 450 l 6
 479 450 495 470 502 470 c 4
 507 470 511 464 511 459 c 4
 511 408 515 387 515 366 c 4
 515 362 511 346 503 347 c 4
 495 348 489 364 487 370 c 4
 483 387 466 406 422 406 c 4
 387 406 330 405 318 404 c 4
 309 403 307 387 307 374 c 6
 307 79 l 6
 307 43 338 32 373 25 c 4
 384 23 397 19 397 9 c 4
 397 1 384 -3 377 -3 c 4
 338 -3 311.796 3 270 3 c 4
 227.815 3 201 -3 162 -3 c 4
 155 -3 142 1 142 9 c 4
 142 19 155 23 166 25 c 4
 201 32 232 43 232 79 c 6
EndSplineSet
Validated: 33
EndChar
StartChar: v
Encoding: 118 118 22
Width: 550
Flags: W
HStem: 422 31<10.5723 74.0504 184.716 229.413 350.685 394.414 479.583 539.428>
VStem: 397 143<391 445>
AnchorPoint: "top_accent" 291 615 basechar 0
LayerCount: 2
Fore
SplineSet
182 399 m 0
 182 382 187.421 358.34 196 337 c 2
 277 136 l 2
 286.947 111.257 288.135 112.3 298 136 c 2
 385 345 l 2
 389.996 357.002 397 384 397 398 c 0
 397 410 383.135 417.933 374 422 c 0
 362.124 427.288 350 431 350 441 c 0
 350 449 363 453 370 453 c 0
 409 453 406 448 442 448 c 0
 477 448 481 453 520 453 c 0
 527 453 540 449 540 441 c 0
 540 431 527.772 425.071 516 422 c 0
 470 410 441.869 382.614 425 344 c 2
 295 51 l 2
 289.352 38.2686 274 -15 264 -15 c 0
 258 -15 243.997 35.6807 231 68 c 2
 118 349 l 2
 95.7616 403.008 78 408 34 422 c 0
 22.4072 425.689 10 431 10 441 c 0
 10 449 23 453 30 453 c 0
 69 453 83 448 119 448 c 0
 154 448 171 453 210 453 c 0
 217 453 230 449 230 441 c 0
 230 431 216.833 423.91 206 422 c 0
 201.076 421.132 182 410 182 399 c 0
EndSplineSet
Validated: 1
EndChar

StartChar: w
Encoding: 119 119 23
Width: 790
Flags: W
HStem: 422 31<10.5723 69.6006 176.202 214.413 235.572 279.138 374.255 409.37 430.691 468.397 541.906 599.428 615.572 665.695 734.485 789.428>
AnchorPoint: "top_accent" 374 615 basechar 0
LayerCount: 2
Fore
SplineSet
189 370 m 2
 319 100 l 2
 323.321 90.9817 325.416 91.1152 330 100 c 2
 382.067 200.914 l 1
 302 370 l 2
 293.441 388.074 279 415 259 422 c 0
 247.518 426.019 235 431 235 441 c 0
 235 449 248 453 255 453 c 0
 265 453 314 448 328 448 c 0
 344 448 379 453 389 453 c 0
 396 453 410 449 410 441 c 0
 410 431 395.833 423.91 385 422 c 0
 374.167 420.09 367.388 405.284 384 370 c 2
 424.756 283.435 l 1
 468 370 l 2
 477.47 388.956 471 414 454 422 c 0
 442.237 427.535 430 431 430 441 c 0
 430 449 443 453 450 453 c 0
 465 453 488 448 503 448 c 0
 518 448 565 453 580 453 c 0
 587 453 600 449 600 441 c 0
 600 431 587.777 425.067 576 422 c 0
 561.484 418.219 528.215 407.498 509 370 c 2
 443.365 241.914 l 1
 508 100 l 2
 511.73 91.8096 514.081 92.5518 517 100 c 2
 662 370 l 2
 673.625 391.647 675 414 639 422 c 0
 626.31 424.82 615 431 615 441 c 0
 615 449 628 453 635 453 c 0
 650 453 681 448 696 448 c 0
 711 448 760 453 770 453 c 0
 777 453 790 449 790 441 c 0
 790 431 777.777 425.067 766 422 c 0
 751.484 418.219 725.049 408.041 705 370 c 2
 510 0 l 2
 504.352 -12.7314 499 -15 489 -15 c 0
 483 -15 477.544 -7.47559 474 0 c 2
 398.278 159.737 l 1
 315 0 l 2
 308.563 -12.3467 305 -15 295 -15 c 0
 289 -15 277.414 5.5986 270 21 c 2
 102 370 l 2
 91.1585 392.527 78 408 34 422 c 0
 22.4072 425.689 10 431 10 441 c 0
 10 449 23 453 30 453 c 0
 69 453 83 448 119 448 c 0
 144 448 178 453 195 453 c 0
 202 453 215 449 215 441 c 0
 215 431 201.833 423.91 191 422 c 0
 163.267 417.11 179.46 389.824 189 370 c 2
EndSplineSet
Validated: 33
EndChar

StartChar: bar
Encoding: 124 124 106
Width: 260
VWidth: 0
Flags: W
HStem: -289 21G<109 116.5>
VStem: 100 60<-285.158 700.038>
LayerCount: 2
Fore
SplineSet
100 676 m 10
 100 697.634 140 707 146 707 c 0
 153 707 160 701.451 160 694 c 18
 160 -265 l 14
 160 -285.93 121 -289 112 -289 c 4
 106 -289 100 -282.191 100 -275 c 22
 100 676 l 10
EndSplineSet
Validated: 1
EndChar
StartChar: exclamdown
Encoding: 161 161 67
Width: 282
VWidth: 0
Flags: W
HStem: 374 120<105.745 198.255>
VStem: 92 120<387.745 480.255> 101 100<-168.408 156.736> 124 50<0.580078 261.326>
LayerCount: 2
Fore
SplineSet
152 374 m 24xc0
 119 374 92 401 92 434 c 24
 92 467 119 494 152 494 c 24
 185 494 212 467 212 434 c 24
 212 401 185 374 152 374 c 24xc0
152 -180 m 24
 117 -179 101 -145 101 -106 c 0xa0
 101 -43 114 87 124 205 c 0
 126 234 137 263 152 263 c 0
 162 263 172 233 174 211 c 0x90
 186 95 201 -21 201 -108 c 0xa0
 201 -145 186 -181 152 -180 c 24
EndSplineSet
Validated: 33
EndChar
StartChar: copyright
Encoding: 169 169 1029
Width: 665
VWidth: 0
Flags: W
HStem: 24 34<254.755 435.66> 154 30<323.151 438.714> 464 30<316.949 426.916> 590 40<249.31 442.69>
VStem: 43 40<229.687 423.69> 188 70<247.385 404.16> 456 22<398.081 431.632> 609 40<229.48 423.69>
LayerCount: 2
Fore
SplineSet
346 590 m 24
 201 590 83 472 83 327 c 24
 83 181 199 58 345 58 c 24
 492 58 609 180 609 327 c 24
 609 472 491 590 346 590 c 24
346 630 m 24
 513 630 649 494 649 327 c 24
 649 160 512 24 345 24 c 24
 178 24 43 160 43 327 c 24
 43 494 179 630 346 630 c 24
462 225 m 0
 467 235 475 240 479 240 c 0
 483 240 484 236 484 227 c 0
 484 214 471 184 464 176 c 0
 460 172 455 170 443 164 c 0
 426 156 389 154 359 154 c 8
 264 154 188 239 188 328 c 8
 188 427 281 494 380 494 c 16
 396 494 424 490 433 488 c 0
 441 485 462 481 471 478 c 0
 474 477 476 470 477 464 c 0
 479 448 480 431 478 409 c 0
 478 405 473 397 468 398 c 0
 462 398 459 405 456 413 c 0
 446 441 417 464 371 464 c 8
 303 464 258 404 258 331 c 8
 258 258 298 184 376 184 c 8
 413 184 446 193 462 225 c 0
EndSplineSet
Validated: 33
EndChar
StartChar: logicalnot
Encoding: 172 172 1055
Width: 600
VWidth: 0
Flags: W
HStem: 322 60<53.8933 490>
VStem: 490 60<46.8933 322>
LayerCount: 2
Fore
SplineSet
64 322 m 10
 57 322 50 328 50 334 c 0
 50 343 53 382 74 382 c 18
 537 382 l 10
 544 382 550 375 550 368 c 18
 550 67 l 10
 550 46 511 43 502 43 c 0
 496 43 490 50 490 57 c 18
 490 304 l 2
 490 314 486 322 476 322 c 10
 64 322 l 10
EndSplineSet
Validated: 1
EndChar

StartChar: plusminus
Encoding: 177 177 1022
Width: 590
VWidth: 0
Flags: W
HStem: 38 50<53.2358 534.448> 351 50<53.2358 270 320 534.448>
VStem: 270 50<124.236 351 401.011 605.895>
LayerCount: 2
Fore
SplineSet
64 38 m 14
 56.8086 38 50 44 50 50 c 4
 50 59 56.4717 88 74 88 c 18
 527 88 l 10
 534.451 88 542.524 81.0106 540 74 c 24
 533.725 56.5674 527.528 38 509 38 c 22
 64 38 l 14
320 407 m 2
 320 400 321 401 324 401 c 2
 527 401 l 10
 534.451 401 542.524 394.011 540 387 c 24
 533.725 369.567 527.528 351 509 351 c 18
 324 351 l 2
 321 351 320 350 320 347 c 2
 320 145 l 10
 320 127.472 291 121 282 121 c 0
 276 121 270 127.809 270 135 c 18
 270 346 l 2
 270 349 269 351 266 351 c 2
 64 351 l 10
 56.8086 351 50 357 50 363 c 0
 50 372 56.4717 401 74 401 c 18
 263 401 l 2
 269 401 270 403 270 409 c 2
 270 580 l 10
 270 598.528 300 611 306 611 c 0
 313 611 320 605.451 320 598 c 18
 320 407 l 2
EndSplineSet
Validated: 1
EndChar

StartChar: uni00B2
Encoding: 178 178 574
Width: 300
VWidth: 0
Flags: W
HStem: 440 52<100.824 234.985> 716 54<76.9321 164.064>
VStem: 178 56<617.577 702.332>
LayerCount: 2
Fore
SplineSet
42 678 m 0
 40 674 37 670 33 672 c 24
 28 674 26 678 26 683 c 0
 26 703 73 770 143 770 c 0
 194 770 234 728 234 677 c 16
 234 643 217 623 200 598 c 0
 178 565 108 506 101 498 c 0
 97 494 109 492 113 492 c 0
 134 493 142 492 182 492 c 0
 212 492 241 512 256 542 c 0
 258 547 265 551 271 550 c 24
 275 550 275 544 274 541 c 0
 261 505 253 481 247 450 c 0
 245 436 239 436 235 437 c 0
 184 440 184 440 151 440 c 28
 103 440 79 440 28 438 c 0
 23 437 21 447 28 454 c 0
 41 467 58 485 67 494 c 0
 83 510 177 588 178 651 c 0
 179 689 152 716 121 716 c 0
 85 716 70 708 42 678 c 0
EndSplineSet
Validated: 33
EndChar
StartChar: mu
Encoding: 181 181 1061
Width: 510
VWidth: 0
Flags: W
HStem: -285 21G<93.1944 118.5> -15 79<379.982 464.131> -13 63<137.487 238.498>
VStem: 31 106<-249.107 -202.92> 31 91<201.392 405.034> 38 53<82.8764 272.095> 317 88<270.543 402.519> 485 19<89.6584 107.673>
LayerCount: 2
Fore
SplineSet
420 64 m 16xc7
 451 64 472 78 485 104 c 0
 489 113 503.535 107.559 504 100 c 24
 505.505 75.5479 494.028 47.0449 489 39 c 0
 459 -9 438 -15 406 -15 c 0xc7
 373 -15 359 0 339 48 c 0
 336.567 53.8379 328 93 326 114 c 1
 319 98 260 -13 210 -13 c 0
 162 -13 138 6 98 38 c 0
 88.0615 45.9512 77.2109 62 70 62 c 0
 53 62 61 -18 72 -78 c 0
 85 -156 137 -236 137 -254 c 0xb3
 137 -273.646 128 -285 109 -285 c 8
 77.3887 -285 57.7773 -265.405 46 -234 c 0
 37 -210 31 -75 31 0 c 0xab
 31 17 38 60 38 92 c 0xa7
 38 125 31 288 31 332 c 0
 31 374.048 43.8057 418 83 418 c 16
 112 418 122 391 122 343 c 0xab
 122 300.81 91 172 91 132 c 0
 91 106 124.862 50 169 50 c 16xa7
 222.2 50 255.173 76.5996 279 122 c 24
 317.678 195.697 317 255.059 317 332 c 0
 317 371 332 415 366 415 c 0
 400 415 405 374 405 352 c 0
 405 315.326 357 215 357 162 c 0
 357 125.122 374.563 64 420 64 c 16xc7
EndSplineSet
Validated: 33
EndChar
StartChar: onehalf
Encoding: 189 189 1060
Width: 699
VWidth: 0
Flags: W
HStem: -6 52<501.824 635.985> 270 54<477.932 565.064> 283 25<42.7157 94.4421 173.08 226.756> 635 20G<563.5 576>
VStem: 106 60<313.843 539.082> 579 56<171.577 256.332>
LayerCount: 2
Fore
SplineSet
443 232 m 0xdc
 441 228 438 224 434 226 c 24
 429 228 427 232 427 237 c 0
 427 257 474 324 544 324 c 0
 595 324 635 282 635 231 c 16
 635 197 618 177 601 152 c 0
 579 119 509 60 502 52 c 0
 498 48 510 46 514 46 c 0
 535 47 543 46 583 46 c 0
 613 46 642 66 657 96 c 0
 659 101 666 105 672 104 c 24
 676 104 676 98 675 95 c 0
 662 59 654 35 648 4 c 0
 646 -10 640 -10 636 -9 c 0
 585 -6 585 -6 552 -6 c 24
 504 -6 480 -6 429 -8 c 0
 424 -9 422 1 429 8 c 0
 442 21 459 39 468 48 c 0
 484 64 578 142 579 205 c 0
 580 243 553 270 522 270 c 0
 486 270 471 262 443 232 c 0xdc
121 -11 m 26
 533 638 l 26
 542 652 555 655 572 655 c 24
 580 655 589 645 585 638 c 26
 173 -11 l 26
 165 -24 152 -26 137 -26 c 24
 128 -26 116 -18 121 -11 c 26
154 626 m 0
 165 631 171 624 170 614 c 0
 168 600 166 576 166 544 c 0
 165 455 165 401 166 354 c 0
 167 315 172 314 216 308 c 0
 233 306 232 283 216 283 c 0
 159 283 166 288 134 288 c 24
 102 288 106 283 52 283 c 0
 40 283 35 307 52 308 c 0xbc
 79 310 106 313 106 354 c 0
 106 390 106 438 106 507 c 0
 106 534 69 548 52 554 c 0
 34 560 42 580 51 581 c 0
 102 586 142 620 154 626 c 0
EndSplineSet
Validated: 33
EndChar
StartChar: threequarters
Encoding: 190 190 1059
Width: 641
VWidth: 0
Flags: W
HStem: -10 21G<516.5 521> 107 41<410.953 510 562 627.699> 274 34<92.2889 184.221> 450 11<92 97.8789> 457 32<143 193> 585 47<101.89 188.939> 635 20G<563.5 576>
VStem: 196 56<519.602 577.038> 210 52<337.604 435.571> 510 52<-2.11044 104.999 148.046 265.092>
LayerCount: 2
Fore
SplineSet
196 548 m 16xf740
 196 570 165 586 147 585 c 0
 125 584 101 575 77 555 c 0
 74 552 71 548 67 549 c 24
 63 551 59 556 61 560 c 0
 77 591 111 632 164 632 c 0
 215 631 252 612 252 561 c 0xf740
 252 536 229 512 193 494 c 0
 189 492 189 489 193 489 c 8
 237 487 262 445 262 401 c 16
 262 320 174 274 121 274 c 0
 95 274 81 275 64 286 c 0
 55 292 53 302 53 307 c 0
 53 315 62 335 71 335 c 0
 77 335 82 332 84 330 c 0
 96 322 121 308 151 308 c 0
 164 308 210 323 210 381 c 8
 210 420 181 457 143 457 c 0xeec0
 133 457 117 453 106 450 c 0
 100 448 87 456 92 461 c 24
 107 476 128 477 141 486 c 0
 171 506 196 516 196 548 c 16xf740
121 -11 m 26
 533 638 l 26
 542 652 555 655 572 655 c 24
 580 655 589 645 585 638 c 26
 173 -11 l 26
 165 -24 152 -26 137 -26 c 24
 128 -26 116 -18 121 -11 c 26
502 148 m 0
 505 148 510 150 510 153 c 0
 510 194 510 209 510 264 c 0
 510 266 506 267 504 265 c 24
 466 223 440 190 411 153 c 0
 410 151 409 148 411 148 c 0
 454 148 456 148 502 148 c 0
349 109 m 0
 364 128 369 135 377 146 c 0
 416 195 437 219 480 273 c 0
 492 288 515 313 538 338 c 24
 543 343 549 349 553 350 c 0
 557 351 560 345 560 342 c 0
 560 316 560 225 562 151 c 24
 562 149 563 147 565 147 c 24
 588 146 602 147 624 148 c 0
 627 148 632 146 631 142 c 24
 629 128 622 107 618 107 c 0
 602 107 581 109 570 107 c 0
 567 106 562 104 562 103 c 0
 562 68 562 53 562 19 c 0
 562 4 523 -10 519 -10 c 0
 514 -10 510 -8 510 -2 c 0
 510 39 510 81 510 100 c 0
 510 104 502 105 501 105 c 0
 452 105 418 102 355 101 c 0
 351 101 347 107 349 109 c 0
EndSplineSet
Validated: 33
EndChar
StartChar: AE
Encoding: 198 198 994
Width: 866
VWidth: 0
Flags: W
HStem: -5 40<552.959 777.358> -5 33<-3.35062 59.8209 196.751 267.861 349.687 433.906> 285 43<304.125 454 532.028 692.438> 598 50<435.875 454> 618 30<547.469 752.007> 626 25<292.145 341.067>
VStem: 454 78<54.7206 284.859 332.239 597.71> 706 32<224.771 270.782> 789 25<532.08 574.023>
AnchorPoint: "top_accent" 540 700 basechar 0
LayerCount: 2
Fore
SplineSet
454 267 m 4x6380
 454 277 452 285 432 285 c 6
 291 285 l 14
 276 285 268 275 261 262 c 4
 235 218 211 174 179 112 c 4
 151 58 198 39 235 30 c 4
 258 24 268 19 268 10 c 4
 268 2 256 -1 239 -1 c 4
 218 -1 174 2 132 1 c 28
 90 0 54 -5 24 -5 c 4
 7 -5 -5 -2 -5 6 c 4
 -5 15 6 21 28 28 c 4
 62 38 104 78 132 126 c 4
 238 308 330 464 405 594 c 4
 410 602 401 610 388 611 c 5
 300 626 l 5
 283 632 290 651 300 651 c 20x6780
 342 651 407 648 475 648 c 28
 596 648 758 654 784 653 c 4
 791 653 801 651 802 644 c 4
 809 606 813 576 814 541 c 4
 814 535 806 532 800 532 c 4
 793 532 791 535 789 542 c 4
 782 564 775 581 766 591 c 4
 747 612 724 618 699 618 c 4
 652 618 596 618 568 618 c 4
 557 618 545 604 543 592 c 4
 541 583 536 548 535 520 c 4
 533 472 532 403 532 354 c 4
 532 343 532 332 542 332 c 4
 584 332 622 333 646 334 c 4
 665 335 678 336 690 347 c 4
 699 355 702 359 707 371 c 4
 709 376 720 388 725 388 c 4
 730 388 739 381 738 372 c 4
 733 320 735 291 738 240 c 4
 738 231 737 223 729 223 c 12
 716 223 708 239 706 246 c 4
 696 277 675 284 659 285 c 4
 617 287 593 287 556 287 c 4
 542 287 531 279 532 262 c 4
 532 201 533 170 535 113 c 4
 536 72 553 35 598 35 c 4
 602 35 688 35 702 35 c 4xab80
 707 35 765 43 778 53 c 4
 796 67 812 99 820 116 c 4
 824 124 827 126 834 126 c 28
 841 125 848 121 847 114 c 4
 843 75 838 44 830 12 c 4
 828 4 826 -5 816 -5 c 12
 690 -5 593 2 492 1 c 12
 447 1 431 -5 377 -5 c 4
 360 -5 348 -2 348 6 c 4
 348 15 358 20 381 24 c 4
 431 33 457 51 456 99 c 4
 455 154 454 224 454 267 c 4x6380
438 581 m 4
 403 520 343 415 302 343 c 4
 294 330 297 328 314 328 c 6
 438 328 l 6
 453 328 454 328 454 343 c 4
 454 393 454 523 454 580 c 4
 454 592 454 598 451 598 c 4x3380
 448 598 444 592 438 581 c 4
EndSplineSet
Validated: 33
EndChar
StartChar: multiply
Encoding: 215 215 1021
Width: 600
VWidth: 0
Flags: W
LayerCount: 2
Fore
SplineSet
290 299 m 2
 295 294 295 296 297 298 c 2
 441 441 l 10
 446 447 456 447 460 441 c 24
 470 422 486 401 470 386 c 18
 339 255 l 2
 337 253 337 252 339 250 c 2
 482 107 l 10
 497 92 472 62 465 56 c 0
 461 52 452 52 447 57 c 18
 298 207 l 2
 296 209 293 209 291 207 c 2
 148 64 l 10
 143 59 134 59 130 63 c 0
 124 69 98 99 113 114 c 18
 247 248 l 2
 251 252 250 254 246 258 c 2
 125 379 l 10
 110 394 132 429 136 434 c 0
 141 439 150 439 155 434 c 18
 290 299 l 2
EndSplineSet
Validated: 33
EndChar
StartChar: germandbls
Encoding: 223 223 21
Width: 514
VWidth: 0
Flags: W
HStem: -13 30<264.371 346.61> -1 20<9.80891 38.6136 154.14 181.824> 424 30<227.232 341.938>
VStem: 63 75<30.3555 333.436> 380 84<53.1929 183.848>
LayerCount: 2
Fore
SplineSet
286 -13 m 0xb8
 272 -13 251 -9 228 -4 c 0
 218 -2 220 1 218 4 c 0
 211 20 198 73 197 98 c 0
 197 103 203 109 211 109 c 0
 218 109 242 17 305 17 c 0xb8
 360 17 380 73.04 380 124 c 16
 380 164 362.354 187.127 330 206 c 16
 318 213 287 225 232 225 c 0
 229 225 215 225 220 232 c 0
 312 358 298.652 337.955 344 409 c 28
 346.456 412.848 350 417 340 420 c 4
 331 422 312 424 294 424 c 12
 246.005 424 213.235 409.441 182 373 c 28
 146.926 332.08 141.165 295.802 138 242 c 16
 136 208 136 140 138 81 c 0
 139 43 149 23 177 19 c 0
 185 18 184 -1 177 -1 c 0
 139 -1 128.21 1 97 1 c 24
 64.2305 1 45 -1 13 -1 c 8x78
 4.34082 -1 8 18 16 21 c 0
 38 27 63 33 63 75 c 0
 63 103 63 184 63 223 c 8
 63 298.637 92 367 130 405 c 4
 154 429 212.784 454 271 454 c 20
 331 454 406 437 431 428 c 4
 435 427 441 420 438 416 c 4
 432 408 414 385 404 371 c 4
 375 333 351.598 302.457 322 256 c 24
 320.012 252.88 321 247 325 247 c 8
 345.802 247 374 242 378 241 c 8
 431.728 227.568 464 185 464 128 c 8
 464 39.4395 393 -13 286 -13 c 0xb8
EndSplineSet
Validated: 33
EndChar
StartChar: eth
Encoding: 240 240 1025
Width: 519
VWidth: 0
Flags: W
HStem: -3 36<172.032 337.854> 0 24<18.1875 49.579> 422 31<142.997 312.128>
VStem: 83 75<45.4952 399.614> 421 85<131.07 322.825>
LayerCount: 2
Fore
SplineSet
181 43 m 0xb8
 195 32 224 33 267 33 c 0
 329 33 357 61 376 81 c 0
 399 106 421 155 421 242 c 4
 421 319 357 421 246 422 c 4
 189 422 158 411 158 383 c 4
 158 281 158 193 158 91 c 0
 158 63 167 54 181 43 c 0xb8
263 -3 m 0
 250 -3 178.867 2.33203 125 3 c 24
 84.4258 3.50293 39 0 21 0 c 0
 16 0 16 23 21 24 c 0x78
 40 29 50.7441 34.1025 64 48 c 24
 76.1641 60.7529 82 71 83 89 c 1
 83 350 l 5
 83 369 81 392 74 400 c 4
 61 415 59 416 34 423 c 4
 28 425 23.2422 448 33 448 c 20
 61 448 83.0107 446 115 446 c 20
 140 446 225 453 243 453 c 4
 420 453 507 351 506 235 c 4
 505 153 475 108 452 79 c 0
 419 37 348 -3 263 -3 c 0
EndSplineSet
Validated: 33
EndChar
StartChar: divide
Encoding: 247 247 1020
Width: 590
VWidth: 0
Flags: W
HStem: 69 92<256.255 333.745> 232 50<53.2358 534.448> 353 92<255.604 332.623>
VStem: 249 92<76.2553 153.745 360.866 437.676>
CounterMasks: 1 e0
LayerCount: 2
Fore
SplineSet
295 161 m 0
 320.371 161 341 140.371 341 115 c 0
 341 89.6289 320.371 69 295 69 c 0
 269.629 69 249 89.6289 249 115 c 0
 249 140.371 269.629 161 295 161 c 0
295 445 m 0
 320.097 445 340.272 424.096 340 399 c 0
 339.725 373.631 319.371 353 294 353 c 0
 268.629 353 247.725 373.631 248 399 c 0
 248.278 424.646 269.352 445 295 445 c 0
64 232 m 2
 56.8086 232 50 238 50 244 c 0
 50 253 56.4717 282 74 282 c 2
 527 282 l 2
 534.451 282 542.523 275.011 540 268 c 0
 533.725 250.567 527.528 232 509 232 c 2
 64 232 l 2
EndSplineSet
Validated: 33
EndChar
StartChar: oslash
Encoding: 248 248 1002
Width: 605
VWidth: 0
Flags: W
HStem: -15 37<242.335 386.997> 424 32<229.322 364.877>
VStem: 66 85<119.755 310.96> 468 84<121.475 314.94>
LayerCount: 2
Fore
SplineSet
297 424 m 0
 185 424 151 327 151 232 c 0
 151 115 207 22 319 22 c 0
 434 22 468 133 468 212 c 0
 468 313 417 424 297 424 c 0
66 217 m 0
 66 340 175 456 303 456 c 0
 436 456 552 357 552 221 c 0
 552 98 467 -15 303 -15 c 0
 170 -15 66 88 66 217 c 0
EndSplineSet
Validated: 1
EndChar
StartChar: Dcroat
Encoding: 272 272 988
Width: 754
VWidth: 0
Flags: W
HStem: -7 35<30.0745 112.208 251.726 448.386> 317 36<46.0087 387.504> 628 31<29.2164 94.5968 230.74 433.726>
VStem: 129 81<62.1482 605.889> 609 95<215.09 461.507>
LayerCount: 2
Fore
SplineSet
70 353 m 26
 377 353 l 26
 384 353 393 346 390 339 c 24
 383 326 374 317 359 317 c 26
 60 317 l 26
 51 317 46 329 46 335 c 0
 46 344 58 353 70 353 c 26
EndSplineSet
Refer: 43 68 N 1 0 0 1 0 0 2
Validated: 5
EndChar
StartChar: dcroat
Encoding: 273 273 990
Width: 603
VWidth: 0
Flags: W
HStem: -3 31<30.7279 102.381 224.602 339.756> 422 31<38.5723 99.9563 205.107 341.011> 535 36<200.009 513.504>
VStem: 120 75<49.8843 407.586> 453 90<142.042 324.619>
LayerCount: 2
Fore
SplineSet
224 571 m 26
 503 571 l 26
 510 571 519 564 516 557 c 24
 509 544 500 535 485 535 c 26
 214 535 l 26
 205 535 200 547 200 553 c 0
 200 562 212 571 224 571 c 26
EndSplineSet
Refer: 11 100 N 1 0 0 1 0 0 2
Validated: 1
EndChar

StartChar: lcommaaccent
Encoding: 316 316 230
Width: 470
Flags: W
HStem: -279 21<187.576 215.712> -150 88<181.482 249.02> -1 22<19.3836 56.1625> 2 30<175.271 350.335> 428 24<31.3807 69.0295 192.197 246.501>
VStem: 89 75<40.2419 405.613> 251.5 53.5<-226.477 -153.127>
LayerCount: 2
Fore
SplineSet
220.5 -150 m 0xce
 198 -145 171 -127.5 171 -105.5 c 0
 171 -81.5 188 -62 217 -62 c 0
 265 -62 305 -103 305 -159 c 0
 305 -223 254 -268.5 204 -279 c 0
 180.492 -283.937 177.88 -265.223 198 -258 c 0
 237 -244 251.5 -206.5 251.5 -178.5 c 0
 251.5 -161.5 239.207 -154.157 220.5 -150 c 0xce
242 429 m 0
 214 421 190 421 177 406 c 0
 169 398 164 373 164 353 c 2
 164 86 l 2
 164 58 172 32 218 32 c 2
 314 32 l 2
 318 32 342 38 354 50 c 0
 375 71 383 89 395 114 c 0
 398 119 412 122 423 121 c 0
 428 121 433 117 432 112 c 0
 422 76 413 39 410 10 c 0
 410 4 402 -2 395 -2 c 0
 291 -2 199 2 129 2 c 0xde
 94 2 23 -1 23 -1 c 2
 18 -1 17 20 23 21 c 0xee
 46 27 55 28 69 42 c 0
 82 55 89 66 89 84 c 2
 89 354 l 2
 89 374 87 398 80 406 c 0
 66 421 63 420 36 428 c 0
 30 429 27 452 36 452 c 0
 65 452 82 450 112 450 c 0
 163 450 224 454 242 453 c 0
 252 453 248 430 242 429 c 0
EndSplineSet
Validated: 33
EndChar
StartChar: Lcaron
Encoding: 317 317 231
Width: 574
VWidth: 0
Flags: W
HStem: -5 29<27.3563 94.228> -5 40<220.001 480.636> 622 31<37.0745 116.488 238.822 330.926>
VStem: 130 80<47.25 603.136> 423 72<532.326 651.686> 541 34<139.048 159.894>
LayerCount: 2
Fore
SplineSet
425 495.033 m 4x3c
 429 536 430 550 423 614.033 c 4
 421.475 627.985 433 643.033 442 650.033 c 4
 458 662.033 464 665.033 480 665.033 c 4
 495 665.033 498 642.033 495 621.033 c 4
 485 552.033 472.5 527.5 457 497.033 c 4
 451.105 485.446 436 472.033 431 472.033 c 4
 426 472.033 424.125 486.076 425 495.033 c 4x3c
EndSplineSet
Refer: 36 76 N 1 0 0 1 0 0 2
Validated: 33
EndChar

StartChar: lcaron
Encoding: 318 318 232
Width: 444
Flags: W
HStem: -1 22<19.3836 56.1625> 2 30<175.271 350.335> 272.033 21G<328.5 333.5> 428 24<31.3807 69.0295 192.197 246.501>
VStem: 89 75<40.2419 405.613> 323 68<332.326 451.685>
LayerCount: 2
Fore
SplineSet
325 295.033 m 0x3c
 329 336 330 350 323 414.033 c 0
 321.475 427.985 333 443.033 342 450.033 c 0
 358 462.033 360 465.033 376 465.033 c 0
 391 465.033 394 442.033 391 421.033 c 0
 381 352.033 368.5 327.5 353 297.033 c 0
 347.105 285.446 336 272.033 331 272.033 c 0
 326 272.033 324.125 286.076 325 295.033 c 0x3c
242 429 m 0
 214 421 190 421 177 406 c 0
 169 398 164 373 164 353 c 2
 164 86 l 2
 164 58 172 32 218 32 c 2
 314 32 l 2
 318 32 342 38 354 50 c 0
 375 71 383 89 395 114 c 0
 398 119 412 122 423 121 c 0
 428 121 433 117 432 112 c 0
 422 76 413 39 410 10 c 0
 410 4 402 -2 395 -2 c 0
 291 -2 199 2 129 2 c 0x7c
 94 2 23 -1 23 -1 c 2
 18 -1 17 20 23 21 c 0xbc
 46 27 55 28 69 42 c 0
 82 55 89 66 89 84 c 2
 89 354 l 2
 89 374 87 398 80 406 c 0
 66 421 63 420 36 428 c 0
 30 429 27 452 36 452 c 0
 65 452 82 450 112 450 c 0
 163 450 224 454 242 453 c 0
 252 453 248 430 242 429 c 0
EndSplineSet
Validated: 33
EndChar

StartChar: Eng
Encoding: 330 330 1027
Width: 795
VWidth: 0
Flags: W
HStem: -228 42<486.734 581.156> -3 21G<243 276> 630 28<26.6211 75.3257 522.641 568.61 720.644 762.938>
VStem: 132 52<298.889 495.355> 610 64<-115.759 23.4257> 626 56<346.268 597.661>
AnchorPoint: "below_accent" 401 -100 basechar 0
AnchorPoint: "top_accent" 400 700 basechar 0
LayerCount: 2
Fore
SplineSet
409 -174 m 4xf8
 409 -156 415 -134 432 -134 c 0
 454 -134 467.955 -139.798 480 -157 c 0
 499.502 -184.851 521 -186 550 -186 c 0
 578 -186 606 -144 610 -50 c 0xf8
 612 -13 612 0 601 15 c 0
 456 196 382 296 225 478 c 0
 197 510 190 495 190 482 c 0
 187 392 181 188 184 98 c 0
 184 79 195.42 68.5919 210 56 c 24
 230.871 37.9746 252.667 41.6662 272 22 c 24
 278.922 14.959 284 -3 268 -3 c 0
 218 -3 196.672 2 151 2 c 24
 108.835 2 85 -3 43 -3 c 8
 33.25 -3 36.1716 15.0403 43 22 c 24
 59.1309 38.4414 79.6133 32.8604 95 50 c 24
 112.142 69.0947 120 84 122 110 c 8
 134.147 267.922 132 351 132 516 c 0
 132 544 133 565 121 580 c 0
 90 616 51 629 35 630 c 0
 22 631 22 658 35 658 c 0
 113 656 127 658 199 658 c 0
 211 658 215.027 645.883 223 636 c 24
 373.071 449.985 449.43 338.294 604 156 c 24
 610.558 148.266 628 116 630 156 c 0
 635 308 631 398 626 562 c 0
 624 607 545 624 527 630 c 0
 520 632 519 655 527 655 c 0
 578 655 602.601 650 651 650 c 24
 693.165 650 717 655 759 655 c 0
 765 655 769 631 759 630 c 0
 731 627 718 615 709 608 c 0
 701 602 683.107 586.789 682 568 c 24xf4
 669.29 352.292 674 228 674 14 c 0
 674 -7 668.116 -111.068 624 -179 c 0
 602.759 -211.708 572 -228 524 -228 c 0
 473 -228 409 -214 409 -174 c 4xf8
EndSplineSet
Validated: 33
EndChar

StartChar: eng
Encoding: 331 331 1026
Width: 513
VWidth: 0
Flags: W
HStem: -288 32<241.426 318.536> -3 27<11.9975 63.5168 163.029 212.003> 349 25<30.4373 59.149> 365 49<226.414 327.559>
VStem: 78 70<32.543 331.355> 359 71<-177.127 331.917>
LayerCount: 2
Fore
SplineSet
148 69 m 0xdc
 148 41 170 30 190 24 c 0
 201 20 213 16 213 6 c 0
 213 -4 195 -3 190 -3 c 0
 151 -3 147 2 112 2 c 0
 77 2 73 -3 34 -3 c 0
 29 -3 11 -4 11 6 c 0
 11 16 23 20 34 24 c 0
 54 30 76 38 78 66 c 0
 80 152 81 216 78 277 c 0
 76 313 71 342 37 349 c 8
 27.4424 350.968 26.4922 371.806 36 374 c 16xec
 88 386 123 412 146 429 c 0
 150 432 154 425 155 421 c 0
 155 409 144 354 149 348 c 1
 168 367 255 414 318 414 c 0
 383 414 426.143 372.994 427 295 c 2
 427 295 432 95 430 22 c 0
 428.302 -39.9844 421.7 -141.138 410.7 -173.138 c 0
 381.7 -259.138 328 -288 274 -288 c 0
 247 -288 228.963 -288.386 203 -278 c 16
 193 -274 176 -262 176 -255 c 0
 176 -239 190.7 -207.138 202.7 -207.138 c 0
 226.7 -207.138 235 -256 278 -256 c 0
 303 -256 334.7 -236.138 344.7 -201.138 c 0
 355.7 -162.138 358.287 -65.0039 359 2 c 0
 360 96 357 272 357 272 c 2
 356.57 329.998 319 365 266 365 c 0
 232 365 198 353 173 334 c 0
 158 323 148 309 148 268 c 0
 148 189 148 129 148 69 c 0xdc
EndSplineSet
Validated: 33
EndChar

StartChar: oe
Encoding: 339 339 581
Width: 726
Flags: W
HStem: -15 36.9999<242.335 385.646> -1.99996 41<480.845 653.976> 220 33<476.46 595.617> 410 41<476 642.934> 424 32.0001<229.322 368.335>
VStem: 66 85<119.755 310.96> 401 75<42.772 218.529 253 393.971> 661 19<347.096 375.828>
AnchorPoint: "top_accent" 432 580 basechar 0
LayerCount: 2
Fore
SplineSet
391 394.311 m 0xaf
 366.249 412.827 335.095 424 297 424 c 0
 185 424 151 327 151 232 c 0
 151 115 207 21.9999 319 21.9999 c 0
 348 21.9999 363.783 24.5565 386 39.9999 c 0
 399.381 49.3013 401 61.9999 401 78.9999 c 2
 401 357 l 2
 401 376 400.609 387.123 391 394.311 c 0xaf
390 -2.83806 m 1
 364.038 -10.6766 335.028 -15 303 -15 c 0
 170 -15 66 88 66 217 c 0
 66 340 175 456 303 456 c 0xaf
 314.824 456 326.509 455.209 338 453.696 c 0
 364.804 450.167 394.595 448 428 448 c 0
 509 448 609 451 646 451 c 2
 657 451 l 2
 661 451 668 450 669 445 c 0
 674 419 680 377 680 353 c 0
 680 349 673 347 669 347 c 0
 664 347 663 349 661 354 c 0
 651 385 634 410 599 410 c 2
 501 410 l 2
 493 410 476 407 476 390 c 2
 476 268 l 2
 476 261 477 253 483 253 c 2
 562 253 l 2
 583 253 598 264 604 281 c 0
 606 284 615 294 618 294 c 0
 622 294 628 289 627 283 c 0
 626 267 625 252 625 237 c 0
 625 219 626 201 627 182 c 0
 628 176 627 170 621 170 c 0
 610.793 170 605 185 603 189 c 0
 597 210 582 216 571 218 c 0
 555 220 562 220 551 220 c 2
 521 220 l 2
 502 220 476 219 476 200 c 2
 476 90 l 2
 476 50 491 39 521 39 c 2
 601 39 l 2
 642.228 39 667.883 68.1415 681 97 c 0
 685 105 705 108 705 96 c 1
 702 69 694 32 688 10 c 0
 687 4.00004 686 -1.99996 679 -1.99996 c 0x77
 587.329 -1.99996 512 3.00004 444 3.00004 c 0
 421 3.00004 411.061 3.52068 390 -2.83802 c 1
 390 -2.83806 l 1
EndSplineSet
Validated: 33
Ligature2: "LATliga subtable" o e
EndChar

StartChar: tcaron
Encoding: 357 357 264
Width: 489
Flags: W
HStem: -3 25<121.73 164.086 296.914 339.703> 406 41<72.246 180.16 268.66 420.189>
VStem: 23 34<358.276 395.937> 193 75<46.4591 403.896> 424 28<347.656 398.928>
LayerCount: 2
Fore
SplineSet
156.275 691 m 2
 226.275 595 l 1
 295.275 691 l 2
 300.656 698.486 312.275 709 324.275 709 c 0
 332.275 709 338.177 699.583 332.275 688 c 2
 332.275 688 279.275 580.301 254.275 537 c 0
 243.775 518.813 233.275 508 226.275 508 c 0
 219.275 508 208.775 518.813 198.275 537 c 0
 176.775 574.239 120.275 688 120.275 688 c 2
 114.373 699.583 120.275 709 128.275 709 c 0
 140.275 709 150.443 698.998 156.275 691 c 2
377 406 m 0
 342 406 291 405 279 404 c 0
 270 403 268 387 268 374 c 2
 268 81 l 2
 268 66 270.218 55.7871 281 46 c 0
 297.539 30.9883 312 26 333 22 c 0
 344 19 343 -3 333 -3 c 0
 294 -3 269.041 4 228 4 c 0
 188.904 4 165 -3 128 -3 c 0
 120 -3 117 19 128 22 c 0
 149 26 163.461 30.9883 180 46 c 0
 190.782 55.7871 193 66 193 81 c 2
 193 374 l 2
 193 386 192 402 181 404 c 0
 163 407 150 406 107 406 c 0
 86 406 67 395 57 378 c 0
 53 370 35 350 25 350 c 0
 14 350 19 367 23 376 c 0
 36 402 36 438 40 467 c 0
 42 482 50 482 53 482 c 0
 57 482 68 468 72 461 c 0
 77 451 98 447 116 447 c 2
 387 447 l 2
 408 447 427 447 438 460 c 0
 446 468 458 472 462 472 c 0
 465 472 472 466 469 460 c 0
 459 441 455 396 452 366 c 0
 451.128 357.279 448 346 440 347 c 0
 432 348 426 364 424 370 c 0
 420 387 421 406 377 406 c 0
EndSplineSet
Validated: 33
EndChar
StartChar: Tbar
Encoding: 358 358 992
Width: 681
VWidth: 0
Flags: W
HStem: -3 25<191.787 243.829 428.454 481.776> 362 36<157.325 296.316 376.316 518.82> 604 41<104.017 293.313 378.86 606.786>
VStem: 296.316 80<57.6842 362 398 600.446> 620 34<527.618 586.782>
AnchorPoint: "cedilla" 356 18 basechar 0
AnchorPoint: "below_accent" 334 -100 basechar 0
AnchorPoint: "top_accent" 341 700 basechar 0
LayerCount: 2
Fore
SplineSet
544.316 604 m 0
 492.316 604 410.316 602 392.316 600 c 0
 378.316 598 376.316 575 376.316 557 c 2
 376.316 398 l 1
 508.316 398 l 2
 515.316 398 524.316 391 521.316 384 c 0
 514.316 371 505.316 362 490.316 362 c 2
 376.316 362 l 1
 376.316 109 l 2
 376.316 87 379.393 71.5823 395.316 57 c 0
 419.382 34.9613 440.316 28 471.316 22 c 0
 488.316 19 487.316 -3 471.316 -3 c 0
 414.316 -3 389.002 2 336.316 2 c 0
 283.63 2 255.316 -3 201.316 -3 c 0
 189.316 -3 184.316 19 201.316 22 c 0
 231.316 28 253.251 34.961 277.316 57 c 0
 293.239 71.5821 296.316 87 296.316 109 c 2
 296.316 362 l 1
 171.316 362 l 2
 162.316 362 157.316 374 157.316 380 c 0
 157.316 389 169.316 398 181.316 398 c 2
 296.316 398 l 1
 296.316 557 l 2
 296.316 575 294.309 596.963 278.316 600 c 0
 252.305 604.94 219.316 604 157.316 604 c 0
 125.316 604 89.1403 590.924 75 565 c 0
 69 554 49 527 34 527 c 0
 25 527 25.3164 547 32.3164 560 c 0
 50.3164 598 57.3164 629 63.3164 671 c 0
 66.4565 692.98 75 694 80 694 c 0
 85 694 99.3164 673 105.316 662 c 0
 113.316 648 146.943 643.065 175.316 642 c 0
 324.586 636.398 409.115 637.797 558.316 645 c 0
 587.581 646.413 621.12 650.129 631 664 c 0
 641.684 679 651 686 658 686 c 0
 663 686 672 679 670 669 c 0
 662.192 629.961 653 587 654 552 c 0
 654.315 540.959 650 525 639 527 c 0
 627 529 624.366 548.783 620 558 c 0
 611 577 608.316 604 544.316 604 c 0
EndSplineSet
Validated: 33
EndChar

StartChar: tbar
Encoding: 359 359 993
Width: 317
VWidth: 0
Flags: W
HStem: -14 45<166.36 260.495> 210 36<25.0087 73 143 239.504> 352 48<146.166 291.383> 352 24<33.2972 56.6887>
VStem: 73 70<55.5864 210 246 351.422>
LayerCount: 2
Fore
SplineSet
40 352 m 0xd8
 34 353 25 373 33 376 c 0xd8
 75 393 101 423 120 450 c 0
 127.025 459.983 152 466 152 459 c 2
 146 414 l 2
 145 405 155 400 168 400 c 2
 286 400 l 2
 296 400 296 352 286 352 c 2
 183 352 l 2xe8
 137 352 143 351 143 324 c 2
 143 246 l 1
 229 246 l 2
 236 246 245 239 242 232 c 0
 235 219 226 210 211 210 c 2
 143 210 l 1
 143 107 l 2
 143 67 177 31 213 31 c 0
 257 31 272 42 288 54 c 0
 296 60 300 40 296 34 c 0
 287 19 232 -14 180 -14 c 0
 124 -14 73 27 73 83 c 2
 73 210 l 1
 39 210 l 2
 30 210 25 222 25 228 c 0
 25 237 37 246 49 246 c 2
 73 246 l 1
 73 337 l 2
 73 356 61 350 40 352 c 0xd8
EndSplineSet
Validated: 33
EndChar

StartChar: Ohorn
Encoding: 416 416 288
Width: 783
VWidth: 0
Flags: W
HStem: -14 39<314.694 492.027> 625 39<291.968 474.205>
VStem: 50 97<219.261 447.814> 626 97<206.698 451.269> 706 56<605.697 675.5>
AnchorPoint: "cedilla" 412 8 basechar 0
AnchorPoint: "ogonek" 520 18 basechar 0
AnchorPoint: "below_accent" 370 -100 basechar 0
AnchorPoint: "top_accent" 383 700 basechar 0
LayerCount: 2
Fore
SplineSet
665.097 552 m 1xe8
 674 542 l 1
 721.453 486.374 723 420.861 723 335 c 0xf0
 723 155 606 -14 387 -14 c 0
 210 -14 50 130 50 320 c 0
 50 500 167.943 664 387 664 c 0
 528 664 592 608 634 598 c 0
 663.442 590.99 706 599.89 706 618 c 0
 706 650 664 633 664 666 c 0
 664 691 702 724 724 724 c 0
 742 724 762 687 762 664 c 0
 762 586.99 665.097 552 665.097 552 c 1xe8
380 625 m 0
 232 625 147 490 147 350 c 0
 147 179 252 25 400 25 c 0
 550 25 626 134 626 305 c 0
 626 495 540 625 380 625 c 0
EndSplineSet
Validated: 33
EndChar
StartChar: ohorn
Encoding: 417 417 289
Width: 489
VWidth: 0
Flags: W
HStem: -14 30<199.012 312.82> 380 34<173.071 290.834>
VStem: 30 83<108.613 284.404> 373 82<108.586 291.095> 436 56<384.254 467.329>
LayerCount: 2
Fore
SplineSet
233 380 m 0xf0
 197 380 165 364 146 340 c 0
 120 307 113 258 113 210 c 0
 113 111 171 16 251 16 c 0
 296 16 334 33 354 72 c 0
 370 103 373 150 373 189 c 0
 373 284 318 380 233 380 c 0xf0
407.5 445 m 0
 407.5 463 432.5 494 462 494 c 0
 482 494 492 475.5 492 442 c 0xe8
 492 385 457.802 366.901 413 344.5 c 0
 408 342 410 336 413 332 c 0
 439 298 455 257 455 213 c 0xf0
 455 96 380 -14 230 -14 c 0
 118 -14 30 86 30 186 c 0
 30 310 127 414 250 414 c 0
 279.165 414 303.005 408.486 322 401.658 c 0
 352.504 390.693 376 382 397 382 c 0
 415 382 436 389 436 403 c 0xe8
 436 416.378 426.055 425.972 417 430.5 c 0
 412 433 407.5 438 407.5 445 c 0
EndSplineSet
Validated: 1
EndChar
StartChar: uni0292
Encoding: 658 658 1028
Width: 426
VWidth: 0
Flags: W
HStem: -285 40<72.9762 198.956> -268 64<25.9468 73.2288> 94 28<219.258 243.818> 286 21G<33.5 43> 364 38<97.1616 255.188>
VStem: 37 28<294 326.955> 301 85<-116.747 37.1514>
LayerCount: 2
Fore
SplineSet
301 -67 m 0xbe
 301 7 273.33 94 199 94 c 20
 164 94 118 80 110 84 c 0
 104 87 110 101 110 101 c 1
 113 109 125 131 137 151 c 0
 164 196 215 279 261 354 c 0
 264 358 267 363 252 364 c 0
 213 365 174 369 136 367 c 0
 116 366 85 337 65 311 c 0
 60 305 48 286 38 286 c 0
 29 286 33 300 37 308 c 0
 45 327 49 380 49 405 c 0
 49 415 55 416 59 416 c 0
 62 416 68 412 74 407 c 0
 79 403 103.18 402.195 122 402 c 24
 215.988 401.024 291 402 363 404 c 0
 368 404 372 396 370 392 c 0
 360 374 353 363 340 343 c 0
 288 263 261 218 215 133 c 0
 205 114 236 122 241 122 c 8
 323.21 122 386 55 386 -31 c 0
 386 -138 269.199 -285 128 -285 c 16xbe
 117 -285 72.4617 -283.524 42 -268 c 24
 28.0146 -260.873 24.9792 -247.667 24 -232 c 24
 23.2383 -219.814 25.7911 -204 38 -204 c 0x7e
 56 -204 63.12 -220.716 80 -230 c 0
 100 -241 116 -245 128 -245 c 8
 224.806 -245 301 -139 301 -67 c 0xbe
EndSplineSet
Validated: 33
EndChar
StartChar: circumflex
Encoding: 710 710 90
Width: 0
VWidth: 0
Flags: W
HStem: 447 201
VStem: -273 212
LayerCount: 2
Fore
SplineSet
-237 465 m 6
 -242.832 457.002 -253 447 -265 447 c 4
 -273 447 -278.902 456.417 -273 468 c 6
 -273 468 -216.5 581.761 -195 619 c 4
 -184.5 637.187 -174 648 -167 648 c 4
 -160 648 -149.5 637.187 -139 619 c 4
 -114 575.699 -61 468 -61 468 c 6
 -55.0977 456.417 -61 447 -69 447 c 4
 -81 447 -92.6191 457.514 -98 465 c 6
 -98 465 -138.321 520.042 -167 561 c 5
 -195.679 520.042 -237 465 -237 465 c 6
EndSplineSet
Validated: 1
Substitution2: "'case' Case-Sensitive Forms lookup 12 subtable" circumflex.cap
EndChar

StartChar: uni02C8
Encoding: 712 712 1232
Width: 90
Flags: W
HStem: 500 175<30 70>
VStem: 30 40<501.246 673.507>
LayerCount: 2
Fore
SplineSet
30 657 m 2
 30 665 48 675 57 675 c 0
 65 675 70 667 70 659 c 2
 70 520 l 2
 70 513 56 500 43 500 c 0
 35 500 30 510 30 519 c 2
 30 657 l 2
EndSplineSet
Validated: 1
EndChar

StartChar: uni02D0
Encoding: 720 720 1235
Width: 220
VWidth: 2048
Flags: W
HStem: 0 21G<35 185>
VStem: 35 150
LayerCount: 2
Fore
SplineSet
110 120 m 1
 185 0 l 1
 35 0 l 1
 110 120 l 1
110 250 m 1
 35 370 l 1
 185 370 l 1
 110 250 l 1
EndSplineSet
Validated: 1
EndChar
StartChar: ogonek
Encoding: 731 731 349
Width: 0
VWidth: 0
Flags: W
HStem: -287 66<-166.649 -96.5607>
VStem: -256 74<-206.017 -108.484>
LayerCount: 2
Fore
SplineSet
-118 18 m 9
 -92 18 l 17
 -160 -39 -182 -93 -182 -152 c 0
 -182 -196 -156 -221 -122 -221 c 0
 -93.9824 -221 -76 -208 -67 -201 c 0
 -62.8696 -197.787 -54 -201 -55 -207 c 0
 -56.9728 -218.837 -64.2995 -230.183 -71 -238 c 0
 -77 -245 -105 -287 -155 -287 c 8
 -212.669 -287 -256 -253 -256 -179 c 4
 -256 -126 -205 -39 -118 18 c 9
EndSplineSet
Validated: 1
Substitution2: "'case' Case-Sensitive Forms lookup 12 subtable" ogonek.cap
EndChar
StartChar: hungarumlaut
Encoding: 733 733 351
Width: 0
VWidth: 0
Flags: W
HStem: 445 219
VStem: -329 280
LayerCount: 2
Fore
SplineSet
-292 472 m 0
 -296 464 -306 447 -314 445 c 0
 -323 444 -328 447 -329 456 c 0
 -332 471 -283 591 -268 628 c 0
 -260 648 -245 660 -223 664 c 24
 -206 667 -187 656 -184 642 c 0
 -181 623 -272 510 -292 472 c 0
-157 472 m 0
 -162 464 -171 447 -179 445 c 0
 -188 444 -193 447 -194 456 c 0
 -197 471 -148 591 -133 628 c 0
 -125 648 -110 660 -88 664 c 24
 -71 667 -52 656 -49 642 c 0
 -46 623 -132 512 -157 472 c 0
EndSplineSet
Validated: 33
Substitution2: "'case' Case-Sensitive Forms lookup 12 subtable" hungarumlaut.cap
EndChar
StartChar: gravecomb
Encoding: 768 768 975
Width: 1000
Flags: W
HStem: 456 193
VStem: 8 157
AnchorPoint: "top_accent" 133 550 mark 0
LayerCount: 2
Fore
SplineSet
126 478 m 0
 95 511 8 612 8 626 c 0
 8 642 32 649 57 649 c 0
 67 649 78 641 84 631 c 0
 103 598 165 484 165 469 c 0
 165 460 165 456 156 456 c 0
 148 456 134 469 126 478 c 0
EndSplineSet
Validated: 1
Substitution2: "'case' Case-Sensitive Forms lookup 12 subtable" grave.cap
EndChar
StartChar: uni0304
Encoding: 772 772 974
Width: 1000
Flags: W
HStem: 490 55<63.6605 296.414>
VStem: 60 240<491.575 544.782>
AnchorPoint: "top_accent" 180 540 mark 0
LayerCount: 2
Fore
SplineSet
84 545 m 2
 287 545 l 2
 293 545 300 539 300 533 c 0
 300 511 290 490 269 490 c 2
 74 490 l 2
 67 490 60 496 60 502 c 0
 60 511 65 545 84 545 c 2
EndSplineSet
Validated: 1
EndChar
StartChar: uni0305
Encoding: 773 773 977
Width: 1000
Flags: W
HStem: 523 50<3.10421 397.469>
AnchorPoint: "top_accent" 200 550 mark 0
LayerCount: 2
Fore
SplineSet
24 573 m 2
 387 573 l 2
 393 573 400 567 400 561 c 0
 400 539 388 523 369 523 c 2
 14 523 l 2
 7 523 0 529 0 535 c 0
 0 544 6 573 24 573 c 2
EndSplineSet
Validated: 1
EndChar
StartChar: uni0307
Encoding: 775 775 122
Width: 1000
Flags: W
HStem: 493 101<71.1171 153.823>
VStem: 62 101<502.117 584.823>
AnchorPoint: "top_accent" 111 550 mark 0
LayerCount: 2
Fore
SplineSet
62 543 m 0
 62 572 84 594 112 594 c 0
 141 594 163 572 163 543 c 0
 163 515 141 493 112 493 c 0
 84 493 62 515 62 543 c 0
EndSplineSet
Validated: 1
EndChar

StartChar: uni030E
Encoding: 782 782 624
Width: 1000
Flags: W
HStem: 500 175<30 70 110 150>
VStem: 30 40<501.246 673.507> 110 40<501.246 673.507>
AnchorPoint: "top_accent" 90 550 mark 0
LayerCount: 2
Fore
SplineSet
110 657 m 2
 110 665 128 675 137 675 c 0
 145 675 150 667 150 659 c 2
 150 520 l 2
 150 513 136 500 123 500 c 0
 115 500 110 510 110 519 c 2
 110 657 l 2
30 657 m 2
 30 665 48 675 57 675 c 0
 65 675 70 667 70 659 c 2
 70 520 l 2
 70 513 56 500 43 500 c 0
 35 500 30 510 30 519 c 2
 30 657 l 2
EndSplineSet
Validated: 1
EndChar
StartChar: uni0311
Encoding: 785 785 981
Width: 1000
Flags: W
HStem: 456 21G<72 82 256 266> 541 55<115.618 222.382>
VStem: 62 32<456.078 509.604> 244 32<456.078 508.969>
AnchorPoint: "top_accent" 169 533 mark 0
LayerCount: 2
Fore
SplineSet
94 477 m 0
 89 468 87 456 77 456 c 0
 67 456 62 467 62 480 c 0
 62 555 99 596 169 596 c 0
 239 596 276 544 276 480 c 0
 276 467 271 456 261 456 c 0
 251 456 249 468 244 477 c 0
 231 499 229 541 169 541 c 0
 109 541 107 499 94 477 c 0
EndSplineSet
Validated: 1
Substitution2: "'case' Case-Sensitive Forms lookup 12 subtable" uni0311.cap
EndChar

StartChar: uni0314
Encoding: 788 788 127
Width: 1000
Flags: W
HStem: 466 21<126.544 167.954> 608 78<97.4508 172.433>
VStem: 32 52<521.956 596.595>
AnchorPoint: "top_accent" 107 550 mark 0
LayerCount: 2
Fore
SplineSet
131 608 m 0
 111 608 84 580 84 558 c 0
 84 528 111 496 154 487 c 0
 163 485 168 480 168 476 c 0
 168 471 161 466 148 466 c 0
 97 466 32 519 32 589 c 0
 32 645 83 686 131 686 c 0
 160 686 178 666 178 650 c 0
 178 628 160 608 131 608 c 0
EndSplineSet
Validated: 1
EndChar
StartChar: uni0318
Encoding: 792 792 1194
Width: 1000
Flags: W
HStem: -181 40<21.8372 140>
VStem: 140 40<-248.163 -181 -141 -69.2917>
AnchorPoint: "below_accent" 100 -100 mark 0
LayerCount: 2
Fore
SplineSet
180 -226 m 2
 180 -240 161 -250 152 -250 c 0
 146 -250 140 -243 140 -236 c 2
 140 -181 l 1
 34 -181 l 2
 27 -181 20 -175 20 -169 c 0
 20 -160 30 -141 44 -141 c 2
 140 -141 l 1
 140 -98 l 2
 140 -82 160 -67 166 -67 c 0
 173 -67 180 -73 180 -80 c 2
 180 -226 l 2
EndSplineSet
Validated: 1
EndChar
StartChar: uni031E
Encoding: 798 798 1200
Width: 1000
Flags: W
HStem: -127 40<21.8946 80 120 178.163>
VStem: 80 40<-234.708 -127>
AnchorPoint: "below_accent" 100 -100 mark 0
LayerCount: 2
Fore
SplineSet
166 -87 m 2
 173 -87 180 -93 180 -99 c 0
 180 -108 170 -127 156 -127 c 2
 120 -127 l 1
 120 -206 l 2
 120 -222 100 -237 94 -237 c 0
 87 -237 80 -231 80 -224 c 2
 80 -127 l 1
 33 -127 l 2
 27 -127 20 -123 20 -117 c 0
 20 -100 34 -87 51 -87 c 2
 166 -87 l 2
EndSplineSet
Validated: 1
EndChar
StartChar: uni031F
Encoding: 799 799 1201
Width: 1000
Flags: W
HStem: -181 40<6.83716 80 120 193.105>
VStem: 80 40<-248.163 -181 -141 -69.2917>
AnchorPoint: "below_accent" 100 -100 mark 0
LayerCount: 2
Fore
SplineSet
19 -181 m 2
 12 -181 5 -175 5 -169 c 0
 5 -160 15 -141 29 -141 c 2
 80 -141 l 1
 80 -98 l 2
 80 -82 100 -67 106 -67 c 0
 113 -67 120 -73 120 -80 c 2
 120 -141 l 1
 182 -141 l 2
 188 -141 195 -145 195 -151 c 0
 195 -168 181 -181 164 -181 c 2
 120 -181 l 1
 120 -226 l 2
 120 -240 101 -250 92 -250 c 0
 86 -250 80 -243 80 -236 c 2
 80 -181 l 1
 19 -181 l 2
EndSplineSet
Validated: 1
EndChar
StartChar: uni0322
Encoding: 802 802 1204
Width: 1000
Flags: W
HStem: -288 28<82.9154 170.865> -189 20G<234.5 249>
VStem: 30 65<-242.084 54> 182 72<-248.392 -189.197>
LayerCount: 2
Fore
SplineSet
95 -36 m 2
 95 -202 102 -260 140 -260 c 0
 166 -260 182 -238 182 -219 c 0
 182 -201 224 -169 245 -169 c 0
 253 -169 254 -182 254 -195 c 0
 254 -258 188 -288 116 -288 c 0
 50 -288 31 -211 30 -104 c 1
 30 54 l 1
 95 54 l 1
 95 -36 l 2
EndSplineSet
Validated: 1
EndChar
StartChar: uni0326
Encoding: 806 806 129
Width: 1000
Flags: W
HStem: -145 88<48.6911 116.02>
VStem: 118 54<-221.876 -148.082>
AnchorPoint: "below_accent" 106 -100 mark 0
LayerCount: 2
Fore
SplineSet
64 -275 m 0
 56 -275 51 -271 51 -266 c 0
 51 -261 56 -256 65 -253 c 0
 104 -239 118 -202 118 -174 c 0
 118 -156 106 -149 88 -145 c 0
 65 -140 38 -122 38 -100 c 0
 38 -76 55 -57 84 -57 c 0
 132 -57 172 -98 172 -154 c 0
 172 -239 89 -275 64 -275 c 0
EndSplineSet
Validated: 1
EndChar
StartChar: uni0328
Encoding: 808 808 128
Width: 1000
Flags: W
HStem: -287 66<95.324 164.883>
VStem: 6 74<-206.017 -103.775>
AnchorPoint: "ogonek" 156 18 mark 0
LayerCount: 2
Fore
SplineSet
107 -287 m 0
 49 -287 6 -253 6 -179 c 0
 6 -72 144 18 144 18 c 1
 170 18 l 1
 170 18 80 -43 80 -152 c 0
 80 -196 106 -221 140 -221 c 0
 175 -221 194 -200 199 -200 c 0
 203 -200 207 -201 207 -207 c 0
 207 -226 163 -287 107 -287 c 0
EndSplineSet
Validated: 1
EndChar

StartChar: uni032B
Encoding: 811 811 1210
Width: 1000
Flags: W
HStem: -258 58<47.1342 111.852 173.858 246.819> -196 63<130.409 153.159>
VStem: 130 30<-178.838 -134.698>
AnchorPoint: "below_accent" 145 -100 mark 0
LayerCount: 2
Fore
SplineSet
216 -200 m 0
 255 -200 259 -130 277 -130 c 0
 282 -130 285 -138 285 -149 c 0
 285 -171 260 -258 207 -258 c 0
 161 -258 145 -196 145 -196 c 1
 145 -196 110 -258 64 -258 c 0
 21 -258 5 -174 5 -152 c 0
 5 -141 10 -133 18 -133 c 0
 37 -133 40 -200 76 -200 c 0
 122 -200 130 -153 130 -148 c 0
 130 -141 146 -133 151 -133 c 0
 157 -133 160 -141 160 -144 c 0
 160 -149 170 -200 216 -200 c 0
EndSplineSet
Validated: 1
EndChar
StartChar: uni032D
Encoding: 813 813 1212
Width: 1000
Flags: W
HStem: -259 201
VStem: 30 217<-255 -231>
AnchorPoint: "below_accent" 138 -100 mark 0
LayerCount: 2
Fore
SplineSet
135 -153 m 0
 110 -183 81 -221 69 -237 c 0
 62 -246 47 -259 39 -259 c 0
 30 -259 30 -255 30 -246 c 0
 30 -231 98 -109 118 -76 c 0
 123 -67 130 -58 138 -58 c 0
 146 -58 153 -67 158 -76 c 0
 178 -109 247 -231 247 -246 c 0
 247 -255 247 -259 238 -259 c 0
 230 -259 215 -247 208 -237 c 0
 196 -221 166 -183 142 -153 c 0
 139 -149 138 -149 135 -153 c 0
EndSplineSet
Validated: 1
EndChar

StartChar: uni0330
Encoding: 816 816 1215
Width: 1000
Flags: W
HStem: -172 73<130.811 270.957> -156 73<91.3225 231.689>
VStem: 50 260
AnchorPoint: "below_accent" 180 -100 mark 0
LayerCount: 2
Fore
SplineSet
300 -60 m 0xa0
 306 -60 310 -69 310 -80 c 0
 310 -84 281 -172 228 -172 c 0xa0
 182 -172 174 -156 120 -156 c 0
 82 -156 69 -189 63 -189 c 0
 55 -189 50 -181 50 -170 c 0
 50 -166 84 -83 137 -83 c 0x60
 183 -83 186 -99 240 -99 c 0
 278 -99 292 -60 300 -60 c 0xa0
EndSplineSet
Validated: 1
EndChar
StartChar: uni0332
Encoding: 818 818 1217
Width: 1000
Flags: W
HStem: -141 50<3.10421 394.526>
AnchorPoint: "below_accent" 200 -100 mark 0
LayerCount: 2
Fore
SplineSet
369 -141 m 2
 14 -141 l 2
 7 -141 0 -135 0 -129 c 0
 0 -120 6 -91 24 -91 c 2
 387 -91 l 2
 393 -91 400 -96 400 -102 c 0
 400 -111 387 -141 369 -141 c 2
EndSplineSet
Validated: 1
EndChar
StartChar: uni0333
Encoding: 819 819 1218
Width: 1000
Flags: W
HStem: -247 50<3.10421 394.526> -141 50<3.10421 394.526>
AnchorPoint: "below_accent" 200 -100 mark 0
LayerCount: 2
Fore
SplineSet
369 -247 m 2
 14 -247 l 2
 7 -247 0 -241 0 -235 c 0
 0 -226 6 -197 24 -197 c 2
 387 -197 l 2
 393 -197 400 -202 400 -208 c 0
 400 -217 387 -247 369 -247 c 2
369 -141 m 2
 14 -141 l 2
 7 -141 0 -135 0 -129 c 0
 0 -120 6 -91 24 -91 c 2
 387 -91 l 2
 393 -91 400 -96 400 -102 c 0
 400 -111 387 -141 369 -141 c 2
EndSplineSet
Validated: 1
EndChar

StartChar: uni0334
Encoding: 820 820 1219
Width: 500
Flags: W
HStem: 260 73<254.041 375.663> 308 73<126.61 238.491>
LayerCount: 2
Fore
SplineSet
440 382 m 0x80
 445 382 450 368 450 362 c 0
 450 348 374 260 325 260 c 0x80
 277 260 212 308 158 308 c 0
 113 308 70 261 65 261 c 0
 57 261 50 272 50 279 c 0
 50 289 130 381 175 381 c 0x40
 221 381 271 333 337 333 c 0
 382 333 435 382 440 382 c 0x80
EndSplineSet
Validated: 1
EndChar

StartChar: uni0335
Encoding: 821 821 1220
Width: 1000
Flags: W
HStem: 356 44<52.0137 348.596>
VStem: 50 300<357.29 399.847>
LayerCount: 2
Fore
SplineSet
74 400 m 2
 337 400 l 2
 343 400 350 394 350 388 c 0
 350 368 336 356 319 356 c 2
 64 356 l 2
 57 356 50 362 50 368 c 0
 50 377 58 400 74 400 c 2
EndSplineSet
Validated: 1
EndChar
StartChar: uni0336
Encoding: 822 822 1221
Width: 1000
Flags: W
HStem: 356 44<52.0137 498.596>
LayerCount: 2
Fore
SplineSet
74 400 m 2
 487 400 l 2
 493 400 500 394 500 388 c 0
 500 368 486 356 469 356 c 2
 64 356 l 2
 57 356 50 362 50 368 c 0
 50 377 58 400 74 400 c 2
EndSplineSet
Validated: 1
EndChar
StartChar: uni0337
Encoding: 823 823 1222
Width: 1000
Flags: W
LayerCount: 2
Fore
SplineSet
30 -47 m 2
 327 648 l 2
 334 663 349 665 366 665 c 0
 373 665 380 659 380 652 c 0
 380 651 379 649 379 648 c 2
 82 -47 l 2
 76 -61 61 -62 46 -62 c 0
 38 -62 29 -57 29 -50 c 0
 29 -49 30 -48 30 -47 c 2
EndSplineSet
Validated: 1
EndChar
StartChar: uni033A
Encoding: 826 826 1225
Width: 1000
Flags: W
HStem: -250 109<5.21558 45 205.216 244.071> -250 40<45 205>
VStem: 5 40<-210 -142.837> 205 40<-210 -142.837>
AnchorPoint: "below_accent" 125 -100 mark 0
LayerCount: 2
Fore
SplineSet
18 -250 m 2xb0
 12 -250 5 -246 5 -240 c 2
 5 -165 l 2
 5 -151 24 -141 33 -141 c 0xb0
 39 -141 45 -148 45 -155 c 2
 45 -210 l 1
 205 -210 l 1x70
 205 -165 l 2
 205 -151 224 -141 233 -141 c 0
 239 -141 245 -148 245 -155 c 2
 245 -222 l 2
 245 -232 236 -250 221 -250 c 2
 18 -250 l 2xb0
EndSplineSet
Validated: 1
EndChar
StartChar: uni033B
Encoding: 827 827 1226
Width: 1000
Flags: W
HStem: -257 30<45 124> -142 30<45 124>
VStem: 5 40<-227 -142> 124 40<-227 -142>
AnchorPoint: "below_accent" 85 -100 mark 0
LayerCount: 2
Fore
SplineSet
45 -142 m 1
 45 -227 l 1
 124 -227 l 1
 124 -142 l 1
 45 -142 l 1
152 -112 m 2
 158 -112 164 -117 164 -126 c 2
 164 -229 l 2
 164 -239 155 -257 140 -257 c 2
 18 -257 l 2
 12 -257 5 -253 5 -247 c 2
 5 -136 l 2
 5 -122 24 -112 33 -112 c 2
 152 -112 l 2
EndSplineSet
Validated: 1
EndChar
StartChar: uni0341
Encoding: 833 833 626
Width: 1000
Flags: W
HStem: 456 193
VStem: 14 157
AnchorPoint: "grk_top" 30 510 mark 0
LayerCount: 2
Fore
SplineSet
53 478 m 0
 45 469 31 456 23 456 c 0
 14 456 14 460 14 469 c 0
 14 484 76 598 95 631 c 0
 101 641 112 649 122 649 c 0
 147 649 171 642 171 626 c 0
 171 612 84 511 53 478 c 0
EndSplineSet
Validated: 1
EndChar
StartChar: uni0343
Encoding: 835 835 352
Width: 1000
Flags: W
HStem: 461 21<10.0396 51.456> 603 78<5.56667 84.873>
VStem: 94 52<519.849 594.689>
LayerCount: 2
Fore
SplineSet
47 603 m 0
 18 604 0 623 0 645 c 0
 0 661 18 681 47 681 c 0
 95 681 146 640 146 584 c 0
 146 520 81 463 30 461 c 1
 28 461 l 2
 16 461 10 466 10 471 c 0
 10 475 15 480 24 482 c 0
 67 491 94 524 94 557 c 0
 94 578 77 601 47 603 c 0
EndSplineSet
Validated: 1
EndChar
StartChar: uni0344
Encoding: 836 836 627
Width: 1000
Flags: W
HStem: 474 100<24.7018 103.298 201.702 280.298>
VStem: 14 100<484.702 563.298> 191 100<484.702 563.298>
LayerCount: 2
Fore
SplineSet
183 656 m 0
 175 647 161 634 153 634 c 0
 144 634 144 638 144 647 c 0
 144 662 206 776 225 809 c 0
 231 819 242 827 252 827 c 0
 277 827 301 820 301 804 c 0
 301 790 214 689 183 656 c 0
241 574 m 0
 266 574 291 549 291 524 c 0
 291 499 266 474 241 474 c 0
 216 474 191 499 191 524 c 0
 191 549 216 574 241 574 c 0
64 574 m 0
 89 574 114 549 114 524 c 0
 114 499 89 474 64 474 c 0
 39 474 14 499 14 524 c 0
 14 549 39 574 64 574 c 0
EndSplineSet
Validated: 1
EndChar
StartChar: Delta
Encoding: 916 916 1065
Width: 676
VWidth: 0
Flags: W
HStem: 0 55<115.281 500.412>
LayerCount: 2
Fore
SplineSet
74 110 m 6
 293 570 l 6
 297 579 300 588 303 600 c 28
 306 611 305 627 307 628 c 4
 319 632 326 633 337 638 c 4
 352 645 362 670 367 670 c 4
 372 670 374 665 377 656 c 6
 576 130 l 6
 589 95 602 62 615 27 c 4
 619 16 613 0 601 0 c 22
 48 0 l 6
 33 0 30 16 35 27 c 4
 50 60 53 66 74 110 c 6
486 120 m 6
 340 539 l 6
 332 563 331 562 321 540 c 6
 124 104 l 6
 102 56 125 55 151 55 c 6
 482 55 l 6
 512 54 503 70 486 120 c 6
EndSplineSet
Validated: 33
EndChar
StartChar: Theta
Encoding: 920 920 1099
Width: 773
VWidth: 0
Flags: W
HStem: -14 39<314.694 492.027> 301 70<290.01 485.856> 625 39<292.149 474.251>
VStem: 50 97<219.261 447.462> 489 30<246.009 290.894> 626 97<206.698 448.756>
LayerCount: 2
Fore
SplineSet
520 393 m 0
 530.565 408.089 539 416 546 416 c 0
 551 416 561.22 409.284 557 400 c 0
 537 356 525 317 519 269 c 0
 517.63 258.04 516 246 504 246 c 0
 497 246 492.378 258.487 489 272 c 0
 485 288 466.905 301 447 301 c 26
 324 301 l 18
 294 301 268.512 300.127 261 286 c 0
 255.118 274.938 240 248 225 248 c 0
 216 248 216.316 268 223.316 281 c 0
 241.316 319 254.329 356.332 262.316 398 c 0
 265 412 271 415 276 415 c 0
 281 415 285.812 408.117 289 396 c 0
 292.684 382 304.469 371 320 371 c 26
 469 371 l 26
 490.662 371 511.396 380.713 520 393 c 0
380 625 m 0
 232 625 147 490 147 350 c 0
 147 179 252 25 400 25 c 0
 550 25 626 134 626 305 c 4
 626 495 540 625 380 625 c 0
50 320 m 0
 50 500 168 659 387 664 c 0
 564 668 723 535 723 335 c 0
 723 155 606 -14 387 -14 c 0
 210 -14 50 130 50 320 c 0
EndSplineSet
Validated: 33
EndChar
StartChar: Xi
Encoding: 926 926 1100
Width: 640
VWidth: 0
Flags: W
HStem: -8 21G<39 129> 0 63<107.13 545.735> 308 65<189.992 437.079> 589 61<131.53 523.156>
VStem: 71 26<81.467 149.726> 141 26<249.742 292.777> 161 25<384.575 422.957> 442 26<247.291 297.581> 460 26<384.652 413.678> 528 30<526.011 578.359>
LayerCount: 2
Fore
SplineSet
218 308 m 0x3940
 186 308 178.411 294.47 167 270 c 0
 163.619 262.75 155 246 147 246 c 0
 138 246 137.419 263.676 141 278 c 0x3d40
 147 302 159.116 382.099 161 400 c 0
 163 419 168 423 173 423 c 0
 178 423 184.344 416.42 186 404 c 0
 188 389 209 373 223 373 c 8
 301.39 373 345.61 373 424 373 c 16
 437 373 451.789 387.27 460 399 c 0
 467 409 471 415 478 415 c 0
 483 415 488 410 486 400 c 0x3ac0
 478 361 467 305 468 270 c 0
 468 259 465 246 458 246 c 0
 453 246 443.688 259.297 442 269 c 0
 438 292 430 308 404 308 c 0
 352 308 280 308 218 308 c 0x3940
155 63 m 0x7840
 166 63 461 63 472 63 c 0x7840
 525 63 558 85 575 121 c 0
 578 129 590 150 603 150 c 0
 613 150 610 136 610 129 c 0
 610 125 579 54 575 12 c 0
 574 3 571 -8 561 -8 c 0xb840
 561 -8 542 0 452 0 c 0
 129 0 l 0x7840
 79 6.12303e-15 44 -8 44 -8 c 0xb840
 34 -8 25.6863 3.85188 30 12 c 0
 48 46 61 81 71 128 c 0
 74.1836 142.962 79.1006 150 86 150 c 0
 94 150 95.9199 139.175 97 131 c 4
 104 78 110 63 155 63 c 0x7840
181 589 m 0
 126 589 114 580 90 552 c 0
 83 544 69 527 59 527 c 0
 50 527 48 537 55 550 c 0
 73 588 84 616 96 657 c 0
 100 669 110 675 115 675 c 0
 120 675 126 669 131 664 c 0
 142 653 173 650 200 650 c 8
 314 650 389 650 492 650 c 8
 521 650 553 655 565 664 c 0
 570 668 575 672 582 672 c 0
 587 672 593 664 589 655 c 0
 574 620 563 588 558 552 c 0
 556 541 553 526 543 526 c 0
 533 526 529 541 528 551 c 0
 525 576 508 589 479 589 c 0
 427 589 243 589 181 589 c 0
EndSplineSet
Validated: 33
EndChar
StartChar: Sigma
Encoding: 931 931 1103
Width: 603
VWidth: 0
Flags: W
HStem: 0 70<361.528 523.227> 615 34<164.638 378.038>
VStem: 554 38.889<102.926 158.453>
LayerCount: 2
Fore
SplineSet
158 94 m 0
 150.721 85.8218 155 78 166 77 c 4
 224 70 372 69 445.889 70 c 4
 494.051 70.6518 526 78 554 131 c 4
 562.588 147.256 572 163 584.889 163 c 4
 590.842 163 595.229 156.672 592.889 150 c 4
 575 99 557 37 551.889 12 c 4
 550.097 3.23697 547.889 -5 537.889 -5 c 4
 507.999 -5 486.048 -0.302734 458 0 c 4
 347.714 1.19043 242.508 2.3916 158 0 c 4
 108 -1 94 -6 46 -6 c 8
 36.9287 -6 25 -1 25 4 c 0
 25 9 33.3697 23.5931 59 50 c 0
 125 118 242 249 297 310 c 0
 300.348 313.713 299.481 317.17 296.268 321 c 0
 238.417 389.944 132 514 98 550 c 0
 69.7732 579.887 50.8887 603 28.8887 631 c 0
 24.8887 636 33.8887 649 39.8887 649 c 0
 154.889 646 282.069 645.024 436.889 647 c 24
 465.526 647.365 501.889 649 509.889 655 c 0
 519.889 663 529.889 669 534.889 669 c 0
 539.889 669 547.724 666.877 549.889 652 c 0
 556 610 563 564 566.889 541 c 0
 569.367 526.342 573.889 503 558.889 503 c 0
 543.889 503 541.889 523 536.889 535 c 0
 518.889 584 486.889 602 454.889 604 c 0
 394.889 608 247 615 179.889 615 c 0
 155.868 615 159.508 605.645 164.889 599 c 0
 196.354 560.143 345.985 399.015 380 365 c 0
 390 355 383.122 347.686 379 343 c 0
 284 235 247 194 158 94 c 0
EndSplineSet
Validated: 33
EndChar
StartChar: Upsilon
Encoding: 933 933 643
Width: 739
VWidth: 0
Flags: W
HStem: -5 29<214.692 287.247 443.521 516.308> 600 50<99.3112 216.617 522.404 669.264>
VStem: 325 80<52.5 440.676>
AnchorPoint: "top_accent" 365 704 basechar 0
AnchorPoint: "grk_uc_top" -65 653 basechar 0
LayerCount: 2
Fore
SplineSet
592 650 m 0
 653 650 690 616 717 589 c 0
 720.535 585.465 728 577 728 573 c 0
 728 569 721.91 564.935 719 567 c 0
 688 589 646 600 605 600 c 0
 516 600 455.44 536.633 425 453 c 0
 408.583 407.895 405 326 405 288 c 0
 405 241 405 163 405 108 c 0
 405 63 434 33 484 24 c 0
 507 20 517 15 517 6 c 0
 517 -2 505 -5 488 -5 c 0
 434 -5 416.672 0 371 0 c 24
 321.042 0 297 -5 243 -5 c 0
 226 -5 214 -2 214 6 c 0
 214 15 224 20 247 24 c 0
 297 33 325 60 325 108 c 0
 325 187 325 237 325 287 c 0
 325 327 321.889 391.86 300 452 c 0
 272.296 528.115 231 600 150 600 c 0
 101 600 55 573 30 549 c 0
 26.97 546.091 19.6777 548.812 20 553 c 16
 20 553 19.1445 559.679 32 575 c 0
 45.4082 590.979 106.651 650 170 650 c 0
 320 650 361 452 365 452 c 0
 369 452 442 650 592 650 c 0
EndSplineSet
Validated: 1
EndChar
StartChar: Omega
Encoding: 937 937 1104
Width: 830
VWidth: 0
Flags: W
HStem: 0 70<96.3941 277.203 548.505 733.389> 631 33<338.763 476.425>
VStem: 100 100<237.042 456.014> 630 100<254.581 452.44>
AnchorPoint: "below_accent" 415 -100 basechar 0
AnchorPoint: "top_accent" 414 700 basechar 0
AnchorPoint: "grk_uc_top" 79 650 basechar 0
LayerCount: 2
Fore
SplineSet
277 80.8918 m 4
 173.292 128.154 98.8273 227.185 100 347 c 12
 101.722 522.938 245.055 664 421 664 c 20
 583.21 664 731.649 530.499 730 362 c 20
 728.816 241.004 655.523 136.79 555 85.3498 c 4
 550.549 83.0721 542.06 74.7736 547 74 c 4
 579 68.989 618 70 642.889 70 c 4
 691.055 70 730 76 751 113 c 4
 760.075 128.989 769 143 781.889 143 c 4
 787.842 143 792.229 136.672 789.889 130 c 4
 772 79 754 37 748.889 12 c 4
 747.097 3.2373 744.889 -5 734.889 -5 c 4
 704.999 -5 683.048 -0.302734 655 0 c 4
 544.714 1.19043 564.542 0 480 0 c 4
 473 0 471.304 6.04883 472 11 c 4
 475.062 32.7861 475.381 34.0918 481 48 c 4
 485.121 58.1992 498.758 74.0173 502.771 77 c 4
 566 124 630 226.92 630 332 c 4
 630 468.83 544.83 631 408 631 c 12
 279.964 631 200 496.51 200 377 c 4
 200 252.418 246 135 333.137 71 c 4
 337.166 68.0402 344.697 58.1699 348.889 48 c 4
 354.604 34.1318 354.827 32.7861 357.889 11 c 4
 358.585 6.04883 356.889 0 349.889 0 c 4
 265.347 0 285.175 1.19043 174.889 0 c 4
 146.841 -0.302734 124.89 -5 95 -5 c 4
 85 -5 82.792 3.2373 81 12 c 4
 75.8887 37 57.8887 79 40 130 c 4
 37.6602 136.672 42.0469 143 48 143 c 4
 60.8887 143 69.8135 128.989 78.8887 113 c 4
 99.8887 76 138 70 187 70 c 4
 206 70 239.115 69.4357 266 71.9297 c 4
 271.974 72.4839 281.55 78.8184 277 80.8918 c 4
EndSplineSet
Validated: 33
EndChar
StartChar: Iotadieresis
Encoding: 938 938 645
Width: 340
VWidth: 0
Flags: W
HStem: -5 29<19.6924 97.1038 243.602 321.308> 622 31<31.0745 107.441 235.205 312.926> 724 110<42.802 129.108 232.802 319.108>
VStem: 30.955 110<735.847 822.153> 130 80<46.75 604.158> 220.955 110<735.847 822.153>
LayerCount: 2
Fore
SplineSet
275.955 834 m 24xe4
 305.955 834 330.955 809 330.955 779 c 24
 330.955 749 305.955 724 275.955 724 c 24
 245.955 724 220.955 749 220.955 779 c 24
 220.955 809 245.955 834 275.955 834 c 24xe4
85.9551 834 m 24
 115.955 834 140.955 809 140.955 779 c 24
 140.955 749 115.955 724 85.9551 724 c 24
 55.9551 724 30.9551 749 30.9551 779 c 24
 30.9551 809 55.9551 834 85.9551 834 c 24
EndSplineSet
Refer: 636 921 N 1 0 0 1 0 0 3
Validated: 1
EndChar
StartChar: delta
Encoding: 948 948 1256
Width: 538
Flags: W
HStem: 0 40<99.0059 398.998> 443 20G<273 280.5>
VStem: 40 59<10 54.9697> 399 94<13 75.9377>
LayerCount: 2
Fore
SplineSet
157 0 m 2
 122 0 110 -3 71 -3 c 0
 64 -3 40 6 40 14 c 0
 40 25 50.6885 39.9785 78 92 c 2
 225 372 l 2
 235.691 392.364 234.844 413.475 238 416 c 0
 243 420 257 440 264 454 c 0
 266.236 458.472 269 463 277 463 c 0
 284 463 309.393 414.763 312 409 c 2
 457 107 l 2
 483.099 52.6436 493 27 493 17 c 0
 493 9 478 -3 471 -3 c 0
 432 -3 401 0 366 0 c 2
 157 0 l 2
367 40 m 2
 396 40 399 45 399 50 c 0
 399 59 390.831 73.5312 384 88 c 2
 265.5 339 l 2
 261.277 348.063 252.461 352.687 247 342 c 2
 113 80 l 10
 106.797 67.8721 99 56 99 48 c 0
 99 43 107 40 128 40 c 2
 367 40 l 2
EndSplineSet
Validated: 1
EndChar
StartChar: lambda
Encoding: 955 955 1255
Width: 549
Flags: W
HStem: -3 30<10.4417 77.3409 154.478 206.558 308.442 366.254 478.292 530.558> 443 20G<295.5 299>
VStem: 10 137<5 73> 370 161<5 64.5>
LayerCount: 2
Fore
SplineSet
167 127 m 28
 157.481 103.44 147 81 147 65 c 0
 147 39 164 33 184 27 c 0
 195 23 207 19 207 9 c 0
 207 1 194 -3 187 -3 c 0
 148 -3 141 2 106 2 c 0
 71 2 69 -3 30 -3 c 0
 23 -3 10 1 10 9 c 0
 10 19 21.5811 23.4297 33 26 c 0
 64.0996 33 89.8147 36.1235 114 92 c 2
 230 360 l 2
 244.304 393.046 239.126 407.158 242 410 c 0
 251.1 419 275 444 281 451 c 0
 289 460 294 463 297 463 c 0
 301 463 301.708 459.892 304 454 c 2
 439 107 l 2
 452.415 72.5176 468.1 35 508 27 c 0
 519.477 24.6992 531 19 531 9 c 0
 531 1 518 -3 511 -3 c 0
 472 -3 458 2 423 2 c 0
 388 2 367 -3 328 -3 c 0
 321 -3 308 1 308 9 c 0
 308 19 319.668 24.0898 331 27 c 0
 359.089 34.2119 370 36 370 58 c 0
 370 71 358.051 103.617 348 132 c 24
 319.493 212.502 282 306 271 337 c 0
 265 352 263 352 257 337 c 0
 240 295 200.377 209.612 167 127 c 28
EndSplineSet
Validated: 1
EndChar

StartChar: pi
Encoding: 960 960 1265
Width: 660
Flags: W
HStem: -3 28<40.2309 106.602 228.398 294.769 365.231 431.602 553.398 619.769> 422 28<49.1865 107.672 208.14 450.582 553.498 610.813>
VStem: 130 75<40.3738 407.322> 455 75<40.3742 407.059>
LayerCount: 2
Fore
SplineSet
220 422 m 2
 205 422 205 391.997 205 352 c 2
 205 79 l 2
 205 43 236 32 271 25 c 0
 282 23 295 19 295 9 c 0
 295 1 282 -3 275 -3 c 0
 236 -3 209.796 3 168 3 c 0
 125.815 3 99 -3 60 -3 c 0
 53 -3 40 1 40 9 c 0
 40 19 53 23 64 25 c 0
 99 32 130 43 130 79 c 2
 130 352 l 2
 130 392 114 415 72 422 c 0
 60 424 48 431 48 441 c 0
 48 449 61 453 68 453 c 0
 107 453 132 450 168 450 c 2
 493 450 l 2
 528 450 553 453 592 453 c 0
 599 453 612 449 612 441 c 0
 612 431 600 424 588 422 c 0
 546 415 530 391 530 352 c 2
 530 79 l 2
 530 43 561 32 596 25 c 0
 607 23 620 19 620 9 c 0
 620 1 607 -3 600 -3 c 0
 561 -3 534.796 3 493 3 c 0
 450.815 3 424 -3 385 -3 c 0
 378 -3 365 1 365 9 c 0
 365 19 378 23 389 25 c 0
 424 32 455 43.001 455 79 c 2
 455 352 l 2
 455 391 453 422 438 422 c 2
 220 422 l 2
EndSplineSet
Validated: 1
EndChar
StartChar: uni03D4
Encoding: 980 980 651
Width: 739
VWidth: 0
Flags: W
HStem: -5 29<214.692 287.247 443.521 516.308> 600 50<99.3112 216.617 522.404 669.264> 692 110<253.518 339.824 443.518 529.824>
VStem: 241.671 110<703.847 790.153> 325 80<52.5 440.676> 431.671 110<703.847 790.153>
LayerCount: 2
Fore
SplineSet
486.671 802 m 24xe4
 516.671 802 541.671 777 541.671 747 c 24
 541.671 717 516.671 692 486.671 692 c 24
 456.671 692 431.671 717 431.671 747 c 24
 431.671 777 456.671 802 486.671 802 c 24xe4
296.671 802 m 24
 326.671 802 351.671 777 351.671 747 c 24
 351.671 717 326.671 692 296.671 692 c 24
 266.671 692 241.671 717 241.671 747 c 24
 241.671 777 266.671 802 296.671 802 c 24
EndSplineSet
Refer: 650 978 N 1 0 0 1 0 0 3
Validated: 1
EndChar
StartChar: uni0401
Encoding: 1025 1025 961
Width: 535
VWidth: 0
Flags: W
HStem: -5 29<23.6924 99.9253> -5 40<221.438 455.39> 320 32<211.086 367.094> 388 20<400.5 405.5> 618 35<32.1729 114.247 215.59 433.859> 701 100<145.438 228.562 340.438 423.562>
VStem: 130 80<44.9696 319.486 352 605.889> 137 100<709.438 792.562> 332 100<709.438 792.562> 383 32<253.771 304.565> 466 25<526.084 573.315>
LayerCount: 2
Fore
SplineSet
382 801 m 28x3ca0
 410 801 432 779 432 751 c 28
 432 723 410 701 382 701 c 28
 354 701 332 723 332 751 c 28
 332 779 354 801 382 801 c 28x3ca0
187 801 m 28
 215 801 237 779 237 751 c 28
 237 723 215 701 187 701 c 28
 159 701 137 723 137 751 c 28x3d20
 137 779 159 801 187 801 c 28
EndSplineSet
Refer: 659 1045 N 1 0 0 1 0 0 3
Validated: 1
EndChar
StartChar: uni0402
Encoding: 1026 1026 1125
Width: 670
VWidth: 0
Flags: W
HStem: -218 41<383.768 475.482> -5 29<144.692 220.247 369.934 446.308> 363 33<377.977 521.357> 604 38<94.5115 250.507 336.966 563.228>
VStem: 254 80<48.5 340.716 368.007 600.363> 578 34<527.834 587.104> 589 94<25.3204 268.922>
LayerCount: 2
Fore
SplineSet
334 103 m 2xfa
 334 54 364 33 414 24 c 0
 437 20 447 15 447 6 c 0
 447 -2 435 -5 418 -5 c 0
 364 -5 347 0 301 0 c 24
 251 0 227 -5 173 -5 c 0
 156 -5 144 -2 144 6 c 0
 144 15 154 20 177 24 c 0
 227 33 254 54 254 103 c 2
 254 557 l 2
 254 575 252 597 236 600 c 0
 217 604 211 604 186 604 c 2
 145 604 l 2
 113 604 77 591 63 565 c 0
 57 554 37 527 22 527 c 0
 17 527 15 533 15 540 c 0
 15 546 17 554 20 560 c 0
 38 598 45 629 51 671 c 0
 54 693 63 694 68 694 c 0
 73 694 87 673 93 662 c 0
 101 648 135 643 163 642 c 16
 220 640 266 639 311 639 c 0
 375 639 435 641 516 645 c 8
 545 647 579 650 589 664 c 0xfa
 600 679 609 686 616 686 c 0
 621 686 630 679 628 669 c 0
 620 632 612 591 612 557 c 2
 612 552 l 2
 612 542 608 527 599 527 c 0
 585 527 582 549 578 558 c 0xfc
 569 577 566 604 502 604 c 0
 450 604 368 602 350 600 c 0
 336 598 334 575 334 557 c 2
 334 409 l 2
 334 378 335 368 346 368 c 0
 347 368 352 368 354 369 c 0
 380 383 420 396 471 396 c 0
 592 396 683 315 683 146 c 0
 683 -36 544 -180 470 -205 c 0
 441 -215 419 -218 403 -218 c 0
 380 -218 370 -211 370 -205 c 0
 370 -198 403 -195 443 -177 c 0
 568 -121 589 50 589 136 c 0
 589 298 550 363 456 363 c 0
 406 363 355 347 346 341 c 0
 337 335 334 325 334 313 c 2
 334 103 l 2xfa
EndSplineSet
Validated: 1
EndChar
StartChar: uni0403
Encoding: 1027 1027 1110
Width: 516
VWidth: 0
Flags: W
HStem: -5 29<19.6924 97.1038 243.602 321.308> 611 39<217.07 460.753> 622 31<31.0745 107.441>
VStem: 130 80<46.75 605.956> 492 25<519.16 567.023>
LayerCount: 2
Fore
SplineSet
255 698 m 4x98
 251 698 249 701 249 704 c 4
 249 708 251 714 254 719 c 4
 278 759 304 799 331 838 c 4
 338 848 347 851 358 851 c 4
 372 851 416 842 416 828 c 4
 416 821 412 817 403 809 c 4
 363 775 313 737 273 707 c 4
 264 700 258 698 255 698 c 4x98
EndSplineSet
Refer: 1069 1043 N 1 0 0 1 0 0 3
Validated: 1
EndChar
StartChar: uni0409
Encoding: 1033 1033 1120
Width: 968
VWidth: 0
Flags: W
HStem: -14 88<57.4442 156.671> -4 34<428.723 508.11 638.292 751.077> 332 44<609.878 773.888> 608 41<312.712 524.88> 622 31<167.074 240.795 627.745 692.926>
VStem: 265 45<356.751 605.57> 528 80<56.5698 323.697 365.245 606.36> 843 90<113.208 267.045>
LayerCount: 2
Fore
SplineSet
608 303 m 2x67
 608 108 l 2
 608 90 615 68 627 56 c 0
 638 45 662 30 687 30 c 0
 765 30 843 103 843 189 c 0
 843 266 796 299 769 314 c 0
 751 324 725 332 675 332 c 0
 668 332 608 328 608 303 c 2x67
665 653 m 0x2f
 682 653 694 650 694 642 c 0
 694 633 684 626 661 622 c 0x2f
 611 613 608 574 608 557 c 2
 608 408 l 2
 608 376 610 360 616 362 c 0
 645 370 683 376 734 376 c 0
 855 376 933 310 933 194 c 0
 933 112 881 54 833 30 c 0
 791 9 739 -4 673 -4 c 0
 668 -4 603 1 561 1 c 8
 520 1 509 -5 455 -5 c 0
 438 -5 426 -2 426 6 c 0
 426 15 436 20 459 24 c 0
 501 32 528 54 528 97 c 2
 528 557 l 2
 528 586 524 608 499 608 c 2
 331 608 l 2x77
 317 608 310 588 310 566 c 0
 310 53 152 -14 93 -14 c 0
 46 -14 22 11 22 44 c 0
 22 71 39 99 62 99 c 0
 98 99 89 74 129 74 c 0
 196 74 265 192 265 557 c 0
 265 601 235 616 199 622 c 16
 176 626 166 633 166 642 c 0
 166 650 178 653 195 653 c 0xaf
 249 653 393 649 467 649 c 0x37
 540 649 611 653 665 653 c 0x2f
EndSplineSet
Validated: 33
EndChar

StartChar: uni040B
Encoding: 1035 1035 1124
Width: 791
VWidth: 0
Flags: W
HStem: -5 29<144.692 220.247 353.945 424.308 488.692 559.328 679.945 750.308> 363 33<376.544 514.446> 604 38<94.5115 250.507 336.75 563.228>
VStem: 254 80<47.3427 340.722 362.003 600.363> 578 34<527.664 587.104> 580 80<37.3359 292.252>
LayerCount: 2
Fore
SplineSet
660 104 m 2xf4
 660 54 668 33 718 24 c 0
 741 20 751 15 751 6 c 0
 751 -2 739 -5 722 -5 c 0
 668 -5 661 0 622 0 c 24
 581 0 571 -5 517 -5 c 0
 500 -5 488 -2 488 6 c 0
 488 15 498 20 521 24 c 0
 571 33 580 54 580 104 c 2
 580 189 l 2xf4
 580 266 550 363 456 363 c 0
 406 363 355 347 346 341 c 0
 337 335 334 333 334 321 c 2
 334 103 l 2
 334 54 342 33 392 24 c 0
 415 20 425 15 425 6 c 0
 425 -2 413 -5 396 -5 c 0
 342 -5 335 0 296 0 c 24
 248 0 227 -5 173 -5 c 0
 156 -5 144 -2 144 6 c 0
 144 15 154 20 177 24 c 0
 227 33 254 54 254 103 c 2
 254 557 l 2
 254 575 252 597 236 600 c 0
 217 604 211 604 186 604 c 2
 145 604 l 2
 113 604 77 591 63 565 c 0
 57 554 37 527 22 527 c 0
 17 527 15 533 15 540 c 0
 15 546 17 554 20 560 c 0
 38 598 45 629 51 671 c 0
 54 693 63 694 68 694 c 0
 73 694 87 673 93 662 c 0
 101 648 135 643 163 642 c 16
 220 640 266 639 311 639 c 0
 375 639 435 641 516 645 c 8
 545 646 579 650 589 664 c 0
 600 679 609 686 616 686 c 0
 621 686 630 679 628 669 c 0
 620 632 612 591 612 557 c 2
 612 552 l 2
 612 542 608 527 599 527 c 2
 597 527 l 1
 585 529 582 549 578 558 c 0xf8
 569 577 566 604 502 604 c 0
 450 604 368 602 350 600 c 0
 336 598 334 577 334 557 c 2
 334 380 l 2
 334 366 335 362 339 362 c 0
 342 362 347 365 354 369 c 0
 381 384 420 396 471 396 c 0
 592 396 660 310 660 194 c 2
 660 104 l 2xf4
EndSplineSet
Validated: 1
EndChar

StartChar: uni040E
Encoding: 1038 1038 1128
Width: 637
VWidth: 0
Flags: W
HStem: -40 88<153.217 242.684> 620 33<-4.57331 63.3777 184.2 247.781 405.06 470.6 564.916 631.313> 692 39<271.493 393.164>
VStem: -6 184<575.5 646> 182 82<740.421 831.244> 446.8 20.2002<807.708 845.443>
LayerCount: 2
Fore
SplineSet
182 795 m 4
 182 825 205 857 232 857 c 4
 252 857 280 846 280 819 c 4
 280 800 264 783 264 767 c 4
 264 749 285 731 326 731 c 4
 399.644 731 430.8 778.5 446.8 834.092 c 4
 449.178 842.355 456.605 846 459 846 c 4
 465 846 467 836 467 829 c 12
 467 751.484 403 692 323 692 c 12
 254.9 692 182 732 182 795 c 4
EndSplineSet
Refer: 1127 1059 N 1 0 0 1 0 0 3
Validated: 1
EndChar
StartChar: uni0414
Encoding: 1044 1044 1118
Width: 700
VWidth: 0
Flags: W
HStem: 0 40<167.698 495.073> 608 41<294.496 491.437> 622 31<151.074 226.426 603.85 682.926>
VStem: 47 47<-205.591 -30.343> 247 45<359.781 606.678> 496 80<49.4781 601.907> 630 47<-204.591 -29.0144>
LayerCount: 2
Fore
SplineSet
576 550 m 2xbe
 576 72 l 2
 576 39 657 41 685 40 c 0
 696 40 696 30 696 22 c 16
 696 -3 681 -80 677 -174 c 0
 676 -190 667 -205 651 -205 c 8
 632 -205 630 -182 630 -162 c 0
 630 -40 614 0 540 0 c 2
 184 0 l 2
 110 0 94 -41 94 -163 c 0
 94 -183 92 -206 73 -206 c 16
 57 -206 48 -191 47 -175 c 0
 43 -80 26 -31 26 23 c 0
 26 31 31 40 41 40 c 0
 153 40 247 182 247 557 c 0
 247 595 233 613 183 622 c 0
 160 626 150 633 150 642 c 0
 150 650 162 653 179 653 c 0xbe
 199 653 237 649 274 649 c 16xde
 368 649 449 649 542 650 c 8
 586 650 601 653 655 653 c 4
 672 653 684 650 684 642 c 4
 684 633 674 626 651 622 c 4
 601 613 576 596 576 550 c 2xbe
171 58 m 0
 168 55 166 51 166 49 c 0
 166 42 180 40 200 40 c 2
 461 40 l 2
 491 40 496 50 496 72 c 2
 496 552 l 2
 496 586 489 608 464 608 c 2
 321 608 l 2xde
 300 608 292 596 292 564 c 0
 292 246 238 122 171 58 c 0
EndSplineSet
Validated: 1
EndChar
StartChar: uni0416
Encoding: 1046 1046 1137
Width: 958
VWidth: 0
Flags: W
HStem: -18 43<-5.37387 88.3016 869.698 963.374> 0 25<-13.974 27.6007 330.44 404.52 554.207 628.56 930.399 971.974> 327 32<345.651 438.98 519.028 612.349> 582 82<69.7738 170.899 787.101 888.226> 622 31<340.074 420.016 540.357 621.926>
VStem: 439 80<46.875 326.992 359.002 606.599>
LayerCount: 2
Fore
SplineSet
439 310 m 2x64
 439.085 315.999 436.692 327 429 327 c 16
 405 327 388 327 368 323 c 0
 341 318 308 283 285 232 c 0
 265 187 242 137 223 93 c 0
 176 -13 125 -18 77 -18 c 0xa4
 43 -18 7 -9 -6 0 c 0x64
 -10 3 -14 8 -14 13 c 0
 -14 19 -9 25 -3 25 c 0
 44 26 76 30 95 51 c 0
 156 117 209 277 243 315 c 0
 265 339 288 344 301 349 c 0
 308 351 312 354 300 359 c 0
 244 383 217 470 190 533 c 0
 170 580 156 582 138 582 c 0
 122 582 103 567 84 567 c 0
 57 567 46 594 46 614 c 0
 46 641 64 664 107 664 c 0xb4
 173 664 201 614 222 566 c 0
 257 487 290 385 358 364 c 0
 373 359 403 359 432 359 c 8
 439.532 359 439.251 362.002 439 377 c 2
 439 556 l 2
 439 603 422 613 372 622 c 0
 349 626 339 633 339 642 c 0
 339 650 351 653 368 653 c 0
 422 653 439.355 650 485 650 c 24
 527.526 650 540 653 594 653 c 0
 611 653 623 650 623 642 c 0
 623 633 613 626 590 622 c 0x2c
 540 613 519 603 519 556 c 2
 519 377 l 2
 519 362 518.468 359 526 359 c 16
 555 359 585 359 600 364 c 0
 668 385 701 487 736 566 c 0
 757 614 785 664 851 664 c 0
 894 664 912 641 912 614 c 0
 912 594 901 567 874 567 c 0
 855 567 836 582 820 582 c 0
 802 582 788 580 768 533 c 0
 741 470 714 383 658 359 c 0
 646 354 650 351 657 349 c 0
 670 344 693 339 715 315 c 0
 749 277 802 117 863 51 c 0
 882 30 914 26 961 25 c 0xb4
 967 25 972 19 972 13 c 0
 972 8 968 3 964 0 c 0x64
 951 -9 915 -18 881 -18 c 0xa4
 833 -18 782 -13 735 93 c 0
 716 137 693 187 673 232 c 0
 650 283 617 318 590 323 c 0
 570 327 553 327 529 327 c 8
 521.308 327 519 316 519 310 c 2
 519 99 l 2
 519 51 548 33 598 24 c 0
 621 20 631 15 631 6 c 0
 631 -2 619 -5 602 -5 c 0
 548 -5 530.672 0 485 0 c 24
 435.042 0 411 -5 357 -5 c 0
 340 -5 328 -2 328 6 c 0
 328 15 338 20 361 24 c 0
 411 33 439 50.999 439 99 c 2
 439 310 l 2x64
EndSplineSet
Validated: 1
EndChar
StartChar: uni0417
Encoding: 1047 1047 1121
Width: 510
VWidth: 0
Flags: W
HStem: -14 31<161.691 282.093> 332 46<136.307 250.157> 339 33<178.812 297.64> 633 31<161.83 277.047>
VStem: 35 44<88.668 172.905> 334 94<425.764 585.295> 370 98<105.825 280.916>
LayerCount: 2
Fore
SplineSet
251 339 m 0xba
 233 339 216 332 177 332 c 0
 163 332 136 334 136 353 c 0
 136 370 162 378 175 378 c 0xda
 215 378 214 372 256 372 c 0
 313 372 334 437 334 495 c 0
 334 552 318 632 215 633 c 1
 213 633 l 2
 159 633 118 596 94 505 c 0
 91 490 73 480 68 480 c 0
 63 480 58 496 58 505 c 0
 58 540 62 563 68 597 c 0
 70 607 72 615 81 617 c 0
 125 628 171 664 232 664 c 0
 332 664 428 617 428 508 c 0xbc
 428 463 411 427 396 412 c 0
 375 392 362 382 329 369 c 0
 324 367 323 361 329 359 c 0
 389 340 468 310 468 194 c 0
 467 42 322 -14 201 -14 c 0
 147 -14 112 0 80 15 c 0
 67 21 49 34 46 52 c 0
 42 80 35 123 35 159 c 0
 35 167 45 174 55 174 c 0
 59 174 67 159 79 130 c 0
 107 60 162 17 217 17 c 2
 218 17 l 1
 323 18 370 103 370 189 c 0
 370 266 333 339 251 339 c 0xba
EndSplineSet
Validated: 1
EndChar
StartChar: uni0418
Encoding: 1048 1048 1108
Width: 803
VWidth: 0
Flags: W
HStem: -5 29<37.6924 109.801 239.608 321.308 516.692 591.234 715.083 786.308> 622 31<45.0745 116.701 235.842 309.926 519.074 592.942 713.673 783.926>
VStem: 130 80<42.739 115.781 169.685 603.314> 616 81<40.3385 484.994 533.234 605.916>
AnchorPoint: "top_accent" 418 700 basechar 0
LayerCount: 2
Fore
SplineSet
210 551 m 2
 210 181 l 2
 210 167 213.898 163.104 221 170 c 2
 601 539 l 2
 611.213 548.783 616 557 616 562 c 0
 616 596 594 614 551 622 c 0
 528 626 518 633 518 642 c 0
 518 650 530 653 547 653 c 0
 601 653 617.745 650 663 650 c 24
 699.289 650 702 653 756 653 c 0
 773 653 785 650 785 642 c 0
 785 633 775 626 752 622 c 0
 702 613 697 590 697 552 c 2
 697 100 l 2
 697 51 704 33 754 24 c 0
 777 20 787 15 787 6 c 0
 787 -2 775 -5 758 -5 c 0
 704 -5 693.386 0 652 0 c 24
 610.225 0 599 -5 545 -5 c 0
 528 -5 516 -2 516 6 c 0
 516 15 526 20 549 24 c 0
 591 32 616 46 616 85 c 2
 616 434 l 2
 616 477 616 485 612 485 c 0
 611 485 608.039 482.961 606 481 c 2
 218 104 l 2
 209.885 96.1143 211 97 211 85 c 0
 211 43 243 32 289 24 c 0
 312 20 322 15 322 6 c 0
 322 -2 310 -5 293 -5 c 0
 239 -5 221.672 0 176 0 c 24
 133.056 0 120 -5 66 -5 c 0
 49 -5 37 -2 37 6 c 0
 37 15 47 20 70 24 c 0
 120 33 130 51 130 99 c 2
 130 551 l 2
 130 597 127 613 77 622 c 0
 54 626 44 633 44 642 c 0
 44 650 56 653 73 653 c 0
 127 653 135.812 650 176 650 c 24
 217.356 650 228 653 282 653 c 0
 299 653 311 650 311 642 c 0
 311 633 301 626 278 622 c 0
 228 613 210 590 210 551 c 2
EndSplineSet
Validated: 1
EndChar

StartChar: uni0419
Encoding: 1049 1049 1109
Width: 803
VWidth: 0
Flags: W
HStem: -5 29<37.6924 109.801 239.608 321.308 516.692 591.234 715.083 786.308> 622 31<45.0745 116.701 235.842 309.926 519.074 592.942 713.673 783.926> 692 39<369.493 491.164>
VStem: 130 80<42.739 115.781 169.685 603.314> 280 82<740.421 831.244> 544.8 20.2002<807.708 845.443> 616 81<40.3385 484.994 533.234 605.916>
LayerCount: 2
Fore
SplineSet
280 795 m 4
 280 825 303 857 330 857 c 4
 350 857 378 846 378 819 c 4
 378 800 362 783 362 767 c 4
 362 749 383 731 424 731 c 4
 497.644 731 528.8 778.5 544.8 834.092 c 4
 547.178 842.355 554.605 846 557 846 c 4
 563 846 565 836 565 829 c 12
 565 751.484 501 692 421 692 c 12
 352.9 692 280 732 280 795 c 4
EndSplineSet
Refer: 1108 1048 N 1 0 0 1 0 0 3
Validated: 1
EndChar
StartChar: uni041A
Encoding: 1050 1050 660
Width: 646
VWidth: 0
Flags: W
HStem: -18 43<560.698 654.374> -5 29<31.6924 105.863 243.351 312.308 573.595 662.312> 327 32<211.034 303.349> 582 82<478.101 579.226> 622 31<32.0745 108.441 226.967 296.926>
VStem: 131 80<47.5377 326.991 359.003 605.863>
AnchorPoint: "below_accent" 355 -100 basechar 0
AnchorPoint: "top_accent" 363 700 basechar 0
LayerCount: 2
Fore
SplineSet
220 327 m 0xb4
 211 327 211 314 211 308 c 2
 211 110 l 2
 211 67 230 33 280 24 c 0
 303 20 313 15 313 6 c 0
 313 -2 301 -5 284 -5 c 0
 230 -5 224 2 186 2 c 0
 137 2 114 -5 60 -5 c 0
 43 -5 31 -2 31 6 c 0
 31 15 41 20 64 24 c 0
 114 33 131 51 131 101 c 2
 131 551 l 2
 131 597 114 613 64 622 c 0
 41 626 31 633 31 642 c 0
 31 650 43 653 60 653 c 0
 114 653 131 650 177 650 c 0
 213 650 215 653 269 653 c 0
 286 653 298 650 298 642 c 0
 298 633 288 626 265 622 c 0x6c
 215 613 211 590 211 551 c 2
 211 378 l 2
 211 363 212 359 217 359 c 0
 242 359 276 359 291 364 c 0
 359 385 392 487 427 566 c 0
 448 614 476 664 542 664 c 0
 585 664 603 641 603 614 c 0
 603 594 592 567 565 567 c 0
 546 567 527 582 511 582 c 0
 493 582 479 580 459 533 c 0
 432 470 405 383 349 359 c 0
 337 354 341 351 348 349 c 0
 361 344 384 339 406 315 c 0
 440 277 493 117 554 51 c 0
 573 30 605 26 652 25 c 0
 658 25 663 19 663 13 c 0
 663 8 659 3 655 0 c 0
 642 -9 606 -18 572 -18 c 0
 524 -18 473 -13 426 93 c 0
 407 137 384 187 364 232 c 0
 341 283 308 318 281 323 c 0
 261 327 239 327 220 327 c 0xb4
EndSplineSet
Validated: 1
EndChar
StartChar: uni041F
Encoding: 1055 1055 1067
Width: 842
VWidth: 0
Flags: W
HStem: -5 29<19.6924 97.1038 246.847 321.308 483.692 557.648 707.602 785.308> 611 37<210 593> 622 31<31.0745 107.441 699.205 776.926>
VStem: 130 80<49.125 605.956> 593 81<47.9769 604.158>
LayerCount: 2
Fore
SplineSet
593 99 m 2xb8
 593 601 l 2
 593 608 589 608 585 608 c 16
 502 609 449 611 384 611 c 0xd8
 332 611 282 610 215 608 c 8
 210 608 210 605 210 597 c 2
 210 99 l 2
 210 57 239 33 289 24 c 0
 312 20 322 15 322 6 c 0
 322 -2 310 -5 293 -5 c 0
 239 -5 222 0 176 0 c 24
 126 0 102 -5 48 -5 c 0
 31 -5 19 -2 19 6 c 0
 19 15 29 20 52 24 c 0
 102 33 130 51 130 98 c 2
 130 550 l 2
 130 597 113 613 63 622 c 0
 40 626 30 633 30 642 c 0
 30 650 42 653 59 653 c 0xb8
 113 653 124 649 165 649 c 16
 259 649 328 648 402 648 c 0xd8
 475 648 547 649 640 650 c 8
 683 650 695 653 749 653 c 0
 766 653 778 650 778 642 c 0
 778 633 768 626 745 622 c 0
 695 613 674 597 674 550 c 2
 674 98 l 2
 674 51 703 33 753 24 c 0
 776 20 786 15 786 6 c 0
 786 -2 774 -5 757 -5 c 0
 703 -5 686 0 640 0 c 24
 590 0 566 -5 512 -5 c 0
 495 -5 483 -2 483 6 c 0
 483 15 493 20 516 24 c 0
 566 33 593 57 593 99 c 2xb8
EndSplineSet
Validated: 1
EndChar

StartChar: uni0426
Encoding: 1062 1062 1113
Width: 777
VWidth: 0
Flags: W
HStem: -5 29<19.6924 97.1038> 0 41<222.772 550.163> 622 31<31.0745 107.441 235.205 312.926 468.074 544.441 672.205 749.926>
VStem: 130 80<52.4981 604.158> 567 80<56.993 604.074> 680 47<-204.591 -13.5236>
LayerCount: 2
Fore
SplineSet
738 41 m 0x7c
 749 41 752 33 752 25 c 16
 752 0 731 -80 727 -174 c 0
 726 -190 717 -205 701 -205 c 8
 682 -205 680 -182 680 -162 c 0
 681 -139 681 -119 681 -102 c 0
 681 -19 663 0 606 0 c 2
 176 0 l 10x7c
 126 0 102 -5 48 -5 c 0
 31 -5 19 -2 19 6 c 0
 19 15 29 20 52 24 c 0xbc
 102 33 130 51 130 98 c 2
 130 550 l 2
 130 597 113 613 63 622 c 0
 40 626 30 633 30 642 c 0
 30 650 42 653 59 653 c 0
 113 653 130 650 176 650 c 24
 219 650 231 653 285 653 c 0
 302 653 314 650 314 642 c 0
 314 633 304 626 281 622 c 0
 231 613 210 597 210 550 c 2
 210 98 l 2
 210 67 233 41 264 41 c 2
 509 41 l 2
 544 41 567 77 567 106 c 2
 567 549 l 2
 567 597 550 613 500 622 c 0
 477 626 467 633 467 642 c 0
 467 650 479 653 496 653 c 0
 550 653 567 650 613 650 c 24
 656 650 668 653 722 653 c 0
 739 653 751 650 751 642 c 0
 751 633 741 626 718 622 c 0
 668 613 647 597 647 549 c 2
 647 92 l 2
 647 48 710 42 738 41 c 0x7c
EndSplineSet
Validated: 1
EndChar

StartChar: uni0428
Encoding: 1064 1064 1114
Width: 1034
VWidth: 0
Flags: W
HStem: -5 29<19.6924 97.1038 937.602 1015.31> 0 41<223.912 466.883 567.223 807.163> 622 31<32.0745 108.103 236.543 313.926 379.074 455.441 583.205 660.926 725.074 801.441 929.205 1006.93>
VStem: 130 82<51.8818 604.995> 478 80<52.0151 604.481> 824 80<56.993 604.074>
LayerCount: 2
Fore
SplineSet
558 550 m 2x7c
 558 92 l 2
 558 74 564 41 620 41 c 2
 766 41 l 2x7c
 801 41 824 77 824 106 c 2
 824 549 l 2
 824 597 807 613 757 622 c 0
 734 626 724 633 724 642 c 0
 724 650 736 653 753 653 c 0
 807 653 824 650 870 650 c 24
 913 650 925 653 979 653 c 0
 996 653 1008 650 1008 642 c 0
 1008 633 998 626 975 622 c 0
 925 613 904 597 904 550 c 2
 904 98 l 2
 904 51 933 33 983 24 c 0
 1006 20 1016 15 1016 6 c 0
 1016 -2 1004 -5 987 -5 c 0xbc
 933 -5 916 0 870 0 c 16
 735 0 628 1 522 1 c 0
 416 1 310 1 176 0 c 8x7c
 126 0 102 -5 48 -5 c 0
 31 -5 19 -2 19 6 c 0
 19 15 29 20 52 24 c 0xbc
 102 33 130 50 130 97 c 2
 130 549 l 2
 130 597 114 613 64 622 c 0
 41 626 31 633 31 642 c 0
 31 650 43 653 60 653 c 0
 114 653 131 650 177 650 c 24
 220 650 232 653 286 653 c 0
 303 653 315 650 315 642 c 0
 315 633 305 626 282 622 c 0
 232 613 212 597 212 549 c 2
 212 99 l 2
 212 67 233 41 264 41 c 2
 411 41 l 2
 473 41 478 77 478 106 c 2
 478 548 l 2
 478 597 461 613 411 622 c 0
 388 626 378 633 378 642 c 0
 378 650 390 653 407 653 c 0
 461 653 478 650 524 650 c 24
 567 650 579 653 633 653 c 0
 650 653 662 650 662 642 c 0
 662 633 652 626 629 622 c 0
 579 613 558 598 558 550 c 2x7c
EndSplineSet
Validated: 1
EndChar

StartChar: uni042E
Encoding: 1070 1070 1116
Width: 1015
VWidth: 0
Flags: W
HStem: -14 39<579.988 741.719> -5 29<19.6415 97.1038 243.602 321.398> 300 48<210 338.554> 622 31<31.0745 107.441 235.205 312.926> 625 39<565.097 724.909>
VStem: 130 80<46.75 300.375 347.672 604.158> 337 96<212.387 304 345 443.879> 868 97<210.737 446.405>
LayerCount: 2
Fore
SplineSet
48 -5 m 0x67
 30 -5 19 -2 19 6 c 0
 19 15 29 20 52 24 c 0
 102 33 130 51 130 98 c 2
 130 550 l 2
 130 597 113 613 63 622 c 0
 40 626 30 633 30 642 c 0
 30 650 42 653 59 653 c 0
 113 653 130 650 176 650 c 24
 219 650 231 653 285 653 c 0
 302 653 314 650 314 642 c 0
 314 633 304 626 281 622 c 0x77
 231 613 210 597 210 550 c 2
 210 358 l 2
 210 353 212 348 218 348 c 2
 337 345 l 1
 350 515 478 664 651 664 c 0
 828 664 965 512 965 335 c 0
 965 152 834 -14 651 -14 c 0xaf
 478 -14 346 133 337 304 c 1
 220 300 l 2
 215 300 210 295 210 288 c 2
 210 98 l 2
 210 51 239 33 289 24 c 0
 312 20 322 15 322 6 c 0
 322 -2 309 -5 293 -5 c 0
 239 -5 222 0 176 0 c 24
 126 0 102 -5 48 -5 c 0x67
644 625 m 0xaf
 509 625 433 485 433 350 c 0
 433 194 509 25 664 25 c 0
 799 25 868 170 868 305 c 0
 868 457 796 625 644 625 c 0xaf
EndSplineSet
Validated: 1
EndChar

StartChar: uni0431
Encoding: 1073 1073 1182
Width: 495
VWidth: 0
Flags: W
HStem: -14 30<187.008 293.852> 383 31<169.257 274.395>
VStem: 35 82<101.24 333.214> 351 82<103.748 299.343>
LayerCount: 2
Fore
SplineSet
118 366 m 0
 153 395 189 414 238 414 c 0
 354 414 433 321 433 213 c 0
 433 96 368 -14 218 -14 c 0
 106 -14 35.5 51 35 252 c 0
 34.704 371 53 440 118 533 c 0
 174 611 266 653 316 665 c 0
 380 680 390 686 410 700 c 0
 417 705 420 695 420 690 c 0
 420 653 394 614 372 601 c 0
 343 584 316.539 578.86 242 568 c 0
 166.5 557 108.5 515 108 402 c 0
 107.938 388 108 378 109 367 c 0
 109 362 113 361 118 366 c 0
221 383 m 0
 185 383 164.5 368 146 345 c 0
 129.261 324.19 116.45 273.997 117 226 c 0
 118.5 95 159 16 239 16 c 0
 284 16 313.5 38 333.5 77 c 0
 349.5 108 351 150 351 189 c 0
 351 284 306 383 221 383 c 0
EndSplineSet
Validated: 33
EndChar

StartChar: uni0436
Encoding: 1078 1078 1187
Width: 665
VWidth: 0
Flags: W
HStem: -10 38<-2.30503 81.601 583.522 667.305> -3 27<233.997 290.683 375.328 430.003> 205 22<226.005 299.996 365 437.995> 350 67<41.9154 120.169 544.837 623.146> 378 27<239.997 286.467 377.458 422.003>
VStem: 300 65<30.9006 204.997 227.001 370.861>
LayerCount: 2
Fore
SplineSet
300 234 m 2xb4
 300 328 l 2
 300 359 282 372 262 378 c 0
 251 382 239 386 239 396 c 0
 239 406 257 405 262 405 c 0
 301 405 297 400 332 400 c 0
 367 400 361 405 400 405 c 0
 405 405 423 406 423 396 c 0
 423 386 411 382 400 378 c 0x2c
 380 372 365 358 365 328 c 2
 365 234 l 2
 365 228 371 227 376 227 c 0
 397 227 422 228 438 234 c 0
 487 254 510 341 522 363 c 0
 545 407 572 417 600 417 c 0
 633 417 649 388 649 372 c 0
 649 357 635 325 614 325 c 0
 599 325 593 350 580 350 c 0
 562 350 554 343 543 330 c 0
 531 314 516 237 478 225 c 0
 472 223 474 220 478 220 c 0
 493 219 507 210 516 192 c 0
 529 167 554 94 568 66 c 0
 588 28 624 29 652 28 c 0
 664 28 668 22 668 12 c 0
 668 2 649 -10 601 -10 c 0xb4
 576 -10 542 2 520 36 c 0
 501 64 473 153 460 174 c 0
 451 187 438 197 420 202 c 0
 410 204 395 205 375 205 c 0
 370 205 365 201 365 196 c 2
 365 62 l 2
 365 34 388 30 408 24 c 0
 419 20 431 16 431 6 c 0
 431 -4 413 -3 408 -3 c 0
 369 -3 369 2 334 2 c 0
 299 2 295 -3 256 -3 c 0
 251 -3 233 -4 233 6 c 0
 233 16 245 20 256 24 c 0x64
 276 30 300 31 300 61 c 2
 300 196 l 2
 300.037 201 295 205 290 205 c 0
 270 205 254 204 244 202 c 0
 226 197 213 187 204 174 c 0
 191 153 165 64 146 36 c 0
 124 2 89 -10 64 -10 c 0
 16 -10 -3 2 -3 12 c 0
 -3 22 0 28 12 28 c 0
 40 29 77 28 97 66 c 0
 111 94 135 167 148 192 c 0
 157 210 172 219 187 220 c 0
 191 220 193 223 187 225 c 0
 149 237 134 314 122 330 c 0
 111 343 104 350 86 350 c 0
 73 350 66 325 51 325 c 0
 30 325 16 357 16 372 c 0
 16 388 32 417 65 417 c 0
 93 417 120 407 143 363 c 0
 155 341 177 254 226 234 c 0
 242 228 268 227 289 227 c 0
 294 227 300 229 300 234 c 2xb4
EndSplineSet
Validated: 1
EndChar
StartChar: uni0439
Encoding: 1081 1081 1181
Width: 526
VWidth: 0
Flags: W
HStem: -3 27<26.0556 79.377 171.437 225.944 302.056 354.682 448.178 501.944> 376 27<30.0556 80.4012 169.599 219.944 308.997 358.742 446.888 499.003> 466 32<225.343 312.954>
VStem: 90 70<31.5938 92.4688 130.909 370.47> 145 67<507.552 579.085> 352 30<540.817 599.011> 366 70<31.8574 271.09 312.609 369.146>
LayerCount: 2
Fore
SplineSet
267 498 m 20xec
 317.299 498 346 545.662 352 574.6 c 4
 356.78 597.653 366.782 600 372 600 c 4
 378 600 382 590 382 580 c 12
 382 515.165 327 466 261 466 c 12
 203.74 466 145 503 145 556 c 4
 145 589 174 605 190 605 c 4
 205 605 237 591 237 570 c 4
 237 555 212 548 212 535 c 4
 212 517 241.148 498 267 498 c 20xec
EndSplineSet
Refer: 1180 1080 N 1 0 0 1 0 0 3
Validated: 1
EndChar

StartChar: uni043A
Encoding: 1082 1082 1036
Width: 458
VWidth: 0
Flags: W
HStem: -10 37.5<377.774 460.305> -3 27<24.9975 81.668 169.096 225.003> 205 22<158 231.495> 353.5 63.5<337.735 414.143> 378 27<30.9975 77.0371 171.645 217.003>
VStem: 90 68<31.3268 204.997 227.001 371.076>
LayerCount: 2
Fore
SplineSet
90 330 m 2x64
 90 359 73 372 53 378 c 0
 42 382 30 386 30 396 c 0
 30 406 48 405 53 405 c 0
 92 405 88 400 123 400 c 0
 158 400 156 405 195 405 c 0
 200 405 218 406 218 396 c 0
 218 386 206 382 195 378 c 0x6c
 175 372 158 358 158 328 c 2
 158 235 l 2
 158 228 164 227 169 227 c 0
 190 227 215.666 227.037 231.5 233.5 c 0
 280.5 253.5 303 341 315 363 c 0
 338 407 365 417 393 417 c 0
 426 417 442 388 442 372 c 0
 442 357 428 325 407 325 c 0
 392 325 382.5 353.5 369.5 353.5 c 0
 351.5 353.5 346 343 336 330 c 0
 324 314 309 237 271 225 c 0
 264.894 223.072 266.737 220.284 271 220 c 0
 286 219 300.5 210 309.5 191.5 c 0
 321.686 166.45 346.5 94 361 66.5 c 0
 380.794 28.9609 417.909 28.6037 445.5 27.5 c 0
 458 27 461 22 461 12 c 0
 461 2 442 -10 394 -10 c 0xb4
 369 -10 334.5 2.5 312.5 36 c 0
 293.925 64.284 266.5 152.5 253.5 173.5 c 0
 244.98 186.887 231.931 197.149 213.5 202 c 0
 204 204.5 188.358 205 168 205 c 0
 163 205 158 201 158 196 c 2
 158 62 l 2
 158 34 183 30 203 24 c 0
 214 20 226 16 226 6 c 0
 226 -4 208 -3 203 -3 c 0
 164 -3 160 2 125 2 c 0
 90 2 86 -3 47 -3 c 0
 42 -3 24 -4 24 6 c 0
 24 16 36 20 47 24 c 0
 67 30 90 31 90 59 c 2
 90 330 l 2x64
EndSplineSet
Validated: 1
EndChar

StartChar: uni0444
Encoding: 1092 1092 1186
Width: 570
VWidth: 0
Flags: W
HStem: -284 27<184.997 238.97 331.03 385.003> -14 30.5429<320 372.224> 381.765 32.235<204.026 250>
VStem: 35 82<122.405 290.555> 250 70<-249.851 -12.0384 19.3183 381.566 412.214 574.687> 453 82<103.924 292.121>
CounterMasks: 1 1c
LayerCount: 2
Fore
SplineSet
320 -219 m 6
 320 -246 343 -251 363 -257 c 4
 374 -261 386 -265 386 -275 c 4
 386 -285 368 -284 363 -284 c 4
 324 -284 320 -279 285 -279 c 4
 250 -279 246 -284 207 -284 c 4
 202 -284 184 -285 184 -275 c 4
 184 -265 196 -261 207 -257 c 4
 227 -251 250 -246 250 -219 c 6
 250 -14 l 1
 142.087 -8.27456 37.1832 74.2005 35 187 c 0
 32.2089 331.208 140 396 250 414 c 1
 250 513 l 2
 250 552 237 579 204 586 c 0
 194.455 588.025 193.502 608.765 203 611 c 0
 253.999 623.003 287 639 319 651 c 0
 323 653 327 649 327 645 c 0
 327 633 320 599 320 509 c 2
 320 414 l 1
 442 405 535 316 535 213 c 0
 535 69.9168 450.518 -2.1663 320 -14 c 1
 320 -219 l 6
320 16.5429 m 1
 362.492 20.3072 410.699 43.4273 429 79 c 0
 444.959 110.021 453 150 453 189 c 0
 453 308 391.189 361.33 320 381.566 c 1
 320 16.5429 l 1
250 381.765 m 1
 214.929 376.373 169.868 353.955 149 327 c 0
 122 293 117 258 117 210 c 0
 117 121.858 180.121 36.9305 250 19.3183 c 1
 250 381.765 l 1
EndSplineSet
Validated: 33
EndChar
StartChar: uni044C
Encoding: 1100 1100 1241
Width: 405
VWidth: 0
Flags: W
HStem: -3 28<26.3695 80.7166 176.068 262.218> 210 28<166.21 265.629> 376 27<34.9975 82.5507 169.599 220.003>
VStem: 90 70<34.8555 202.667 233.585 370.47> 302 73<53.1246 183.859>
LayerCount: 2
Fore
SplineSet
169 203 m 0
 159 196 160 182 160 177 c 2
 160 73 l 2
 160 41 190 25 214 25 c 0
 259 25 302 55 302 114 c 4
 302 180 271 210 207 210 c 0
 191 210 175 207 169 203 c 0
375 131 m 0
 375 25 297 -3 204 -3 c 0
 165 -3 161 2 126 2 c 0
 91 2 87 -3 49 -3 c 0
 42 -3 25 -2 25 6 c 0
 25 16 37 20 48 24 c 0
 68 30 90 35 90 63 c 2
 90 337 l 2
 90 364 77 370 57 376 c 0
 46 380 34 384 34 394 c 0
 34 402 48 403 56 403 c 0
 95 403 91 398 126 398 c 0
 161 398 159 403 197 403 c 0
 204 403 221 402 221 394 c 0
 221 384 209 380 198 376 c 0
 178 370 160 364 160 337 c 2
 160 236 l 2
 160 231 166 228 170 230 c 0
 182 236 218 238 237 238 c 0
 281 238 375 211 375 131 c 0
EndSplineSet
Validated: 1
EndChar
StartChar: uni044D
Encoding: 1101 1101 1242
Width: 398
VWidth: 0
Flags: W
HStem: -14 36<108.047 232.87> 167 48<159.095 276.767> 190 47<104.743 217.599> 195 20<273.648 283.46> 368 45<88.1181 241.845>
VStem: 289 74<115.713 311.337>
LayerCount: 2
Fore
SplineSet
82.2002 341.3 m 0xcc
 60.2002 322.3 56 279 43 279 c 0
 32 279 32 289 32 302 c 0
 32 328 35.2002 342.3 44.4004 371.6 c 0
 47.4111 381.188 54.2002 383.3 63.2002 387.3 c 0
 87.2002 398.3 114 413 188 413 c 0
 289 413 363 322 363 219 c 8
 363 99.498 283.502 -14 164 -14 c 16
 121 -14 94 -8 54 16 c 0
 36 27 30 36 30 74 c 0
 30 88 33 101 42 101 c 0
 51 101 63 80 68 75 c 0
 106 32 135 22 179 22 c 0
 246 22 289 86 289 186 c 0
 289 192 285 199 282 195 c 0x9c
 267 175 244 167 231 167 c 0xcc
 197 167 179 190 146 190 c 0
 123 190 98 172 88 172 c 0
 82 172 76 173 76 181 c 0
 76 191 121 237 149 237 c 0xac
 174 237 215 215 245 215 c 0
 267 215 273 218 279 222 c 0
 283 224 289 229 289 233 c 0
 289 324 244 368 157 368 c 0
 115 368 101.466 357.938 82.2002 341.3 c 0xcc
EndSplineSet
Validated: 1
EndChar

StartChar: uni044F
Encoding: 1103 1103 1237
Width: 447
VWidth: 0
Flags: W
HStem: -10 38<-4.30503 79.4784> -3 27<218.997 274.904 364.332 421.003> 182 21<215.554 278.309> 373 29<186.635 280.428 364.026 414.413>
VStem: 82 74<229.044 350.245> 286 70<31.3268 181.997 207.426 369.251>
LayerCount: 2
Fore
SplineSet
228 203 m 16x3c
 260 203 286 211 286 225 c 2
 286 335 l 2
 286 365 272 373 229 373 c 8
 187.901 373 156 338 156 297 c 8
 156 250.821 181.821 203 228 203 c 16x3c
57 32 m 0
286 172 m 2
 286 178.083 282 182 277 182 c 0
 257 182 242 181 232 179 c 0
 214 174 201 164 192 151 c 0
 179 130 162 64 143 36 c 0
 121 2 87 -10 62 -10 c 0
 14 -10 -5 2 -5 12 c 0
 -5 22 -1 28 11 28 c 0xbc
 39 29 75 28 95 66 c 0
 109 94 119.892 129.152 132.6 153.8 c 0
 139.2 166.6 149.6 179.8 171 186 c 0
 174.392 186.982 177 192 172 193 c 0
 118 203 82 233 82 291 c 0
 82 361 150 402 230 402 c 0
 258 402 288 400 323 400 c 0
 358 400 354 402 393 402 c 0
 400 402 416 401 416 393 c 0
 416 383 404 379 393 375 c 0
 373 369 356 361 356 330 c 2
 356 59 l 2
 356 31 379 30 399 24 c 0
 410 20 422 16 422 6 c 0
 422 -4 404 -3 399 -3 c 0
 360 -3 354 2 319 2 c 0
 284 2 280 -3 241 -3 c 0
 236 -3 218 -4 218 6 c 0
 218 16 230 20 241 24 c 0x7c
 261 30 286 34 286 62 c 2
 286 172 l 2
EndSplineSet
Validated: 1
EndChar
StartChar: uni04D0
Encoding: 1232 1232 684
Width: 684
VWidth: 0
Flags: W
HStem: -5 36<-0.573315 70.1888 195.015 266.525 395.098 475.898 612.158 694.277> 244 43<241.006 430.907> 730 70<301.126 454.7>
VStem: -2 178<4 93.5> 227.913 300<796 873> 489 208<1 90.5>
LayerCount: 2
Fore
SplineSet
259.913 863 m 0xf0
 271.913 841 307.913 800 377.913 800 c 0
 447.913 800 483.913 841 495.913 863 c 0
 500.913 872 507.913 884 517.913 884 c 0
 527.913 884 527.913 873 527.913 860 c 0
 527.913 796 457.913 730 377.913 730 c 0
 297.913 730 227.913 785 227.913 860 c 0
 227.913 873 227.913 884 237.913 884 c 0
 247.913 884 254.913 872 259.913 863 c 0xf0
EndSplineSet
Refer: 657 1040 N 1 0 0 1 0 0 3
Validated: 1
EndChar

StartChar: uni04D2
Encoding: 1234 1234 686
Width: 684
VWidth: 0
Flags: W
HStem: -5 36<-0.573315 70.1888 195.015 266.525 395.098 475.898 612.158 694.277> 244 43<241.006 430.907> 730 110<239.76 326.066 429.76 516.066>
VStem: -2 178<4 93.5> 227.913 110<741.847 828.153> 417.913 110<741.847 828.153> 489 208<1 90.5>
LayerCount: 2
Fore
SplineSet
472.913 840 m 24xf8
 502.913 840 527.913 815 527.913 785 c 24
 527.913 755 502.913 730 472.913 730 c 24
 442.913 730 417.913 755 417.913 785 c 24
 417.913 815 442.913 840 472.913 840 c 24xf8
282.913 840 m 24
 312.913 840 337.913 815 337.913 785 c 24
 337.913 755 312.913 730 282.913 730 c 24
 252.913 730 227.913 755 227.913 785 c 24
 227.913 815 252.913 840 282.913 840 c 24
EndSplineSet
Refer: 657 1040 N 1 0 0 1 0 0 3
Validated: 1
EndChar

StartChar: uni04D6
Encoding: 1238 1238 688
Width: 535
VWidth: 0
Flags: W
HStem: -5 29<23.6924 99.9253> -5 40<221.438 455.39> 320 32<211.086 367.094> 388 20<400.5 405.5> 618 35<32.1729 114.247 215.59 433.859> 724 70<364.886 518.46>
VStem: 130 80<44.9696 319.486 352 605.889> 291.673 300<790 867> 383 32<253.771 304.565> 466 25<526.084 573.315>
LayerCount: 2
Fore
SplineSet
323.673 857 m 0x3e
 335.673 835 371.673 794 441.673 794 c 0
 511.673 794 547.673 835 559.673 857 c 0
 564.673 866 571.673 878 581.673 878 c 0
 591.673 878 591.673 867 591.673 854 c 0
 591.673 790 521.673 724 441.673 724 c 0
 361.673 724 291.673 779 291.673 854 c 0
 291.673 867 291.673 878 301.673 878 c 0
 311.673 878 318.673 866 323.673 857 c 0x3e
EndSplineSet
Refer: 659 1045 N 1 0 0 1 0 0 3
Validated: 1
EndChar
StartChar: uni04E6
Encoding: 1254 1254 690
Width: 763
VWidth: 0
Flags: W
HStem: -14 39<309.694 487.027> 625 39<289.881 469.419> 724.088 110<252.731 339.037 442.731 529.037>
VStem: 45 97<219.261 444.186> 240.884 110<735.935 822.241> 430.884 110<735.935 822.241> 621 97<206.698 451.883>
LayerCount: 2
Fore
SplineSet
485.884 834.088 m 24
 515.884 834.088 540.884 809.088 540.884 779.088 c 24
 540.884 749.088 515.884 724.088 485.884 724.088 c 24
 455.884 724.088 430.884 749.088 430.884 779.088 c 24
 430.884 809.088 455.884 834.088 485.884 834.088 c 24
295.884 834.088 m 24
 325.884 834.088 350.884 809.088 350.884 779.088 c 24
 350.884 749.088 325.884 724.088 295.884 724.088 c 24
 265.884 724.088 240.884 749.088 240.884 779.088 c 24
 240.884 809.088 265.884 834.088 295.884 834.088 c 24
EndSplineSet
Refer: 663 1054 N 1 0 0 1 0 0 3
Validated: 1
EndChar
StartChar: uni1D47
Encoding: 7495 7495 714
Width: 319
VWidth: 0
Flags: W
HStem: 274 25<143.531 218.115> 489 29<130.314 215.409> 651 22<14.8866 36.8762>
VStem: 51 58<320.168 468.572 496.005 647.847> 248 61<337.148 464.942>
LayerCount: 2
Fore
SplineSet
87 290 m 0
 81 290 72 285 68 283 c 0
 63 280 46 284 47 289 c 0
 49 306 51 331 51 346 c 2
 51 607 l 2
 51 616 42 647 21 651 c 8
 12.5625 652.607 11.5977 671.218 20 673 c 16
 53 680 85 690 106 697 c 0
 108 698 111 696 111 693 c 0
 111 690 109 664 109 630 c 2
 109 516 l 2
 109 503 111 496 117 496 c 1
 137 510 168 518 190 518 c 0
 258 518 309 470 309 405 c 0
 309 335 244 274 173 274 c 0
 132 274 96 290 87 290 c 0
248 393 m 0
 248 440.011 231 489 168 489 c 4
 150 489 132 480 122 469 c 0
 112 460 109 443 109 423 c 2
 109 361 l 2
 109 330 146.006 300.2 182 299 c 0
 212 298 248 319 248 393 c 0
EndSplineSet
Validated: 33
EndChar

StartChar: uni1D48
Encoding: 7496 7496 715
Width: 313
VWidth: 0
Flags: W
HStem: 271 36<219.5 289.811> 274 26<97.9893 175.926> 502 29<99.3538 179.633> 657 24<173.503 194.938>
VStem: 7 61<320.976 470.04> 204 54<317.5 485.945 528.441 656.402>
LayerCount: 2
Fore
SplineSet
127 274 m 0x7c
 53 274 7 327 7 388 c 0
 7 473 59 531 157 531 c 0
 203 531 203 510 203 538 c 2
 203 613 l 2
 203 622 202 653 180 657 c 8
 170.783 658.676 169.845 679.017 179 681 c 16
 239 694 263 713 266 702 c 1
 266 695 258 674 258 620 c 2
 258 364 l 2
 258 316 262 307 274 307 c 0
 287 307 298 314 306 314 c 0
 313 314 312 289 306 288 c 0
 274 283 230 271 221 271 c 0xbc
 218 271 215.675 276.077 215 279 c 0
 212 292 209 306 208 306 c 4
 207 306 170 274 127 274 c 0x7c
137 502 m 0
 112 502 68 483 68 403 c 0
 68 311 110.982 300 139 300 c 0x7c
 161 300 204 321 204 361 c 0
 204 398 204 409 204 438 c 0
 204 472.015 177 502 137 502 c 0
EndSplineSet
Validated: 33
EndChar
StartChar: uni1D49
Encoding: 7497 7497 716
Width: 232
VWidth: 0
Flags: W
HStem: 271 42<91.5543 194.267> 415 29<79.7942 173.101> 497 27<95.1412 169.699>
VStem: 9 54<341.167 415.25> 174 51<447.809 494.317>
LayerCount: 2
Fore
SplineSet
9 390 m 0
 9 483 71 524 144 524 c 0
 184 525 225 499 225 460 c 0
 225 446 224 426 214 421 c 0
 205 417 185.393 417.387 167 417 c 18
 72 415 l 2
 62 415 62 405 63 389 c 0
 64 358 94 314 144 313 c 0
 166 313 180 322 200 338 c 0
 207 344 225 328 222 322 c 0
 204 294 175 271 126 271 c 4
 68 271 9 318 9 390 c 0
74 453 m 0
 70.5625 444.215 75.7812 444 80 444 c 18
 118 444 l 10
 136.821 444 153 445 166 449 c 8
 174.029 451.471 174 464 174 469 c 0
 174 491 154 497 134 497 c 0
 98 497 83 476 74 453 c 0
EndSplineSet
Validated: 33
EndChar
StartChar: uni1D4D
Encoding: 7501 7501 717
Width: 277
VWidth: 0
Flags: W
HStem: 100 34<67.5179 182.131> 338 26<84.2518 147.106> 484 21<222.409 264.525> 498 26<83.211 146.543>
VStem: -4 59<144.844 210.501> 8 54<377.633 485.728> 19 47<287 331.417> 167 53<385.284 478.668> 212 49<163.323 237.172>
LayerCount: 2
Fore
SplineSet
55 185 m 4xc880
 56 146 82 134 133 134 c 4
 184 134 212 175 212 209 c 4
 212 231 192 239 171 243 c 4
 155 246 126 250 111 251 c 4
 93 252 81 242 73 232 c 4
 62 220 54 205 55 185 c 4xc880
113 498 m 12xd5
 81.6904 498 62 465 62 436 c 12
 62 400.665 80 364 117 364 c 4
 149 364 167 394 167 433 c 12
 167 465.957 149 498 113 498 c 12xd5
61 255 m 5
 39 259 19 273 19 301 c 4xe2
 19 310 20.9963 312.724 29 320 c 4
 40 330 47 337 57 351 c 5
 52 352 8 378 8 429 c 4
 8 489 64 524 121 524 c 12xd4
 148.92 524 163.535 514.018 191 509 c 28
 204.134 506.601 212 505 225 505 c 12
 238.26 505 242 506 259 505 c 4
 267 504 267 484 259 484 c 4
 222 484 231 480 222 479 c 5
 219 472 220 460 220 451 c 4
 220 393 172.231 338 111 338 c 20
 97 338 88 337 82 341 c 5
 68 331 66 330 66 322 c 4xe3
 66 305 99 298 120 296 c 4
 203 289 261 278 261 228 c 4
 261 162 196 100 117 100 c 12
 62.6768 100 -4 116 -4 169 c 4xe880
 -4 205 42 225 61 255 c 5
EndSplineSet
Validated: 33
EndChar
StartChar: uni1D4F
Encoding: 7503 7503 718
Width: 326
VWidth: 0
Flags: W
HStem: 273 24<9.66329 44.4662 104.168 135.337 266.57 308.337> 497 22<235.881 283.714> 649 24<16.5075 38.4839>
VStem: 48 54<297.764 398.092 419.955 647.946>
LayerCount: 2
Fore
SplineSet
215 273 m 0
 199 273 202 273 177 273 c 0
 174 273 162 276 162 282 c 0
 162 289 170 295 177 297 c 0
 190 301 195 310 187 319 c 0
 162 345 142 364 108 398 c 0
 106 400 102 399 102 394 c 0
 101 372 101 349 102 322 c 0
 102 306 108 301 121 297 c 0
 128 295 136 288 136 282 c 0
 136 276 124 273 121 273 c 0
 96 273 98 273 75 273 c 0
 52 273 49 273 24 273 c 0
 21 273 9 276 9 282 c 0
 9 288 17 295 24 297 c 0
 37 301 48 306 48 322 c 0
 48 459 48 490 48 605 c 0
 48 614 44 645 23 649 c 8
 13.7969 650.753 12.8359 671.056 22 673 c 16
 55 680 82 690 103 697 c 0
 106 698 107 696 108 694 c 0
 109 687 102 665 102 612 c 0
 102 532 102 488 102 424 c 0
 102 420 103 419 106 420 c 0
 112 421 118 425 128 433 c 0
 163 461 175 471 186 481 c 4
 189.7 484.363 195 495 184 497 c 0
 182 498 171 504 171 509 c 0
 171 518 182 519 185 519 c 8
 197.48 519 199 519 217 519 c 0
 240 519 258 519 277 519 c 0
 279 519 284 512 284 510 c 0
 284 505 279 498 273 497 c 0
 257 494 240 489 228 482 c 0
 220 477 185 452 154 427 c 0
 151 425 150.443 419.567 156 413 c 0
 189 374 228 336 242 325 c 0
 256 312 281 301 294 297 c 0
 301 295 309 288 309 282 c 0
 309 276 297 273 294 273 c 0
 269 273 247 273 215 273 c 0
EndSplineSet
Validated: 33
EndChar
StartChar: uni1D58
Encoding: 7512 7512 723
Width: 325
VWidth: 0
Flags: W
HStem: 272 38<105.191 188.424> 293 24<269.08 320.796> 491 27<166.019 204.474>
VStem: 39 56<317.215 486.815> 213 54<327.694 485.457>
LayerCount: 2
Fore
SplineSet
258 532 m 0xb8
 264 533 278 523 275 518 c 0
 272 514 267 486 267 476 c 0
 267 424 267 394 267 357 c 0
 267 332 267 314 278 315 c 0
 285 316 310 316 316 317 c 0
 319 318 321 313 321 309 c 0
 321 305 320 293 317 293 c 0x78
 283 289 254 279 235 272 c 0
 232 271 218 267 217 269 c 0
 216 276 221 306 220 314 c 1
 186 283 153 272 113 272 c 0
 71 272 39 296 39 343 c 0
 39 373 39 425 39 457 c 0
 39 474 28 484 8 491 c 0
 6 492 3 500 3 504 c 0
 3 509 6 518 9 518 c 1
 44 519 60 524 85 529 c 5
 91 530 100 526 99 520 c 0
 96 501 95 484 95 466 c 0
 95 434 95 396 95 365 c 0
 95 336 111 310 139 310 c 0
 161 310 168 311 184 322 c 0
 194 329 213 342 213 367 c 0
 213 413 213 424 213 461 c 0
 213 486 177 489 172 491 c 0
 169 492 166 500 166 504 c 0
 166 508 169 518 172 518 c 0
 238 521 235 526 258 532 c 0xb8
EndSplineSet
Validated: 33
EndChar
StartChar: uni1E06
Encoding: 7686 7686 359
Width: 578
VWidth: 0
Flags: W
HStem: -119 54<-98.5436 191.475> -5 29<19.6924 97.1038> -4 41<227.525 361.026> 343 28<219.429 332.234> 627 30<30.0088 97.7124 217.08 343.047>
VStem: 130 78<56.5698 331.718 372.963 605.73> 410 86<428.462 576.092> 443 94<115.164 267.324>
LayerCount: 2
Fore
SplineSet
-78.2119 -65 m 30x9c
 184.788 -65 l 30
 192.239 -65 200.145 -71.9316 197.788 -79 c 28
 191.547 -97.7236 186.524 -119 166.788 -119 c 30
 -88.2119 -119 l 30
 -95.4033 -119 -102.212 -113 -102.212 -107 c 4
 -102.212 -98 -97.0771 -65 -78.2119 -65 c 30x9c
EndSplineSet
Refer: 30 66 N 1 0 0 1 0 0 3
Validated: 1
EndChar
StartChar: uni1E08
Encoding: 7688 7688 361
Width: 640
VWidth: 0
Flags: W
HStem: -275 53<313.107 414.871> -15 31<326.024 481.156> 632 31<314.682 483.324> 776.27 72<530.32 639.041>
VStem: 46 100<217.847 434.419> 425 53<-216.671 -136.134> 576 37<473.764 560.679>
LayerCount: 2
Fore
SplineSet
427 727.27 m 0
 418 725.27 405 722.27 393 725.27 c 0
 385 727.27 385 740.27 396 747.27 c 0
 465 791.27 497 811.27 560 843.27 c 0
 578 853.27 594 857.27 612 848.27 c 24
 633 838.27 646 824.27 647 802.27 c 24
 647 786.27 629 779.27 615 776.27 c 0
 554 761.27 480 742.27 427 727.27 c 0
EndSplineSet
Refer: 136 199 N 1 0 0 1 0 0 3
Validated: 37
EndChar

StartChar: uni1E0E
Encoding: 7694 7694 367
Width: 754
VWidth: 0
Flags: W
HStem: -121 54<224.456 514.475> -7 35<30.0745 112.208 251.726 448.386> 628 31<29.2164 94.5968 230.74 433.726>
VStem: 129 81<62.1482 605.889> 609 95<215.09 461.507>
LayerCount: 2
Fore
SplineSet
244.788 -67 m 30
 507.788 -67 l 30
 515.239 -67 523.145 -73.9316 520.788 -81 c 28
 514.547 -99.7236 509.524 -121 489.788 -121 c 30
 234.788 -121 l 30
 227.597 -121 220.788 -115 220.788 -109 c 4
 220.788 -100 225.923 -67 244.788 -67 c 30
EndSplineSet
Refer: 43 68 N 1 0 0 1 0 0 3
Validated: 1
EndChar

StartChar: uni1E10
Encoding: 7696 7696 369
Width: 754
VWidth: 0
Flags: W
HStem: -280.566 53<261.25 358.371> -7 35<30.0745 112.208 251.726 448.386> 628 31<29.2164 94.5968 230.74 433.726>
VStem: 129 81<62.1482 605.889> 368.5 53<-222.238 -143.899> 609 95<215.09 461.507>
LayerCount: 2
Fore
SplineSet
421.5 -164.566 m 0
 421.5 -232.566 337.5 -280.566 292.5 -280.566 c 0
 272.5 -280.566 263.5 -280.566 254.5 -267.566 c 24
 244.5 -254.566 247.5 -242.566 252.5 -226.566 c 0
 254.5 -219.566 260.5 -212.566 266.5 -215.566 c 0
 289.5 -225.566 313.5 -227.566 326.5 -227.566 c 0
 343.5 -227.566 368.5 -217.566 368.5 -188.566 c 0
 368.5 -164.566 356.5 -138.566 321.5 -136.566 c 0
 314.5 -136.566 305.5 -135.566 294.5 -137.566 c 0
 287.5 -138.566 275.5 -134.566 271.5 -127.566 c 0
 268.5 -122.566 271.5 -110.566 275.5 -105.566 c 2
 355.5 2.43359 l 25
 386.5 2.43359 l 25
 345.5 -59.5664 l 2
 340.5 -66.5664 350.5 -73.5664 355.5 -75.5664 c 0
 383.5 -87.5664 421.5 -117.566 421.5 -164.566 c 0
EndSplineSet
Refer: 43 68 N 1 0 0 1 0 0 3
Validated: 37
EndChar
StartChar: uni1E12
Encoding: 7698 7698 371
Width: 754
VWidth: 0
Flags: W
HStem: -7 35<30.0745 112.208 251.726 448.386> 628 31<29.2164 94.5968 230.74 433.726>
VStem: 129 81<62.1482 605.889> 609 95<215.09 461.507>
LayerCount: 2
Fore
SplineSet
381 -136 m 0
 370 -129 372 -129 361 -136 c 0
 335 -151 331 -155 282 -181 c 0
 270 -188 243 -199 230 -199 c 0
 215 -199 210 -187 222 -177 c 0
 290 -120 232 -167 330 -89 c 0
 350 -73 356 -67 371 -67 c 0
 386 -67 392 -73 412 -89 c 0
 510 -167 452 -120 520 -177 c 0
 532 -187 527 -200 512 -200 c 0
 499 -200 489 -192 477 -185 c 0
 428 -159 407 -151 381 -136 c 0
EndSplineSet
Refer: 43 68 N 1 0 0 1 0 0 3
Validated: 1
EndChar
StartChar: uni1E14
Encoding: 7700 7700 373
Width: 535
VWidth: 0
Flags: W
HStem: -5 29<23.6924 99.9253> -5 40<228 455.39> 320 32<210.253 367.094> 388 20<400.5 405.5> 618 35<32.1729 114.247 219.165 433.859> 724 54<140.625 432.251> 890.269 72<34.7471 143.468>
VStem: 130 80<51.352 319.809 352 605.889> 137 300<726.522 777.788> 383 32<253.771 304.565> 466 25<526.084 573.315>
LayerCount: 2
Fore
SplineSet
246.788 841.269 m 0x3e20
 193.788 856.269 119.788 875.269 58.7881 890.269 c 0
 44.7881 893.269 26.7881 900.269 26.7881 916.269 c 24
 27.7881 938.269 40.7881 952.269 61.7881 962.269 c 24
 79.7881 971.269 95.7881 967.269 113.788 957.269 c 0
 176.788 925.269 208.788 905.269 277.788 861.269 c 0
 288.788 854.269 288.788 841.269 280.788 839.269 c 0
 268.788 836.269 255.788 839.269 246.788 841.269 c 0x3e20
EndSplineSet
Refer: 195 274 N 1 0 0 1 0 0 3
Validated: 33
EndChar

StartChar: uni1E16
Encoding: 7702 7702 375
Width: 535
VWidth: 0
Flags: W
HStem: -5 29<23.6924 99.9253> -5 40<228 455.39> 320 32<210.253 367.094> 388 20<400.5 405.5> 618 35<32.1729 114.247 219.165 433.859> 724 54<140.625 432.251> 890.269 72<384.108 492.829>
VStem: 130 80<51.352 319.809 352 605.889> 137 300<726.522 777.788> 383 32<253.771 304.565> 466 25<526.084 573.315>
LayerCount: 2
Fore
SplineSet
280.788 841.269 m 0x3e20
 271.788 839.269 258.788 836.269 246.788 839.269 c 0
 238.788 841.269 238.788 854.269 249.788 861.269 c 0
 318.788 905.269 350.788 925.269 413.788 957.269 c 0
 431.788 967.269 447.788 971.269 465.788 962.269 c 24
 486.788 952.269 499.788 938.269 500.788 916.269 c 24
 500.788 900.269 482.788 893.269 468.788 890.269 c 0
 407.788 875.269 333.788 856.269 280.788 841.269 c 0x3e20
EndSplineSet
Refer: 195 274 N 1 0 0 1 0 0 3
Validated: 33
EndChar
StartChar: uni1E18
Encoding: 7704 7704 377
Width: 535
VWidth: 0
Flags: W
HStem: -5 29<23.6924 99.9253> -5 40<228 455.39> 320 32<210.253 367.094> 388 20<400.5 405.5> 618 35<32.1729 114.247 219.165 433.859>
VStem: 130 80<51.352 319.809 352 605.889> 383 32<253.771 304.565> 466 25<526.084 573.315>
LayerCount: 2
Fore
SplineSet
283 -134 m 0x3f
 272 -127 274 -127 263 -134 c 0
 237 -149 233 -153 184 -179 c 0
 172 -186 145 -197 132 -197 c 0
 117 -197 112 -185 124 -175 c 0
 192 -118 134 -165 232 -87 c 0
 252 -71 258 -65 273 -65 c 0
 288 -65 294 -71 314 -87 c 0
 412 -165 354 -118 422 -175 c 0
 434 -185 429 -198 414 -198 c 0
 401 -198 391 -190 379 -183 c 0
 330 -157 309 -149 283 -134 c 0x3f
EndSplineSet
Refer: 35 69 N 1 0 0 1 0 0 3
Validated: 1
EndChar
StartChar: uni1E1A
Encoding: 7706 7706 379
Width: 535
VWidth: 0
Flags: W
HStem: -166.498 63<195.709 380.648> -158.498 63<164.829 352.742> -5 29<23.6924 99.9253> -5 40<228 455.39> 320 32<210.253 367.094> 388 20<400.5 405.5> 618 35<32.1729 114.247 219.165 433.859>
VStem: 130 80<51.352 319.809 352 605.889> 383 32<253.771 304.565> 466 25<526.084 573.315>
LayerCount: 2
Fore
SplineSet
112.976 -172.498 m 0x4fc0
 138.38 -136.218 184.976 -95.498 199.976 -95.498 c 0x4fc0
 224.976 -95.498 331.976 -103.498 356.976 -103.498 c 0
 371.976 -103.498 396.976 -88.498 413.976 -66.498 c 0
 418.976 -59.498 436.824 -79.001 432.976 -84.498 c 4
 415.533 -109.408 365.976 -166.498 350.976 -166.498 c 0x8fc0
 325.976 -166.498 213.976 -158.498 188.976 -158.498 c 0
 173.976 -158.498 149.976 -172.498 133.976 -190.498 c 0
 128.976 -195.498 109.127 -177.995 112.976 -172.498 c 0x4fc0
EndSplineSet
Refer: 35 69 N 1 0 0 1 0 0 3
Validated: 1
EndChar
StartChar: uni1E20
Encoding: 7712 7712 385
Width: 729
VWidth: 0
Flags: W
HStem: -14 37<313.609 496.294> 256 34<437.011 535.328 642.232 692.897> 625 38<306.718 509.098> 724 54<266.456 556.475>
VStem: 45 99<215.989 441.462> 560 65<72.2344 237.12> 594 38<492.515 554.786>
LayerCount: 2
Fore
SplineSet
286.788 778 m 30xf8
 549.788 778 l 30
 557.239 778 565.145 771.068 562.788 764 c 28
 556.547 745.276 551.524 724 531.788 724 c 30
 276.788 724 l 30
 269.597 724 262.788 730 262.788 736 c 4
 262.788 745 267.923 778 286.788 778 c 30xf8
EndSplineSet
Refer: 40 71 N 1 0 0 1 0 0 3
Validated: 1
EndChar
StartChar: uni1E26
Encoding: 7718 7718 391
Width: 810
VWidth: 0
Flags: W
HStem: -5 29<37.6924 109.801 250.294 321.308 501.692 572.618 698.673 769.308> 302 48<210 601.981> 622 31<45.0745 116.701 235.842 309.926 504.074 576.241 697.262 766.926> 724 110<267.847 354.153 457.847 544.153>
VStem: 130 80<53.5983 302 350 603.314> 256 110<735.847 822.153> 446 110<735.847 822.153> 602 80<44.8548 302 350 604.033>
LayerCount: 2
Fore
SplineSet
501 834 m 24
 531 834 556 809 556 779 c 24
 556 749 531 724 501 724 c 24
 471 724 446 749 446 779 c 24
 446 809 471 834 501 834 c 24
311 834 m 24
 341 834 366 809 366 779 c 24
 366 749 341 724 311 724 c 24
 281 724 256 749 256 779 c 24
 256 809 281 834 311 834 c 24
EndSplineSet
Refer: 47 72 N 1 0 0 1 0 0 3
Validated: 1
EndChar
StartChar: uni1E28
Encoding: 7720 7720 393
Width: 810
VWidth: 0
Flags: W
HStem: -278.566 53<60.7504 157.871> -5 29<37.6924 109.801 250.294 321.308 501.692 572.618 698.673 769.308> 302 48<210 601.981> 622 31<45.0745 116.701 235.842 309.926 504.074 576.241 697.262 766.926>
VStem: 130 80<53.5983 302 350 603.314> 168 53<-220.238 -141.899> 602 80<44.8548 302 350 604.033>
LayerCount: 2
Fore
SplineSet
221 -162.566 m 0xf6
 221 -230.566 137 -278.566 92 -278.566 c 0
 72 -278.566 63 -278.566 54 -265.566 c 24
 44 -252.566 47 -240.566 52 -224.566 c 0
 54 -217.566 60 -210.566 66 -213.566 c 0
 89 -223.566 113 -225.566 126 -225.566 c 0
 143 -225.566 168 -215.566 168 -186.566 c 0
 168 -162.566 156 -136.566 121 -134.566 c 0
 114 -134.566 105 -133.566 94 -135.566 c 0
 87 -136.566 75 -132.566 71 -125.566 c 0
 68 -120.566 71 -108.566 75 -103.566 c 2
 155 4.43359 l 25
 186 4.43359 l 25
 145 -57.5664 l 2
 140 -64.5664 150 -71.5664 155 -73.5664 c 0
 183 -85.5664 221 -115.566 221 -162.566 c 0xf6
EndSplineSet
Refer: 47 72 N 1 0 0 1 0 0 2
Validated: 37
EndChar
StartChar: uni1E2A
Encoding: 7722 7722 395
Width: 810
VWidth: 0
Flags: W
HStem: -219 70<326.713 480.287> -5 29<37.6924 109.801 250.294 321.308 501.692 572.618 698.673 769.308> 302 48<210 601.981> 622 31<45.0745 116.701 235.842 309.926 504.074 576.241 697.262 766.926>
VStem: 130 80<53.5983 302 350 603.314> 602 80<44.8548 302 350 604.033>
LayerCount: 2
Fore
SplineSet
285.5 -86 m 0
 297.5 -108 333.5 -149 403.5 -149 c 0
 473.5 -149 509.5 -108 521.5 -86 c 0
 526.5 -77 533.5 -65 543.5 -65 c 0
 553.5 -65 553.5 -76 553.5 -89 c 0
 553.5 -153 483.5 -219 403.5 -219 c 0
 323.5 -219 253.5 -164 253.5 -89 c 0
 253.5 -76 253.5 -65 263.5 -65 c 0
 273.5 -65 280.5 -77 285.5 -86 c 0
EndSplineSet
Refer: 47 72 N 1 0 0 1 0 0 3
Validated: 1
EndChar
StartChar: uni1E2C
Encoding: 7724 7724 397
Width: 340
VWidth: 0
Flags: W
HStem: -166.498 63<93.2087 278.148> -158.498 63<62.3285 250.242> -5 29<19.6924 97.1038 243.602 321.308> 622 31<31.0745 107.441 235.205 312.926>
VStem: 10.4756 320 130 80<46.75 604.158>
LayerCount: 2
Fore
SplineSet
10.4756 -172.498 m 0x78
 35.8799 -136.218 82.4756 -95.498 97.4756 -95.498 c 0x78
 122.476 -95.498 229.476 -103.498 254.476 -103.498 c 0
 269.476 -103.498 294.476 -88.498 311.476 -66.498 c 0
 316.476 -59.498 334.324 -79.001 330.476 -84.498 c 4
 313.033 -109.408 263.476 -166.498 248.476 -166.498 c 0xb8
 223.476 -166.498 111.476 -158.498 86.4756 -158.498 c 0
 71.4756 -158.498 47.4756 -172.498 31.4756 -190.498 c 0
 26.4756 -195.498 6.62695 -177.995 10.4756 -172.498 c 0x78
EndSplineSet
Refer: 33 73 N 1 0 0 1 0 0 3
Validated: 1
EndChar
StartChar: uni1E2E
Encoding: 7726 7726 399
Width: 340
VWidth: 0
Flags: W
HStem: -5 29<19.6924 97.1038 243.602 321.308> 622 31<31.0745 107.441 235.205 312.926> 700 100<41.4375 124.562 236.438 319.562> 922.269 72<301.273 409.994>
VStem: 33 100<708.438 791.562> 130 80<46.75 604.158> 228 100<708.438 791.562>
LayerCount: 2
Fore
SplineSet
197.953 873.269 m 0xf2
 188.953 871.269 175.953 868.269 163.953 871.269 c 0
 155.953 873.269 155.953 886.269 166.953 893.269 c 0
 235.953 937.269 267.953 957.269 330.953 989.269 c 0
 348.953 999.269 364.953 1003.27 382.953 994.269 c 24
 403.953 984.269 416.953 970.269 417.953 948.269 c 24
 417.953 932.269 399.953 925.269 385.953 922.269 c 0
 324.953 907.269 250.953 888.269 197.953 873.269 c 0xf2
EndSplineSet
Refer: 144 207 N 1 0 0 1 0 0 3
Validated: 33
EndChar

StartChar: uni1E30
Encoding: 7728 7728 401
Width: 681
VWidth: 0
Flags: W
HStem: -5 29<31.6924 105.863 244.783 312.308 608.044 687.308> 323 22<211.264 231.372> 622 31<32.0745 108.441 226.967 296.926 408.311 456.01 576.716 672.827> 776.27 72<769.82 878.541>
VStem: 131 80<50.6023 322.99 345.01 605.863>
LayerCount: 2
Fore
SplineSet
666.5 727.27 m 0
 657.5 725.27 644.5 722.27 632.5 725.27 c 0
 624.5 727.27 624.5 740.27 635.5 747.27 c 0
 704.5 791.27 736.5 811.27 799.5 843.27 c 0
 817.5 853.27 833.5 857.27 851.5 848.27 c 24
 872.5 838.27 885.5 824.27 886.5 802.27 c 24
 886.5 786.27 868.5 779.27 854.5 776.27 c 0
 793.5 761.27 719.5 742.27 666.5 727.27 c 0
EndSplineSet
Refer: 61 75 N 1 0 0 1 0 0 3
Validated: 33
EndChar

StartChar: uni1E34
Encoding: 7732 7732 405
Width: 681
VWidth: 0
Flags: W
HStem: -119 54<212.956 502.975> -5 29<31.6924 105.863 244.783 312.308 608.044 687.308> 323 22<211.264 231.372> 622 31<32.0745 108.441 226.967 296.926 408.311 456.01 576.716 672.827>
VStem: 131 80<50.6023 322.99 345.01 605.863>
LayerCount: 2
Fore
SplineSet
233.288 -65 m 30
 496.288 -65 l 30
 503.739 -65 511.645 -71.9316 509.288 -79 c 28
 503.047 -97.7236 498.024 -119 478.288 -119 c 30
 223.288 -119 l 30
 216.097 -119 209.288 -113 209.288 -107 c 4
 209.288 -98 214.423 -65 233.288 -65 c 30
EndSplineSet
Refer: 61 75 N 1 0 0 1 0 0 3
Validated: 1
EndChar

StartChar: uni1E38
Encoding: 7736 7736 409
Width: 574
VWidth: 0
Flags: W
HStem: -175 110<250.847 337.153> -5 29<27.3563 94.228> -5 40<220.001 480.636> 622 31<37.0745 116.488 238.822 330.926> 724 54<23.4564 313.475>
VStem: 130 80<47.25 603.136> 239 110<-163.153 -76.847> 541 34<139.048 159.894>
LayerCount: 2
Fore
SplineSet
43.7881 778 m 30x9f
 306.788 778 l 30
 314.239 778 322.145 771.068 319.788 764 c 28
 313.547 745.276 308.524 724 288.788 724 c 30
 33.7881 724 l 30
 26.5967 724 19.7881 730 19.7881 736 c 4
 19.7881 745 24.9229 778 43.7881 778 c 30x9f
EndSplineSet
Refer: 407 7734 N 1 0 0 1 0 0 3
Validated: 1
EndChar

StartChar: uni1E3A
Encoding: 7738 7738 411
Width: 574
VWidth: 0
Flags: W
HStem: -119 54<147.456 437.475> -5 29<27.3563 94.228> -5 40<220.001 480.636> 622 31<37.0745 116.488 238.822 330.926>
VStem: 130 80<47.25 603.136> 541 34<139.048 159.894>
LayerCount: 2
Fore
SplineSet
167.788 -65 m 30x9c
 430.788 -65 l 30
 438.239 -65 446.145 -71.9316 443.788 -79 c 28
 437.547 -97.7236 432.524 -119 412.788 -119 c 30
 157.788 -119 l 30
 150.597 -119 143.788 -113 143.788 -107 c 4
 143.788 -98 148.923 -65 167.788 -65 c 30x9c
EndSplineSet
Refer: 36 76 N 1 0 0 1 0 0 3
Validated: 1
EndChar

StartChar: uni1E3C
Encoding: 7740 7740 413
Width: 574
VWidth: 0
Flags: W
HStem: -5 29<27.3563 94.228> -5 40<220.001 480.636> 622 31<37.0745 116.488 238.822 330.926>
VStem: 130 80<47.25 603.136> 541 34<139.048 159.894>
LayerCount: 2
Fore
SplineSet
304 -134 m 0x38
 293 -127 295 -127 284 -134 c 0
 258 -149 254 -153 205 -179 c 0
 193 -186 166 -197 153 -197 c 0
 138 -197 133 -185 145 -175 c 0
 213 -118 155 -165 253 -87 c 0
 273 -71 279 -65 294 -65 c 0
 309 -65 315 -71 335 -87 c 0
 433 -165 375 -118 443 -175 c 0
 455 -185 450 -198 435 -198 c 0
 422 -198 412 -190 400 -183 c 0
 351 -157 330 -149 304 -134 c 0x38
EndSplineSet
Refer: 36 76 N 1 0 0 1 0 0 3
Validated: 1
EndChar

StartChar: uni1E3E
Encoding: 7742 7742 415
Width: 901
VWidth: 0
Flags: W
HStem: -10 21<399.5 404> -5 29<19.6924 82.5 196.62 261.308 585.692 653.169 789.765 864.308> 623 33<42.7778 120.744 771.253 841.562> 776.27 72<941.82 1050.54>
VStem: 657 78<325.525 479.996> 669 88<45.3904 347.143>
LayerCount: 2
Fore
SplineSet
838.5 727.27 m 0x30
 829.5 725.27 816.5 722.27 804.5 725.27 c 0
 796.5 727.27 796.5 740.27 807.5 747.27 c 0
 876.5 791.27 908.5 811.27 971.5 843.27 c 0
 989.5 853.27 1005.5 857.27 1023.5 848.27 c 24
 1044.5 838.27 1057.5 824.27 1058.5 802.27 c 24
 1058.5 786.27 1040.5 779.27 1026.5 776.27 c 0
 965.5 761.27 891.5 742.27 838.5 727.27 c 0x30
EndSplineSet
Refer: 27 77 N 1 0 0 1 0 0 3
Validated: 33
EndChar

StartChar: uni1E48
Encoding: 7752 7752 425
Width: 770
VWidth: 0
Flags: W
HStem: -131 54<494.456 784.475> -5 29<23.6924 80.8125 197.412 265.308> 620 38<2.28223 77.8053 542 559 674.647 759.991>
VStem: 132 37<306.848 499.991> 621 43<136.004 599.75>
LayerCount: 2
Fore
SplineSet
514.788 -77 m 30
 777.788 -77 l 30
 785.239 -77 793.145 -83.9316 790.788 -91 c 28
 784.547 -109.724 779.524 -131 759.788 -131 c 30
 504.788 -131 l 30
 497.597 -131 490.788 -125 490.788 -119 c 4
 490.788 -110 495.923 -77 514.788 -77 c 30
EndSplineSet
Refer: 28 78 N 1 0 0 1 0 0 3
Validated: 1
EndChar
StartChar: uni1E4A
Encoding: 7754 7754 427
Width: 770
VWidth: 0
Flags: W
HStem: -5 29<23.6924 80.8125 197.412 265.308> 620 38<2.28223 77.8053 542 559 674.647 759.991>
VStem: 132 37<306.848 499.991> 621 43<136.004 599.75>
LayerCount: 2
Fore
SplineSet
651 -146 m 0
 640 -139 642 -139 631 -146 c 0
 605 -161 601 -165 552 -191 c 0
 540 -198 513 -209 500 -209 c 0
 485 -209 480 -197 492 -187 c 0
 560 -130 502 -177 600 -99 c 0
 620 -83 626 -77 641 -77 c 0
 656 -77 662 -83 682 -99 c 0
 780 -177 722 -130 790 -187 c 0
 802 -197 797 -210 782 -210 c 0
 769 -210 759 -202 747 -195 c 0
 698 -169 677 -161 651 -146 c 0
EndSplineSet
Refer: 28 78 N 1 0 0 1 0 0 3
Validated: 1
EndChar

StartChar: uni1E4C
Encoding: 7756 7756 429
Width: 763
VWidth: 0
Flags: W
HStem: -14 39<309.694 487.027> 625 39<289.881 469.419> 727 63<327.703 487.667> 736 65<286.243 443.797> 957.767 72<641.296 750.018>
VStem: 45 97<219.261 444.186> 245 280 621 97<206.698 451.883>
LayerCount: 2
Fore
SplineSet
537.977 908.767 m 0xcf
 528.977 906.767 515.977 903.767 503.977 906.767 c 0
 495.977 908.767 495.977 921.767 506.977 928.767 c 0
 575.977 972.767 607.977 992.767 670.977 1024.77 c 0
 688.977 1034.77 704.977 1038.77 722.977 1029.77 c 24
 743.977 1019.77 756.977 1005.77 757.977 983.767 c 24
 757.977 967.767 739.977 960.767 725.977 957.767 c 0
 664.977 942.767 590.977 923.767 537.977 908.767 c 0xcf
EndSplineSet
Refer: 149 213 N 1 0 0 1 0 0 3
Validated: 33
EndChar
StartChar: uni1E4E
Encoding: 7758 7758 431
Width: 763
VWidth: 0
Flags: W
HStem: -14 39<309.694 487.027> 625 39<289.881 469.419> 727 63<327.703 487.667> 736 65<286.243 443.797> 905.498 110<382.823 469.13 572.823 659.13>
VStem: 45 97<219.261 444.186> 245 280 370.977 110<917.345 1003.65> 560.977 110<917.345 1003.65> 621 97<206.698 451.883>
LayerCount: 2
Fore
SplineSet
615.977 1015.5 m 24xcc80
 645.977 1015.5 670.977 990.498 670.977 960.498 c 24
 670.977 930.498 645.977 905.498 615.977 905.498 c 24
 585.977 905.498 560.977 930.498 560.977 960.498 c 24
 560.977 990.498 585.977 1015.5 615.977 1015.5 c 24xcc80
425.977 1015.5 m 24
 455.977 1015.5 480.977 990.498 480.977 960.498 c 24
 480.977 930.498 455.977 905.498 425.977 905.498 c 24
 395.977 905.498 370.977 930.498 370.977 960.498 c 24xcd
 370.977 990.498 395.977 1015.5 425.977 1015.5 c 24
EndSplineSet
Refer: 149 213 N 1 0 0 1 0 0 3
Validated: 1
EndChar
StartChar: uni1E50
Encoding: 7760 7760 433
Width: 763
VWidth: 0
Flags: W
HStem: -14 39<309.694 487.027> 625 39<289.881 469.419> 723 54<236.625 528.251> 890.269 72<166.247 274.968>
VStem: 45 97<219.261 444.186> 233 300<725.522 776.788> 621 97<206.698 451.883>
LayerCount: 2
Fore
SplineSet
378.288 841.269 m 0
 325.288 856.269 251.288 875.269 190.288 890.269 c 0
 176.288 893.269 158.288 900.269 158.288 916.269 c 24
 159.288 938.269 172.288 952.269 193.288 962.269 c 24
 211.288 971.269 227.288 967.269 245.288 957.269 c 0
 308.288 925.269 340.288 905.269 409.288 861.269 c 0
 420.288 854.269 420.288 841.269 412.288 839.269 c 0
 400.288 836.269 387.288 839.269 378.288 841.269 c 0
EndSplineSet
Refer: 241 332 N 1 0 0 1 0 0 3
Validated: 33
EndChar
StartChar: uni1E52
Encoding: 7762 7762 435
Width: 763
VWidth: 0
Flags: W
HStem: -14 39<309.694 487.027> 625 39<289.881 469.419> 723 54<236.625 528.251> 890.269 72<515.608 624.329>
VStem: 45 97<219.261 444.186> 233 300<725.522 776.788> 621 97<206.698 451.883>
LayerCount: 2
Fore
SplineSet
412.288 841.269 m 0
 403.288 839.269 390.288 836.269 378.288 839.269 c 0
 370.288 841.269 370.288 854.269 381.288 861.269 c 0
 450.288 905.269 482.288 925.269 545.288 957.269 c 0
 563.288 967.269 579.288 971.269 597.288 962.269 c 24
 618.288 952.269 631.288 938.269 632.288 916.269 c 24
 632.288 900.269 614.288 893.269 600.288 890.269 c 0
 539.288 875.269 465.288 856.269 412.288 841.269 c 0
EndSplineSet
Refer: 241 332 N 1 0 0 1 0 0 3
Validated: 33
EndChar

StartChar: uni1E54
Encoding: 7764 7764 437
Width: 552
VWidth: 0
Flags: W
HStem: -5 29<24.6924 100.631 239.305 309.308> 254 26<258.314 361.048> 622 31<37.0745 105.304> 630 27<222.831 344.136> 776.27 72<394.32 503.041>
VStem: 130 80<45.1651 603.448> 449 88<375.554 548.301>
LayerCount: 2
Fore
SplineSet
291 727.27 m 0xce
 282 725.27 269 722.27 257 725.27 c 0
 249 727.27 249 740.27 260 747.27 c 0
 329 791.27 361 811.27 424 843.27 c 0
 442 853.27 458 857.27 476 848.27 c 24
 497 838.27 510 824.27 511 802.27 c 24
 511 786.27 493 779.27 479 776.27 c 0
 418 761.27 344 742.27 291 727.27 c 0xce
EndSplineSet
Refer: 26 80 N 1 0 0 1 0 0 3
Validated: 33
EndChar
StartChar: uni1E5C
Encoding: 7772 7772 445
Width: 689
VWidth: 0
Flags: W
HStem: -191 110<593.847 680.153> -21 46<603.627 713.254> -5 29<24.6924 100.631 240.775 309.308> 627 30<36.0088 96.507 226.614 346.609> 724 54<131.456 421.475>
VStem: 130 80<46.2739 302.04 331.373 603.448> 412 90<411.692 573.392> 582 110<-179.153 -92.847>
LayerCount: 2
Fore
SplineSet
151.788 778 m 30x9f
 414.788 778 l 30
 422.239 778 430.145 771.068 427.788 764 c 28
 421.547 745.276 416.524 724 396.788 724 c 30
 141.788 724 l 30
 134.597 724 127.788 730 127.788 736 c 4
 127.788 745 132.923 778 151.788 778 c 30x9f
EndSplineSet
Refer: 443 7770 N 1 0 0 1 0 0 3
Validated: 1
EndChar

StartChar: uni1E5E
Encoding: 7774 7774 447
Width: 689
VWidth: 0
Flags: W
HStem: -135 54<490.456 780.475> -21 46<603.627 713.254> -5 29<24.6924 100.631 240.775 309.308> 627 30<36.0088 96.507 226.614 346.609>
VStem: 130 80<46.2739 302.04 331.373 603.448> 412 90<411.692 573.392>
LayerCount: 2
Fore
SplineSet
510.788 -81 m 30x9c
 773.788 -81 l 30
 781.239 -81 789.145 -87.9316 786.788 -95 c 28
 780.547 -113.724 775.524 -135 755.788 -135 c 30
 500.788 -135 l 30
 493.597 -135 486.788 -129 486.788 -123 c 4
 486.788 -114 491.923 -81 510.788 -81 c 30x9c
EndSplineSet
Refer: 29 82 N 1 0 0 1 0 0 3
Validated: 1
EndChar
StartChar: uni1E6E
Encoding: 7790 7790 463
Width: 670
VWidth: 0
Flags: W
HStem: -119 54<189.956 479.975> -5 29<185.692 261.52 411.207 487.308> 604 38<106.512 292.507 378.966 603.53>
VStem: 296 80<48.375 600.468> 619 35<517.175 586.637>
LayerCount: 2
Fore
SplineSet
210.288 -65 m 30
 473.288 -65 l 30
 480.739 -65 488.645 -71.9316 486.288 -79 c 28
 480.047 -97.7236 475.024 -119 455.288 -119 c 30
 200.288 -119 l 30
 193.097 -119 186.288 -113 186.288 -107 c 4
 186.288 -98 191.423 -65 210.288 -65 c 30
EndSplineSet
Refer: 34 84 N 1 0 0 1 0 0 3
Validated: 1
EndChar
StartChar: uni1E74
Encoding: 7796 7796 469
Width: 738
VWidth: 0
Flags: W
HStem: -175.498 63<302.709 487.648> -167.498 63<271.829 459.742> -14 50<312.955 480.757> 620 33<25.4669 83.9594 202.114 256.781 515.06 566.939 662.499 726.313>
VStem: 103 80<187.656 606.064> 588 57<326.698 604.72> 592 43<165.341 460.842>
LayerCount: 2
Fore
SplineSet
219.976 -181.498 m 0x78
 245.38 -145.218 291.976 -104.498 306.976 -104.498 c 0x78
 331.976 -104.498 438.976 -112.498 463.976 -112.498 c 0
 478.976 -112.498 503.976 -97.498 520.976 -75.498 c 0
 525.976 -68.498 543.824 -88.001 539.976 -93.498 c 4
 522.533 -118.408 472.976 -175.498 457.976 -175.498 c 0xb8
 432.976 -175.498 320.976 -167.498 295.976 -167.498 c 0
 280.976 -167.498 256.976 -181.498 240.976 -199.498 c 0
 235.976 -204.498 216.127 -186.995 219.976 -181.498 c 0x78
EndSplineSet
Refer: 48 85 N 1 0 0 1 0 0 3
Validated: 1
EndChar

StartChar: uni1E78
Encoding: 7800 7800 473
Width: 738
VWidth: 0
Flags: W
HStem: -14 50<312.955 480.757> 620 33<25.4669 83.9594 202.114 256.781 515.06 566.939 662.499 726.313> 727 63<334.703 494.667> 736 65<293.243 450.797> 962.655 72<640.274 748.995>
VStem: 103 80<187.656 606.064> 252 280 588 57<326.698 604.72> 592 43<165.341 460.842>
LayerCount: 2
Fore
SplineSet
536.954 913.655 m 0xce
 527.954 911.655 514.954 908.655 502.954 911.655 c 0
 494.954 913.655 494.954 926.655 505.954 933.655 c 0
 574.954 977.655 606.954 997.655 669.954 1029.66 c 0
 687.954 1039.66 703.954 1043.66 721.954 1034.66 c 24
 742.954 1024.66 755.954 1010.66 756.954 988.655 c 24
 756.954 972.655 738.954 965.655 724.954 962.655 c 0
 663.954 947.655 589.954 928.655 536.954 913.655 c 0xce
EndSplineSet
Refer: 265 360 N 1 0 0 1 0 0 3
Validated: 33
EndChar
StartChar: uni1E7A
Encoding: 7802 7802 475
Width: 738
VWidth: 0
Flags: W
HStem: -14 50<312.955 480.757> 620 33<25.4669 83.9594 202.114 256.781 515.06 566.939 662.499 726.313> 723 54<243.625 535.251> 838 110<243.135 329.441 433.135 519.441>
VStem: 103 80<187.656 606.064> 231.288 110<849.847 936.153> 240 300<725.522 776.788> 421.288 110<849.847 936.153> 588 57<326.698 604.72> 592 43<165.341 460.842>
LayerCount: 2
Fore
SplineSet
476.288 948 m 24xf9
 506.288 948 531.288 923 531.288 893 c 24
 531.288 863 506.288 838 476.288 838 c 24
 446.288 838 421.288 863 421.288 893 c 24
 421.288 923 446.288 948 476.288 948 c 24xf9
286.288 948 m 24
 316.288 948 341.288 923 341.288 893 c 24
 341.288 863 316.288 838 286.288 838 c 24
 256.288 838 231.288 863 231.288 893 c 24xfc
 231.288 923 256.288 948 286.288 948 c 24
EndSplineSet
Refer: 267 362 N 1 0 0 1 0 0 3
Validated: 1
EndChar

StartChar: uni1E7C
Encoding: 7804 7804 477
Width: 672
VWidth: 0
Flags: W
HStem: 620 33<1.64938 63.9711 212.544 280.926 408.06 472.695 603.579 676.313> 748.888 63<261.709 446.648> 756.888 63<230.829 418.742>
VStem: 0 190<554 646>
LayerCount: 2
Fore
SplineSet
178.976 742.888 m 0xb0
 204.38 779.168 250.976 819.888 265.976 819.888 c 0xb0
 290.976 819.888 397.976 811.888 422.976 811.888 c 0
 437.976 811.888 462.976 826.888 479.976 848.888 c 0
 484.976 855.888 502.824 836.385 498.976 830.888 c 4
 481.533 805.978 431.976 748.888 416.976 748.888 c 0xd0
 391.976 748.888 279.976 756.888 254.976 756.888 c 0
 239.976 756.888 215.976 742.888 199.976 724.888 c 0
 194.976 719.888 175.127 737.391 178.976 742.888 c 0xb0
EndSplineSet
Refer: 37 86 N 1 0 0 1 0 0 3
Validated: 1
EndChar

StartChar: Wgrave
Encoding: 7808 7808 481
Width: 916
VWidth: 0
Flags: W
HStem: -12 21<619.5 625> 620 33<1.64938 66.5039 189.109 238.926 266.649 333.392 613.369 689.313 711.06 766.25 860.08 928.313> 776.27 72<235.959 344.68>
VStem: 0 187<577.5 646> 458 72<359.172 429.281>
LayerCount: 2
Fore
SplineSet
448 727.27 m 0
 395 742.27 321 761.27 260 776.27 c 0
 246 779.27 228 786.27 228 802.27 c 24
 229 824.27 242 838.27 263 848.27 c 24
 281 857.27 297 853.27 315 843.27 c 0
 378 811.27 410 791.27 479 747.27 c 0
 490 740.27 490 727.27 482 725.27 c 0
 470 722.27 457 725.27 448 727.27 c 0
EndSplineSet
Refer: 38 87 N 1 0 0 1 0 0 3
Validated: 33
EndChar
StartChar: Wacute
Encoding: 7810 7810 483
Width: 916
VWidth: 0
Flags: W
HStem: -12 21<619.5 625> 620 33<1.64938 66.5039 189.109 238.926 266.649 333.392 613.369 689.313 711.06 766.25 860.08 928.313> 776.27 72<585.32 694.041>
VStem: 0 187<577.5 646> 458 72<359.172 429.281>
LayerCount: 2
Fore
SplineSet
482 727.27 m 0
 473 725.27 460 722.27 448 725.27 c 0
 440 727.27 440 740.27 451 747.27 c 0
 520 791.27 552 811.27 615 843.27 c 0
 633 853.27 649 857.27 667 848.27 c 24
 688 838.27 701 824.27 702 802.27 c 24
 702 786.27 684 779.27 670 776.27 c 0
 609 761.27 535 742.27 482 727.27 c 0
EndSplineSet
Refer: 38 87 N 1 0 0 1 0 0 3
Validated: 33
EndChar
StartChar: uni1E8C
Encoding: 7820 7820 493
Width: 707
VWidth: 0
Flags: W
HStem: -5 33<-3.35062 67.7729 203.123 267.861 395.055 453.346 626.864 697.313> 622 33<19.6494 91.1203 243.386 317.637 443.217 513.033 626.879 693.56> 724 110<528.847 615.153 718.847 805.153>
VStem: 314 86<309.609 350.5> 517 110<735.847 822.153> 707 110<735.847 822.153>
LayerCount: 2
Fore
SplineSet
762 834 m 24
 792 834 817 809 817 779 c 24
 817 749 792 724 762 724 c 24
 732 724 707 749 707 779 c 24
 707 809 732 834 762 834 c 24
572 834 m 24
 602 834 627 809 627 779 c 24
 627 749 602 724 572 724 c 24
 542 724 517 749 517 779 c 24
 517 809 542 834 572 834 c 24
EndSplineSet
Refer: 63 88 N 1 0 0 1 0 0 3
Validated: 1
EndChar
StartChar: uni1E90
Encoding: 7824 7824 497
Width: 603
VWidth: 0
Flags: W
HStem: -2 38<180.367 479.543> 604 42<110.395 431.997>
VStem: 36 37<506.312 565.979>
LayerCount: 2
Fore
SplineSet
95 793 m 0
 84 800 86 800 75 793 c 0
 49 778 45 774 -4 748 c 0
 -16 741 -43 730 -56 730 c 0
 -71 730 -76 742 -64 752 c 0
 4 809 -54 762 44 840 c 0
 64 856 70 862 85 862 c 0
 100 862 106 856 126 840 c 0
 224 762 166 809 234 752 c 0
 246 742 241 729 226 729 c 0
 213 729 203 737 191 744 c 0
 142 770 121 778 95 793 c 0
EndSplineSet
Refer: 64 90 N 1 0 0 1 0 0 3
Validated: 1
EndChar

StartChar: uni1E94
Encoding: 7828 7828 501
Width: 603
VWidth: 0
Flags: W
HStem: -119 54<386.456 676.475> -2 38<180.367 479.543> 604 42<110.395 431.997>
VStem: 36 37<506.312 565.979>
LayerCount: 2
Fore
SplineSet
406.788 -65 m 30
 669.788 -65 l 30
 677.239 -65 685.145 -71.9316 682.788 -79 c 28
 676.547 -97.7236 671.524 -119 651.788 -119 c 30
 396.788 -119 l 30
 389.597 -119 382.788 -113 382.788 -107 c 4
 382.788 -98 387.923 -65 406.788 -65 c 30
EndSplineSet
Refer: 64 90 N 1 0 0 1 0 0 3
Validated: 1
EndChar

StartChar: uni1EA4
Encoding: 7844 7844 510
Width: 684
VWidth: 0
Flags: W
HStem: -5 36<-0.573315 70.1888 195.015 266.525 401.311 474.5 612.158 694.277> 244 43<241.006 430.822> 701 132 944.269 72<483.233 591.954>
VStem: 217 291<705 715>
LayerCount: 2
Fore
SplineSet
379.913 895.269 m 0
 370.913 893.269 357.913 890.269 345.913 893.269 c 0
 337.913 895.269 337.913 908.269 348.913 915.269 c 0
 417.913 959.269 449.913 979.269 512.913 1011.27 c 0
 530.913 1021.27 546.913 1025.27 564.913 1016.27 c 24
 585.913 1006.27 598.913 992.269 599.913 970.269 c 24
 599.913 954.269 581.913 947.269 567.913 944.269 c 0
 506.913 929.269 432.913 910.269 379.913 895.269 c 0
EndSplineSet
Refer: 132 194 N 1 0 0 1 0 0 3
Validated: 33
EndChar
StartChar: uni1EA6
Encoding: 7846 7846 512
Width: 684
VWidth: 0
Flags: W
HStem: -5 36<-0.573315 70.1888 195.015 266.525 401.311 474.5 612.158 694.277> 244 43<241.006 430.822> 701 132 944.269 72<133.872 242.593>
VStem: 217 291<705 715>
LayerCount: 2
Fore
SplineSet
345.913 895.269 m 0
 292.913 910.269 218.913 929.269 157.913 944.269 c 0
 143.913 947.269 125.913 954.269 125.913 970.269 c 24
 126.913 992.269 139.913 1006.27 160.913 1016.27 c 24
 178.913 1025.27 194.913 1021.27 212.913 1011.27 c 0
 275.913 979.269 307.913 959.269 376.913 915.269 c 0
 387.913 908.269 387.913 895.269 379.913 893.269 c 0
 367.913 890.269 354.913 893.269 345.913 895.269 c 0
EndSplineSet
Refer: 132 194 N 1 0 0 1 0 0 3
Validated: 33
EndChar
StartChar: uni1EAA
Encoding: 7850 7850 514
Width: 684
VWidth: 0
Flags: W
HStem: -5 36<-0.573315 70.1888 195.015 266.525 401.311 474.5 612.158 694.277> 244 43<241.006 430.822> 701 132 916.888 63<285.622 470.562> 924.888 63<254.742 442.656>
VStem: 217 291<705 715>
LayerCount: 2
Fore
SplineSet
202.889 910.888 m 0xec
 228.293 947.168 274.889 987.888 289.889 987.888 c 0xec
 314.889 987.888 421.889 979.888 446.889 979.888 c 0
 461.889 979.888 486.889 994.888 503.889 1016.89 c 0
 508.889 1023.89 526.737 1004.38 522.889 998.888 c 4
 505.446 973.978 455.889 916.888 440.889 916.888 c 0xf4
 415.889 916.888 303.889 924.888 278.889 924.888 c 0
 263.889 924.888 239.889 910.888 223.889 892.888 c 0
 218.889 887.888 199.04 905.391 202.889 910.888 c 0xec
EndSplineSet
Refer: 132 194 N 1 0 0 1 0 0 3
Validated: 1
EndChar
StartChar: uni1EAC
Encoding: 7852 7852 516
Width: 684
VWidth: 0
Flags: W
HStem: -175 110<304.347 390.653> -5 36<-0.573315 70.1888 195.015 266.525 401.311 474.5 612.158 694.277> 244 43<241.006 430.822>
VStem: 292.5 110<-163.153 -76.847>
LayerCount: 2
Fore
SplineSet
385 800 m 0
 374 807 376 807 365 800 c 0
 339 785 335 781 286 755 c 0
 274 748 247 737 234 737 c 0
 219 737 214 749 226 759 c 0
 294 816 236 769 334 847 c 0
 354 863 360 869 375 869 c 0
 390 869 396 863 416 847 c 0
 514 769 456 816 524 759 c 0
 536 749 531 736 516 736 c 0
 503 736 493 744 481 751 c 0
 432 777 411 785 385 800 c 0
EndSplineSet
Refer: 508 7840 N 1 0 0 1 0 0 3
Validated: 1
EndChar

StartChar: uni1EAE
Encoding: 7854 7854 518
Width: 684
VWidth: 0
Flags: W
HStem: -5 36<-0.573315 70.1888 195.015 266.525 401.311 474.5 612.158 694.277> 244 43<241.006 430.822> 692 70<286.213 439.787> 1002.27 72<495.32 604.041>
VStem: 213 300<758 835>
LayerCount: 2
Fore
SplineSet
392 953.269 m 0
 383 951.269 370 948.269 358 951.269 c 0
 350 953.269 350 966.269 361 973.269 c 0
 430 1017.27 462 1037.27 525 1069.27 c 0
 543 1079.27 559 1083.27 577 1074.27 c 24
 598 1064.27 611 1050.27 612 1028.27 c 24
 612 1012.27 594 1005.27 580 1002.27 c 0
 519 987.269 445 968.269 392 953.269 c 0
EndSplineSet
Refer: 181 258 N 1 0 0 1 0 0 3
Validated: 33
EndChar

StartChar: uni1EB0
Encoding: 7856 7856 520
Width: 684
VWidth: 0
Flags: W
HStem: -5 36<-0.573315 70.1888 195.015 266.525 401.311 474.5 612.158 694.277> 244 43<241.006 430.822> 692 70<286.213 439.787> 1002.27 72<145.959 254.68>
VStem: 213 300<758 835>
LayerCount: 2
Fore
SplineSet
358 953.269 m 0
 305 968.269 231 987.269 170 1002.27 c 0
 156 1005.27 138 1012.27 138 1028.27 c 24
 139 1050.27 152 1064.27 173 1074.27 c 24
 191 1083.27 207 1079.27 225 1069.27 c 0
 288 1037.27 320 1017.27 389 973.269 c 0
 400 966.269 400 953.269 392 951.269 c 0
 380 948.269 367 951.269 358 953.269 c 0
EndSplineSet
Refer: 181 258 N 1 0 0 1 0 0 3
Validated: 33
EndChar

StartChar: uni1EB4
Encoding: 7860 7860 522
Width: 684
VWidth: 0
Flags: W
HStem: -5 36<-0.573315 70.1888 195.015 266.525 401.311 474.5 612.158 694.277> 244 43<241.006 430.822> 692 70<286.213 439.787> 974.888 63<297.709 482.648> 982.888 63<266.829 454.742>
VStem: 213 300<758 835>
LayerCount: 2
Fore
SplineSet
214.976 968.888 m 0xec
 240.38 1005.17 286.976 1045.89 301.976 1045.89 c 0xec
 326.976 1045.89 433.976 1037.89 458.976 1037.89 c 0
 473.976 1037.89 498.976 1052.89 515.976 1074.89 c 0
 520.976 1081.89 538.824 1062.38 534.976 1056.89 c 4
 517.533 1031.98 467.976 974.888 452.976 974.888 c 0xf4
 427.976 974.888 315.976 982.888 290.976 982.888 c 0
 275.976 982.888 251.976 968.888 235.976 950.888 c 0
 230.976 945.888 211.127 963.391 214.976 968.888 c 0xec
EndSplineSet
Refer: 181 258 N 1 0 0 1 0 0 3
Validated: 1
EndChar
StartChar: uni1EB6
Encoding: 7862 7862 524
Width: 684
VWidth: 0
Flags: W
HStem: -175 110<304.347 390.653> -5 36<-0.573315 70.1888 195.015 266.525 401.311 474.5 612.158 694.277> 244 43<241.006 430.822> 736 70<298.213 451.787>
VStem: 292.5 110<-163.153 -76.847>
LayerCount: 2
Fore
SplineSet
257 869 m 0
 269 847 305 806 375 806 c 0
 445 806 481 847 493 869 c 0
 498 878 505 890 515 890 c 0
 525 890 525 879 525 866 c 0
 525 802 455 736 375 736 c 0
 295 736 225 791 225 866 c 0
 225 879 225 890 235 890 c 0
 245 890 252 878 257 869 c 0
EndSplineSet
Refer: 508 7840 N 1 0 0 1 0 0 3
Validated: 1
EndChar
StartChar: uni1EBC
Encoding: 7868 7868 528
Width: 535
VWidth: 0
Flags: W
HStem: -5 29<23.6924 99.9253> -5 40<228 455.39> 320 32<210.253 367.094> 388 20<400.5 405.5> 618 35<32.1729 114.247 219.165 433.859> 748.888 63<181.209 366.148> 756.888 63<150.329 338.242>
VStem: 130 80<51.352 319.809 352 605.889> 383 32<253.771 304.565> 466 25<526.084 573.315>
LayerCount: 2
Fore
SplineSet
98.4756 742.888 m 0x3bc0
 123.88 779.168 170.476 819.888 185.476 819.888 c 0x3bc0
 210.476 819.888 317.476 811.888 342.476 811.888 c 0
 357.476 811.888 382.476 826.888 399.476 848.888 c 0
 404.476 855.888 422.324 836.385 418.476 830.888 c 4
 401.033 805.978 351.476 748.888 336.476 748.888 c 0x3dc0
 311.476 748.888 199.476 756.888 174.476 756.888 c 0
 159.476 756.888 135.476 742.888 119.476 724.888 c 0
 114.476 719.888 94.627 737.391 98.4756 742.888 c 0x3bc0
EndSplineSet
Refer: 35 69 N 1 0 0 1 0 0 3
Validated: 1
EndChar

StartChar: uni1EBE
Encoding: 7870 7870 530
Width: 535
VWidth: 0
Flags: W
HStem: -5 29<23.6924 99.9253> -5 40<228 455.39> 320 32<210.253 367.094> 388 20<400.5 405.5> 618 35<32.1729 114.247 219.165 433.859> 702 132 944.269 72<392.262 500.983>
VStem: 130 80<51.352 319.809 352 605.889> 141 291<706 716> 383 32<253.771 304.565> 466 25<526.084 573.315>
LayerCount: 2
Fore
SplineSet
288.942 895.269 m 0x3e20
 279.942 893.269 266.942 890.269 254.942 893.269 c 0
 246.942 895.269 246.942 908.269 257.942 915.269 c 0
 326.942 959.269 358.942 979.269 421.942 1011.27 c 0
 439.942 1021.27 455.942 1025.27 473.942 1016.27 c 24
 494.942 1006.27 507.942 992.269 508.942 970.269 c 24
 508.942 954.269 490.942 947.269 476.942 944.269 c 0
 415.942 929.269 341.942 910.269 288.942 895.269 c 0x3e20
EndSplineSet
Refer: 139 202 N 1 0 0 1 0 0 3
Validated: 33
EndChar
StartChar: uni1EC0
Encoding: 7872 7872 532
Width: 535
VWidth: 0
Flags: W
HStem: -5 29<23.6924 99.9253> -5 40<228 455.39> 320 32<210.253 367.094> 388 20<400.5 405.5> 618 35<32.1729 114.247 219.165 433.859> 702 132 944.269 72<42.9014 151.623>
VStem: 130 80<51.352 319.809 352 605.889> 141 291<706 716> 383 32<253.771 304.565> 466 25<526.084 573.315>
LayerCount: 2
Fore
SplineSet
254.942 895.269 m 0x3e20
 201.942 910.269 127.942 929.269 66.9424 944.269 c 0
 52.9424 947.269 34.9424 954.269 34.9424 970.269 c 24
 35.9424 992.269 48.9424 1006.27 69.9424 1016.27 c 24
 87.9424 1025.27 103.942 1021.27 121.942 1011.27 c 0
 184.942 979.269 216.942 959.269 285.942 915.269 c 0
 296.942 908.269 296.942 895.269 288.942 893.269 c 0
 276.942 890.269 263.942 893.269 254.942 895.269 c 0x3e20
EndSplineSet
Refer: 139 202 N 1 0 0 1 0 0 3
Validated: 33
EndChar

StartChar: uni1EC4
Encoding: 7876 7876 534
Width: 535
VWidth: 0
Flags: W
HStem: -5 29<23.6924 99.9253> -5 40<228 455.39> 320 32<210.253 367.094> 388 20<400.5 405.5> 618 35<32.1729 114.247 219.165 433.859> 702 132 916.888 63<194.652 379.592> 924.888 63<163.772 351.686>
VStem: 130 80<51.352 319.809 352 605.889> 141 291<706 716> 383 32<253.771 304.565> 466 25<526.084 573.315>
LayerCount: 2
Fore
SplineSet
111.919 910.888 m 0x3d10
 137.323 947.168 183.919 987.888 198.919 987.888 c 0x3d10
 223.919 987.888 330.919 979.888 355.919 979.888 c 0
 370.919 979.888 395.919 994.888 412.919 1016.89 c 0
 417.919 1023.89 435.768 1004.38 431.919 998.888 c 4
 414.477 973.978 364.919 916.888 349.919 916.888 c 0x3e10
 324.919 916.888 212.919 924.888 187.919 924.888 c 0
 172.919 924.888 148.919 910.888 132.919 892.888 c 0
 127.919 887.888 108.07 905.391 111.919 910.888 c 0x3d10
EndSplineSet
Refer: 139 202 N 1 0 0 1 0 0 3
Validated: 1
EndChar
StartChar: uni1EC6
Encoding: 7878 7878 536
Width: 535
VWidth: 0
Flags: W
HStem: -175 110<229.847 316.153> -5 29<23.6924 99.9253> -5 40<228 455.39> 320 32<210.253 367.094> 388 20<400.5 405.5> 618 35<32.1729 114.247 219.165 433.859>
VStem: 130 80<51.352 319.809 352 605.889> 218 110<-163.153 -76.847> 383 32<253.771 304.565> 466 25<526.084 573.315>
LayerCount: 2
Fore
SplineSet
268.5 788 m 0x9fc0
 257.5 795 259.5 795 248.5 788 c 0
 222.5 773 218.5 769 169.5 743 c 0
 157.5 736 130.5 725 117.5 725 c 0
 102.5 725 97.5 737 109.5 747 c 0
 177.5 804 119.5 757 217.5 835 c 0
 237.5 851 243.5 857 258.5 857 c 0
 273.5 857 279.5 851 299.5 835 c 0
 397.5 757 339.5 804 407.5 747 c 0
 419.5 737 414.5 724 399.5 724 c 0
 386.5 724 376.5 732 364.5 739 c 0
 315.5 765 294.5 773 268.5 788 c 0x9fc0
EndSplineSet
Refer: 526 7864 N 1 0 0 1 0 0 3
Validated: 1
EndChar

StartChar: uni1ED0
Encoding: 7888 7888 542
Width: 763
VWidth: 0
Flags: W
HStem: -14 39<309.694 487.027> 625 39<289.881 469.419> 701 132 944.269 72<497.32 606.041>
VStem: 45 97<219.261 444.186> 237 291<705 715> 621 97<206.698 451.883>
LayerCount: 2
Fore
SplineSet
394 895.269 m 0
 385 893.269 372 890.269 360 893.269 c 0
 352 895.269 352 908.269 363 915.269 c 0
 432 959.269 464 979.269 527 1011.27 c 0
 545 1021.27 561 1025.27 579 1016.27 c 24
 600 1006.27 613 992.269 614 970.269 c 24
 614 954.269 596 947.269 582 944.269 c 0
 521 929.269 447 910.269 394 895.269 c 0
EndSplineSet
Refer: 148 212 N 1 0 0 1 0 0 3
Validated: 33
EndChar

StartChar: uni1ED2
Encoding: 7890 7890 544
Width: 763
VWidth: 0
Flags: W
HStem: -14 39<309.694 487.027> 625 39<289.881 469.419> 701 132 944.269 72<147.959 256.68>
VStem: 45 97<219.261 444.186> 237 291<705 715> 621 97<206.698 451.883>
LayerCount: 2
Fore
SplineSet
360 895.269 m 0
 307 910.269 233 929.269 172 944.269 c 0
 158 947.269 140 954.269 140 970.269 c 24
 141 992.269 154 1006.27 175 1016.27 c 24
 193 1025.27 209 1021.27 227 1011.27 c 0
 290 979.269 322 959.269 391 915.269 c 0
 402 908.269 402 895.269 394 893.269 c 0
 382 890.269 369 893.269 360 895.269 c 0
EndSplineSet
Refer: 148 212 N 1 0 0 1 0 0 3
Validated: 33
EndChar
StartChar: uni1ED6
Encoding: 7894 7894 546
Width: 763
VWidth: 0
Flags: W
HStem: -14 39<309.694 487.027> 625 39<289.881 469.419> 701 132 916.888 63<299.709 484.648> 924.888 63<268.829 456.742>
VStem: 45 97<219.261 444.186> 237 291<705 715> 621 97<206.698 451.883>
LayerCount: 2
Fore
SplineSet
216.976 910.888 m 0xef
 242.38 947.168 288.976 987.888 303.976 987.888 c 0xef
 328.976 987.888 435.976 979.888 460.976 979.888 c 0
 475.976 979.888 500.976 994.888 517.976 1016.89 c 0
 522.976 1023.89 540.824 1004.38 536.976 998.888 c 4
 519.533 973.978 469.976 916.888 454.976 916.888 c 0xf7
 429.976 916.888 317.976 924.888 292.976 924.888 c 0
 277.976 924.888 253.976 910.888 237.976 892.888 c 0
 232.976 887.888 213.127 905.391 216.976 910.888 c 0xef
EndSplineSet
Refer: 148 212 N 1 0 0 1 0 0 3
Validated: 1
EndChar
StartChar: uni1ED8
Encoding: 7896 7896 548
Width: 763
VWidth: 0
Flags: W
HStem: -184 110<338.847 425.153> -14 39<309.694 487.027> 625 39<289.881 469.419>
VStem: 45 97<219.261 444.186> 327 110<-172.153 -85.847> 621 97<206.698 451.883>
LayerCount: 2
Fore
SplineSet
400 788 m 0
 389 795 391 795 380 788 c 0
 354 773 350 769 301 743 c 0
 289 736 262 725 249 725 c 0
 234 725 229 737 241 747 c 0
 309 804 251 757 349 835 c 0
 369 851 375 857 390 857 c 0
 405 857 411 851 431 835 c 0
 529 757 471 804 539 747 c 0
 551 737 546 724 531 724 c 0
 518 724 508 732 496 739 c 0
 447 765 426 773 400 788 c 0
EndSplineSet
Refer: 540 7884 N 1 0 0 1 0 0 3
Validated: 1
EndChar

StartChar: uni1EDA
Encoding: 7898 7898 550
Width: 783
VWidth: 0
Flags: W
HStem: -14 39<314.694 492.027> 625 39<291.968 474.205> 836.27 72<844.32 953.041>
VStem: 50 97<219.261 447.814> 626 97<206.698 451.269> 706 56<605.697 675.5>
LayerCount: 2
Fore
SplineSet
741 787.27 m 0xf0
 732 785.27 719 782.27 707 785.27 c 0
 699 787.27 699 800.27 710 807.27 c 0
 779 851.27 811 871.27 874 903.27 c 0
 892 913.27 908 917.27 926 908.27 c 24
 947 898.27 960 884.27 961 862.27 c 24
 961 846.27 943 839.27 929 836.27 c 0
 868 821.27 794 802.27 741 787.27 c 0xf0
EndSplineSet
Refer: 288 416 N 1 0 0 1 0 0 3
Validated: 33
EndChar

StartChar: uni1EDC
Encoding: 7900 7900 552
Width: 783
VWidth: 0
Flags: W
HStem: -14 39<314.694 492.027> 625 39<291.968 474.205> 836.27 72<494.959 603.68>
VStem: 50 97<219.261 447.814> 626 97<206.698 451.269> 706 56<605.697 675.5>
LayerCount: 2
Fore
SplineSet
707 787.27 m 0xf0
 654 802.27 580 821.27 519 836.27 c 0
 505 839.27 487 846.27 487 862.27 c 24
 488 884.27 501 898.27 522 908.27 c 24
 540 917.27 556 913.27 574 903.27 c 0
 637 871.27 669 851.27 738 807.27 c 0
 749 800.27 749 787.27 741 785.27 c 0
 729 782.27 716 785.27 707 787.27 c 0xf0
EndSplineSet
Refer: 288 416 N 1 0 0 1 0 0 3
Validated: 33
EndChar

StartChar: uni1EE0
Encoding: 7904 7904 554
Width: 783
VWidth: 0
Flags: W
HStem: -14 39<314.694 492.027> 625 39<291.968 474.205> 808.888 63<646.709 831.648> 816.888 63<615.829 803.742>
VStem: 50 97<219.261 447.814> 626 97<206.698 451.269> 706 56<605.697 675.5>
LayerCount: 2
Fore
SplineSet
563.976 802.888 m 0xd8
 589.38 839.168 635.976 879.888 650.976 879.888 c 0xd8
 675.976 879.888 782.976 871.888 807.976 871.888 c 0
 822.976 871.888 847.976 886.888 864.976 908.888 c 0
 869.976 915.888 887.824 896.385 883.976 890.888 c 4
 866.533 865.978 816.976 808.888 801.976 808.888 c 0xe8
 776.976 808.888 664.976 816.888 639.976 816.888 c 0
 624.976 816.888 600.976 802.888 584.976 784.888 c 0
 579.976 779.888 560.127 797.391 563.976 802.888 c 0xd8
EndSplineSet
Refer: 288 416 N 1 0 0 1 0 0 3
Validated: 1
EndChar
StartChar: Ygrave
Encoding: 7922 7922 560
Width: 578
VWidth: 0
Flags: W
HStem: -5 29<153.692 226.247 382.521 455.308> 620 33<1.64938 59.1406 191.55 253.781 385.06 452.318 547.1 611.313> 776.27 72<77.459 186.18>
VStem: 264 80<52.5 323.576> 458 155<579 646>
LayerCount: 2
Fore
SplineSet
289.5 727.27 m 0
 236.5 742.27 162.5 761.27 101.5 776.27 c 0
 87.5 779.27 69.5 786.27 69.5 802.27 c 24
 70.5 824.27 83.5 838.27 104.5 848.27 c 24
 122.5 857.27 138.5 853.27 156.5 843.27 c 0
 219.5 811.27 251.5 791.27 320.5 747.27 c 0
 331.5 740.27 331.5 727.27 323.5 725.27 c 0
 311.5 722.27 298.5 725.27 289.5 727.27 c 0
EndSplineSet
Refer: 49 89 N 1 0 0 1 0 0 3
Validated: 33
EndChar

StartChar: uni1EF8
Encoding: 7928 7928 564
Width: 578
VWidth: 0
Flags: W
HStem: -5 29<153.692 226.247 382.521 455.308> 620 33<1.64938 59.1406 191.55 253.781 385.06 452.318 547.1 611.313> 748.888 63<229.209 414.148> 756.888 63<198.329 386.242>
VStem: 264 80<52.5 323.576> 458 155<579 646>
LayerCount: 2
Fore
SplineSet
146.476 742.888 m 0xdc
 171.88 779.168 218.476 819.888 233.476 819.888 c 0xdc
 258.476 819.888 365.476 811.888 390.476 811.888 c 0
 405.476 811.888 430.476 826.888 447.476 848.888 c 0
 452.476 855.888 470.324 836.385 466.476 830.888 c 4
 449.033 805.978 399.476 748.888 384.476 748.888 c 0xec
 359.476 748.888 247.476 756.888 222.476 756.888 c 0
 207.476 756.888 183.476 742.888 167.476 724.888 c 0
 162.476 719.888 142.627 737.391 146.476 742.888 c 0xdc
EndSplineSet
Refer: 49 89 N 1 0 0 1 0 0 3
Validated: 1
EndChar
StartChar: uni1FB8
Encoding: 8120 8120 736
Width: 684
VWidth: 0
Flags: W
HStem: -5 36<-0.573315 70.1888 195.015 266.525 401.311 474.5 612.158 694.277> 244 43<241.006 430.822> 736 70<298.213 451.787>
LayerCount: 2
Fore
SplineSet
257 869 m 0
 269 847 305 806 375 806 c 0
 445 806 481 847 493 869 c 0
 498 878 505 890 515 890 c 0
 525 890 525 879 525 866 c 0
 525 802 455 736 375 736 c 0
 295 736 225 791 225 866 c 0
 225 879 225 890 235 890 c 0
 245 890 252 878 257 869 c 0
EndSplineSet
Refer: 631 913 N 1 0 0 1 0 0 3
Validated: 1
EndChar
StartChar: uni1FB9
Encoding: 8121 8121 737
Width: 684
VWidth: 0
Flags: W
HStem: -5 36<-0.573315 70.1888 195.015 266.525 401.311 474.5 612.158 694.277> 244 43<241.006 430.822> 736 54<228.456 518.475>
LayerCount: 2
Fore
SplineSet
248.788 790 m 30
 511.788 790 l 30
 519.239 790 527.145 783.068 524.788 776 c 28
 518.547 757.276 513.524 736 493.788 736 c 30
 238.788 736 l 30
 231.597 736 224.788 742 224.788 748 c 4
 224.788 757 229.923 790 248.788 790 c 30
EndSplineSet
Refer: 631 913 N 1 0 0 1 0 0 3
Validated: 1
EndChar
StartChar: uni1FD8
Encoding: 8152 8152 746
Width: 340
VWidth: 0
Flags: W
HStem: -5 29<19.6924 97.1038 243.602 321.308> 622 31<31.0745 107.441 235.205 312.926> 724 70<104.666 258.24>
VStem: 31.453 300<790 867> 130 80<46.75 604.158>
LayerCount: 2
Fore
SplineSet
63.4531 857 m 0xe0
 75.4531 835 111.453 794 181.453 794 c 0
 251.453 794 287.453 835 299.453 857 c 0
 304.453 866 311.453 878 321.453 878 c 0
 331.453 878 331.453 867 331.453 854 c 0
 331.453 790 261.453 724 181.453 724 c 0
 101.453 724 31.4531 779 31.4531 854 c 0
 31.4531 867 31.4531 878 41.4531 878 c 0
 51.4531 878 58.4531 866 63.4531 857 c 0xe0
EndSplineSet
Refer: 636 921 N 1 0 0 1 0 0 3
Validated: 1
EndChar
StartChar: uni1FD9
Encoding: 8153 8153 747
Width: 340
VWidth: 0
Flags: W
HStem: -5 29<19.6924 97.1038 243.602 321.308> 622 31<31.0745 107.441 235.205 312.926> 724 54<35.047 325.066>
VStem: 31.379 300 130 80<46.75 604.158>
LayerCount: 2
Fore
SplineSet
55.3789 778 m 30xe0
 318.379 778 l 30
 325.83 778 333.735 771.068 331.379 764 c 28
 325.138 745.276 320.115 724 300.379 724 c 30
 45.3789 724 l 30
 38.1875 724 31.3789 730 31.3789 736 c 4
 31.3789 745 36.5137 778 55.3789 778 c 30xe0
EndSplineSet
Refer: 636 921 N 1 0 0 1 0 0 3
Validated: 1
EndChar

StartChar: uni1FE8
Encoding: 8168 8168 751
Width: 739
VWidth: 0
Flags: W
HStem: -5 29<214.692 287.247 443.521 516.308> 600 50<99.3112 216.617 522.404 669.264> 724 70<538.884 692.458>
VStem: 325 80<52.5 440.676> 465.671 300<790 867>
LayerCount: 2
Fore
SplineSet
497.671 857 m 0
 509.671 835 545.671 794 615.671 794 c 0
 685.671 794 721.671 835 733.671 857 c 0
 738.671 866 745.671 878 755.671 878 c 0
 765.671 878 765.671 867 765.671 854 c 0
 765.671 790 695.671 724 615.671 724 c 0
 535.671 724 465.671 779 465.671 854 c 0
 465.671 867 465.671 878 475.671 878 c 0
 485.671 878 492.671 866 497.671 857 c 0
EndSplineSet
Refer: 643 933 N 1 0 0 1 0 0 3
Validated: 1
EndChar

StartChar: uni1FE9
Encoding: 8169 8169 752
Width: 739
VWidth: 0
Flags: W
HStem: -5 29<214.692 287.247 443.521 516.308> 600 50<99.3112 216.617 522.404 669.264> 724 54<469.265 759.284>
VStem: 325 80<52.5 440.676> 465.597 300
LayerCount: 2
Fore
SplineSet
489.597 778 m 30
 752.597 778 l 30
 760.048 778 767.953 771.068 765.597 764 c 28
 759.355 745.276 754.333 724 734.597 724 c 30
 479.597 724 l 30
 472.405 724 465.597 730 465.597 736 c 4
 465.597 745 470.731 778 489.597 778 c 30
EndSplineSet
Refer: 643 933 N 1 0 0 1 0 0 3
Validated: 1
EndChar
StartChar: uni2011
Encoding: 8209 8209 776
Width: 274
VWidth: 0
Flags: W
HStem: 170 85
VStem: 29 216
LayerCount: 2
Fore
SplineSet
39 170 m 0
 30 169 29 171 29 176 c 24
 31 198 35 229 45 230 c 0
 109 239 173 248 237 255 c 0
 241 255 245 253 245 249 c 0
 243 224 240 197 224 195 c 0
 164 186 103 177 39 170 c 0
EndSplineSet
Validated: 1
EndChar

StartChar: uni2015
Encoding: 8213 8213 778
Width: 2000
VWidth: 0
Flags: W
HStem: 185 54<53.6248 1943.83>
LayerCount: 2
Fore
SplineSet
74 239 m 26
 1937 239 l 26
 1944 239 1952 232 1950 225 c 24
 1944 206 1939 185 1919 185 c 26
 64 185 l 26
 57 185 50 191 50 197 c 0
 50 206 55 239 74 239 c 26
EndSplineSet
Validated: 1
EndChar
StartChar: quotedblright
Encoding: 8221 8221 58
Width: 420
VWidth: 0
Flags: W
HStem: 426 23<41.5641 86.3362 219.564 264.336> 602 88<72.4428 142.388 250.443 320.388>
VStem: 150 52<513.094 622.187> 328 52<513.094 622.187>
LayerCount: 2
Fore
SplineSet
289 602 m 0
 260 605 242 622 242 644 c 0
 242 671 268 690 297 690 c 0
 345 690 380 649 380 593 c 0
 380 492 289 428 238 426 c 0
 214 425 211 445 232 449 c 0
 275 458 328 488 328 558 c 0
 328 574 311 600 289 602 c 0
111 602 m 0
 82 605 64 622 64 644 c 0
 64 671 90 690 119 690 c 0
 167 690 202 649 202 593 c 0
 202 492 111 428 60 426 c 0
 36 425 33 445 54 449 c 0
 97 458 150 488 150 558 c 0
 150 574 133 600 111 602 c 0
EndSplineSet
Validated: 1
EndChar
StartChar: bullet
Encoding: 8226 8226 1172
Width: 310
VWidth: 0
Flags: W
HStem: 250 220<89.2202 220.78>
VStem: 45 220<294.22 425.78>
LayerCount: 2
Fore
SplineSet
155 470 m 24
 215.67 470 265 420.67 265 360 c 24
 265 299.33 215.67 250 155 250 c 24
 94.3301 250 45 299.33 45 360 c 28
 45 420.67 94.3301 470 155 470 c 24
EndSplineSet
Validated: 1
EndChar
StartChar: uni203D
Encoding: 8253 8253 1076
Width: 355
VWidth: 0
Flags: W
HStem: -14 120<101.715 194.285>
VStem: 68 132<605.655 655.461> 88 120<-0.284613 92.2846> 112 37<182.071 271.909> 258 55<390.5 498.123>
LayerCount: 2
Fore
SplineSet
148 106 m 0xa8
 181.093 106 208 79.0928 208 46 c 0
 208 12.9072 181.093 -14 148 -14 c 0
 114.907 -14 88 12.9072 88 46 c 0
 88 79.0928 114.907 106 148 106 c 0xa8
148 685 m 0
 177 686 200 670 200 633 c 0xc8
 200 630.481 199.982 627.909 199.948 625.287 c 1
 205.472 620.918 210.846 616.154 216 611 c 0
 272 555 313 466 313 415 c 0
 313 366 289 347 269 336 c 4
 225.084 311.846 211.098 303.849 179 283 c 4
 151.085 264.869 150 236 149 204 c 0
 149 194 144 181 134 181 c 0
 127 181 116 194 112 210 c 0x98
 106 233 100 247 96 293 c 0
 94.6084 309.699 102.254 324.031 117.339 337.893 c 1
 110.334 417.868 102.244 507.918 98.3429 571.846 c 1
 81.8728 579.789 68 603.055 68 625 c 0xc8
 68 641.873 86.138 657.168 102.105 660.382 c 1
 110.811 677.42 127.975 684.309 148 685 c 0
197.144 565.699 m 1
 193.086 509.25 185.31 442.059 177.819 377.068 c 1
 197 387 l 2
 224.914 401.172 258 429 258 458 c 0
 258 509.344 238.029 549.795 197.144 565.699 c 1
EndSplineSet
Validated: 33
EndChar
StartChar: uni2076
Encoding: 8310 8310 800
Width: 300
VWidth: 0
Flags: W
HStem: 426 20<129.606 192.025> 597.5 42.5<140.437 209.978>
VStem: 27 62<471.796 632.445> 221 52<487.865 589.723>
LayerCount: 2
Fore
SplineSet
221 530 m 0
 221 563 209 597.5 176 597.5 c 0
 161 597.5 148 594.5 137 586 c 0
 131.934 582.085 127 578.5 121.5 578.5 c 0
 116.5 578.5 114.5 583.5 114.5 588.5 c 0
 114.5 596.5 117.448 601.174 123.5 606.5 c 0
 136 617.5 171 640 193 640 c 0
 257 640 273 602 273 562 c 0
 273 504 229 426 145 426 c 4
 66 426 27 473 27 538 c 0
 26 621 73 675 95 696 c 0
 125 724 175 756 248 774 c 0
 252 774 257.946 768.6 256 764 c 24
 252.226 755.078 241 750 237 748 c 0
 183 727 89 670 89 538 c 0
 89 478 124 446 163 446 c 0
 200 446 221 474.5 221 530 c 0
EndSplineSet
Validated: 33
EndChar

StartChar: uni2077
Encoding: 8311 8311 801
Width: 300
VWidth: 0
Flags: W
HStem: 719 50<47.5658 217.578>
VStem: 20 27<676.608 714.889>
LayerCount: 2
Fore
SplineSet
224 710 m 0
 226 714 229.033 719 214 719 c 0
 175 719 111 719 81 719 c 0
 60 719 53 713 47 696 c 0
 44.4004 688.635 34 672 24 672 c 0
 15 672 18 689 20 698 c 0
 27 727 30 731 38 758 c 0
 40.5723 766.682 45 769 48 769 c 0
 51 769 85.9805 769 111 769 c 0
 208 769 236 769 275 769 c 0
 279.123 769 283 759 282 755 c 0
 273 737 265.924 728.043 254 707 c 0
 186 587 192 594 113 452 c 0
 106.74 440.748 98 425 94 425 c 0
 79 425 72 432 72 447 c 0
 72 451 80.1123 467.062 87 479 c 16
 177 635 155 591 224 710 c 0
EndSplineSet
Validated: 1
EndChar
StartChar: uni207F
Encoding: 8319 8319 808
Width: 332
VWidth: 0
Flags: W
HStem: 273 24<2.35742 38.713 104.198 137.684 191.357 227.885 291.799 327.643> 482 42<132.791 220.447>
VStem: 45 54<298.933 467.714> 233 54<298.52 470.515>
LayerCount: 2
Fore
SplineSet
287 324 m 2
 287 307 300 300 313 297 c 0
 320 294 328 289 328 283 c 0
 328 277 316 273 313 273 c 0
 287 273 281 273 258 273 c 0
 235 273 231 273 206 273 c 0
 203 273 191 277 191 283 c 0
 191 289 199 294 206 297 c 0
 219 300 233 307 233 324 c 2
 233 426 l 2
 233 461 207 482 172 482 c 0
 150 482 137 480 120 468 c 0
 111 462 99 449 99 424 c 0
 99 375 99 363 99 324 c 16
 99 310.42 110 300 123 297 c 0
 131 294 138 289 138 283 c 0
 138 277 127 273 123 273 c 0
 98 273 95 273 72 273 c 4
 49 273 43 273 17 273 c 0
 14 273 2 277 2 283 c 0
 2 289 10 294 17 297 c 0
 30 300 45 309.38 45 324 c 8
 45 369.63 45 402 45 441 c 0
 45 463 39 480 17 485 c 8
 11.2832 486.3 10.2578 498.817 16 500 c 16
 50 507 78 522 92 533 c 0
 95 534 105 530 105 528 c 0
 105 521 98 488 101 484 c 1
 120 498 165 524 206 524 c 0
 248 524 287 499 287 452 c 2
 287 324 l 2
EndSplineSet
Validated: 33
EndChar
StartChar: uni2081
Encoding: 8321 8321 810
Width: 193
VWidth: 0
Flags: W
HStem: -171 25<4.71573 56.4421 135.08 188.756>
VStem: 68 60<-140.157 85.0822>
LayerCount: 2
Fore
SplineSet
116 172 m 0
 127 177 133 170 132 160 c 0
 130 146 128 122 128 90 c 0
 127 1 127 -53 128 -100 c 0
 129 -139 134 -140 178 -146 c 0
 195 -148 194 -171 178 -171 c 0
 121 -171 128 -166 96 -166 c 24
 64 -166 68 -171 14 -171 c 0
 2 -171 -3 -147 14 -146 c 0
 41 -144 68 -141 68 -100 c 0
 68 -64 68 -16 68 53 c 0
 68 80 31 94 14 100 c 0
 -4 106 4 126 13 127 c 0
 64 132 104 166 116 172 c 0
EndSplineSet
Validated: 33
EndChar
StartChar: uni2090
Encoding: 8336 8336 823
Width: 270
VWidth: 0
Flags: W
HStem: -177 40<77.77 141.96 210.036 252.006> 46 33<90.2391 164.811>
VStem: 20 55<-134.684 -73.4696 -3.90067 30.4902> 155 56<-127.918 -57.0071 -38.3125 42.5068>
LayerCount: 2
Fore
SplineSet
75 -103 m 0
 75 -126 94 -137 107 -137 c 0
 124 -137 137 -126 147 -118 c 0
 152 -114 154 -110 154 -95 c 10
 155 -66 l 18
 155 -54 151 -52 140 -55 c 0
 90 -69 75 -89 75 -103 c 0
214 -177 m 0
 177 -177 164 -146 159 -146 c 0
 150 -146 132 -177 79 -177 c 4
 52 -177 20 -141 20 -118 c 0
 20 -93 26 -77 58 -65 c 10
 137 -37 l 18
 154 -31 155 -29 155 -13 c 2
 155 10 l 26
 155 30 142 46 118 46 c 0
 102 46 80 41 75 33 c 0
 72 27 72 15 73 8 c 0
 74 0 43 -7 28 -11 c 0
 24 -12 21 -8 24 -1 c 0
 30 14 33 24 49 37 c 0
 69 54 115 79 149 79 c 0
 180 79 212 54 211 26 c 10
 208 -98 l 26
 208 -115 210 -137 229 -137 c 0
 241 -137 246 -135 250 -129 c 0
 255 -122 265 -138 263 -144 c 0
 262 -147 238 -177 214 -177 c 0
EndSplineSet
Validated: 33
EndChar

StartChar: uni2093
Encoding: 8339 8339 826
Width: 266
VWidth: -323
Flags: W
HStem: -144 20<133.092 162.007 230.488 262.908> 77 25<14.4032 48.4291 203.493 256.641>
VStem: 2 261
LayerCount: 2
Fore
SplineSet
52 60 m 2
 48.8945 64.5391 42 73 29 77 c 0
 22 79 14 85 14 92 c 0
 14 98 26 102 29 102 c 0
 54 102 48 102 80 102 c 0
 96 102 98 103 113 103 c 0
 116 103 128 97 128 91 c 0
 128 84 121.759 78.7041 115 76 c 0
 110 74 113.032 62.2842 116 57 c 2
 132.4 27.7998 l 2
 142.063 12.1914 140.208 19.5869 146 27 c 2
 171 62 l 2
 172.585 64.2188 175 76 171 77 c 0
 163.937 78.7656 156 85 156 91 c 0
 156 97 168 102 171 102 c 0
 177 102 194 102 204 102 c 0
 227 102 234 102 243 102 c 0
 246 102 258 100 258 94 c 0
 258 88 250 80 243 78 c 0
 230 74 207.852 74.2764 197 58 c 18
 157 -2 l 2
 155.592 -3.73633 159 -11 161 -13 c 2
 221 -103 l 2
 226.559 -111.338 235 -120 248 -124 c 0
 255 -126 263 -128 263 -135 c 0
 263 -141 251 -144 248 -144 c 0
 223 -144 227 -144 195 -144 c 0
 179 -144 163 -144 148 -144 c 0
 145 -144 133 -141 133 -135 c 0
 133 -129 141 -124 148 -122 c 0
 161 -118 168.352 -112.407 160 -100 c 2
 125 -48 l 2
 123 -45 118 -53 117 -55 c 2
 78 -108 l 2
 75.0371 -112.026 74 -118 87 -122 c 0
 94 -124 102 -129 102 -135 c 0
 102 -141 90 -144 87 -144 c 0
 80 -144 70 -144 60 -144 c 0
 37 -144 28 -144 18 -144 c 0
 6 -144 2 -142 2 -136 c 0
 2 -129 10.793 -125.029 18 -124 c 0
 32 -122 50.4727 -101.024 56 -94 c 2
 104 -33 l 2
 109.161 -26.1182 107.383 -20.749 104 -16 c 2
 52 60 l 2
EndSplineSet
Validated: 1
EndChar
StartChar: uni2105
Encoding: 8453 8453 830
Width: 606
VWidth: 0
Flags: W
HStem: -5 29<426.641 498.091> 220 31<415.462 490.042> 401 42<111.786 216.086> 625 29<112.632 197.66>
VStem: 29 54<471.025 591.515> 328 63<52.5245 188.154> 524 63<54.0532 190.622>
LayerCount: 2
Fore
SplineSet
29 519 m 8
 29 594.012 90.9883 654 166 654 c 16
 194 654 224 647 244 625 c 0
 252 615 241.983 602.271 232 594 c 24
 225.066 588.256 212 591 209 596 c 0
 196 617 183 625 151 625 c 8
 108.852 625 83 583.148 83 541 c 16
 83 483 114.415 443 164 443 c 16
 191 443 208 450 225 470 c 0
 231 477 250 463 248 456 c 0
 242 435 200 401 140 401 c 12
 76.8184 401 29 457 29 519 c 8
452 220 m 0
 407 220 391 175 391 129 c 0
 391 74 419 24 463 24 c 0
 507 24 524 68 524 116 c 0
 524 168 497 220 452 220 c 0
463 251 m 0
 528 251 587 196 587 131 c 0
 587 61 541 -5 451 -5 c 0
 384 -5 328 43 328 115 c 0
 328 189 389 251 463 251 c 0
EndSplineSet
Refer: 1136 8260 S 1 0 0 1 256 0 2
Validated: 1
EndChar

StartChar: uni2120
Encoding: 8480 8480 835
Width: 850
VWidth: 280
Flags: W
HStem: 269 21<107.722 187.82> 280 22<276.875 322.313 385.648 433.232 627.875 676.653 757 815.232> 649 24<755.437 808.132> 656 20<119.512 195.511 277.488 301.932>
VStem: 37 49<550.438 635.849> 217 59<318.511 416.83> 239 24<575.836 615.607> 338 33<312.327 578.366> 682 64<308.054 584>
LayerCount: 2
Fore
SplineSet
139 290 m 0x9d80
 192 290 217 310 217 369 c 0x9d80
 217 409 178 435 127 468 c 0
 82 497 37 530 37 578 c 0
 37 626 75 676 164 676 c 0
 206 676 231 670 244 668 c 8
 251 667 255 660 256 654 c 0
 260 634 263 610 263 589 c 0
 263 584 259 574 256 574 c 0
 253 574 241 580 239 589 c 0x9b80
 223 644 181 656 159 656 c 0
 119 656 86 630 86 590 c 0
 86 552 146 521 178 500 c 0
 211 478 276 444 276 383 c 0
 276 335 240 269 142 269 c 0
 95 269 63 280 52 285 c 0
 44 289 39 292 38 295 c 0
 31 309 24 353 23 375 c 0
 22 380 29 384 36 384 c 0
 39 384 44 382 47 374 c 0
 55 354 96 290 139 290 c 0x9d80
378 578 m 16
 374 586 371 582 371 573 c 2
 371 342 l 2
 371 326 381 307 413 302 c 0
 428 300 434 293 434 288 c 0
 434 283 426 280 415 280 c 2
 295 280 l 2
 284 280 276 283 276 288 c 0
 276 293 283 300 298 302 c 0
 330 307 338 333 338 341 c 2
 338 598 l 2
 338 614 338 619 327 631 c 0
 314 645 302 646 286 650 c 0
 282 651 277 659 277 664 c 0
 277 670 288 673 292 673 c 2
 394 673 l 2
 406 673 423.504 627.355 431 612 c 2
 534 401 l 2
 538.646 389.848 543.383 387.808 549 399 c 2
 667.5 635.116 l 2
 677.502 654.117 687 673 697 673 c 2
 793 673 l 2
 795 673 809 671 809 664 c 0
 809 657 796 650 792 649 c 0
 770 643 746 640 746 621 c 2
 746 337 l 2
 746 311.98 763 307 795 302 c 0
 810 300 816 293 816 288 c 0
 816 283 808 280 797 280 c 2
 646 280 l 2
 635 280 627 283 627 288 c 0
 627 293 634 300 649 302 c 0x6d80
 674 305 682 310 682 338 c 2
 682 584 l 2
 682 597 677.341 595.329 672 584 c 2
 523.5 269 l 1
 513.5 288.116 437.569 458.861 378 578 c 16
EndSplineSet
Validated: 1
EndChar

StartChar: trademark
Encoding: 8482 8482 836
Width: 1012
VWidth: 280
Flags: W
HStem: 269 21G<680.5 694.929> 280 22<82.8748 135.8 237.478 290.232 438.875 484.313 547.648 595.232 789.875 838.653 919 977.232> 638 32<51.5117 142.217 219.007 350.912> 650 23<439.371 479.96 920.364 970.395>
VStem: 154 64<311.422 635.898> 355 22<596.218 629.727> 500 33<312.327 578.366> 844 64<308.054 584>
LayerCount: 2
Fore
SplineSet
218 349 m 2x6f
 218 320 238 307 270 302 c 0
 285 300 291 293 291 288 c 0
 291 283 283 280 272 280 c 2
 101 280 l 2
 90 280 82 283 82 288 c 0
 82 293 89 300 104 302 c 4
 136 307 154 320 154 349 c 2
 154 610 l 2
 154 621 153 634 143 636 c 0
 126 639 128 638 86 638 c 0
 65 638 42 635 33 619 c 0
 29 612 16 596 6 596 c 0
 0 596 0 608 5 616 c 0
 17 639 21 658 25 683 c 0
 27 696 33 696 36 696 c 0
 39 696 48 691 52 684 c 0
 57 676 80 670 98 670 c 2
 315 670 l 2
 334 670 356 677 362 685 c 0
 369 694 375 692 380 692 c 0
 383 692 389 687 388 681 c 0
 383 658 376 632 377 611 c 0
 377 604 374 595 367 596 c 0
 359 597 358 610 355 615 c 0
 349 626 348 638 306 638 c 0
 272 638 241 637 229 636 c 0
 220 635 218 621 218 610 c 2
 218 349 l 2x6f
540 578 m 16
 536 586 533 582 533 573 c 2
 533 342 l 2
 533 326 543 307 575 302 c 0
 590 300 596 293 596 288 c 0
 596 283 588 280 577 280 c 2
 457 280 l 2
 446 280 438 283 438 288 c 0
 438 293 445 300 460 302 c 0
 492 307 500 333 500 341 c 2
 500 598 l 2
 500 614 500 619 489 631 c 0
 476 645 464 646 448 650 c 0
 444 651 439 659 439 664 c 0
 439 670 450 673 454 673 c 2
 556 673 l 2
 568 673 585.504 627.355 593 612 c 2
 696 401 l 2
 700.646 389.848 705.383 387.808 711 399 c 2
 829.5 635.116 l 2
 839.502 654.117 849 673 859 673 c 2
 955 673 l 2
 957 673 971 671 971 664 c 0
 971 657 958 650 954 649 c 0
 932 643 908 640 908 621 c 2
 908 337 l 2
 908 311.98 925 307 957 302 c 0
 972 300 978 293 978 288 c 0
 978 283 970 280 959 280 c 2
 808 280 l 2
 797 280 789 283 789 288 c 0
 789 293 796 300 811 302 c 0x5f
 836 305 844 310 844 338 c 2
 844 584 l 2
 844 597 839.341 595.329 834 584 c 2
 685.5 269 l 1x8f
 675.5 288.116 599.569 458.861 540 578 c 16
EndSplineSet
Validated: 33
EndChar
StartChar: uni2127
Encoding: 8487 8487 1139
Width: 830
VWidth: 0
Flags: W
HStem: -14 33<338.763 476.425> 580 70<96.3941 277.203 548.505 733.389>
VStem: 100 100<193.986 412.958> 630 100<197.56 395.419>
LayerCount: 2
Fore
SplineSet
277 569.108 m 4
 281.55 571.182 271.974 577.516 266 578.07 c 4
 239.115 580.564 206 580 187 580 c 4
 138 580 99.8887 574 78.8887 537 c 4
 69.8135 521.011 60.8887 507 48 507 c 4
 42.0469 507 37.6602 513.328 40 520 c 4
 57.8887 571 75.8887 613 81 638 c 4
 82.792 646.763 85 655 95 655 c 4
 124.89 655 146.841 650.303 174.889 650 c 4
 285.175 648.81 265.347 650 349.889 650 c 4
 356.889 650 358.585 643.951 357.889 639 c 4
 354.827 617.214 354.604 615.868 348.889 602 c 4
 344.697 591.83 337.166 581.96 333.137 579 c 4
 246 515 200 397.582 200 273 c 4
 200 153.49 279.964 19 408 19 c 20
 544.83 19 630 181.17 630 318 c 4
 630 423.08 566 526 502.771 573 c 4
 498.758 575.982 485.121 591.801 481 602 c 4
 475.381 615.908 475.062 617.214 472 639 c 4
 471.304 643.951 473 650 480 650 c 4
 564.542 650 544.714 648.81 655 650 c 4
 683.048 650.303 704.999 655 734.889 655 c 4
 744.889 655 747.097 646.763 748.889 638 c 4
 754 613 772 571 789.889 520 c 4
 792.229 513.328 787.842 507 781.889 507 c 4
 769 507 760.075 521.011 751 537 c 4
 730 574 691.055 580 642.889 580 c 4
 618 580 579 581.011 547 576 c 4
 542.06 575.227 550.549 566.928 555 564.65 c 4
 655.523 513.21 728.816 408.996 730 288 c 12
 731.649 119.501 583.21 -14 421 -14 c 12
 245.055 -14 101.722 127.062 100 303 c 20
 98.8271 422.815 173.292 521.846 277 569.108 c 4
EndSplineSet
Validated: 33
EndChar

StartChar: uni226B
Encoding: 8811 8811 883
Width: 836
VWidth: 0
Flags: W
LayerCount: 2
Fore
SplineSet
427 229 m 6
 430 230 431 233 428 234 c 6
 55 408 l 14
 35 417 30 433 24 454 c 28
 22 461 30 471 37 468 c 30
 474 268 l 30
 494 259 507 231 507 222 c 4
 507 216 483 203 466 195 c 30
 37 -5 l 30
 30 -8 23 1 23 7 c 4
 23 16 28 46 47 55 c 22
 427 229 l 6
723 229 m 6
 726 230 727 233 724 234 c 6
 351 408 l 14
 331 417 326 433 320 454 c 28
 318 461 326 471 333 468 c 30
 770 268 l 30
 790 259 803 231 803 222 c 4
 803 216 779 203 762 195 c 30
 333 -5 l 30
 326 -8 319 1 319 7 c 4
 319 16 324 46 343 55 c 22
 723 229 l 6
EndSplineSet
Validated: 1
EndChar
StartChar: openbullet
Encoding: 9702 9702 1173
Width: 310
VWidth: 0
Flags: W
HStem: 250 35<107.331 202.669> 435 35<107.331 202.669>
VStem: 45 35<312.331 407.669> 230 35<312.331 407.669>
LayerCount: 2
Fore
SplineSet
155 435 m 24
 113.634 435 80 401.366 80 360 c 24
 80 318.634 113.634 285 155 285 c 24
 196.366 285 230 318.634 230 360 c 24
 230 401.366 196.366 435 155 435 c 24
155 470 m 24
 215.67 470 265 420.67 265 360 c 24
 265 299.33 215.67 250 155 250 c 24
 94.3301 250 45 299.33 45 360 c 24
 45 420.67 94.3301 470 155 470 c 24
EndSplineSet
Validated: 1
EndChar
